<?xml version="1.0" standalone="no"?>
<!DOCTYPE svg PUBLIC "-//W3C//DTD SVG 1.1//EN" "http://www.w3.org/Graphics/SVG/1.1/DTD/svg11.dtd" >
<svg xmlns="http://www.w3.org/2000/svg">
<metadata>Generated by IcoMoon</metadata>
<defs>
<font id="icomoon" horiz-adv-x="1024">
<font-face units-per-em="1024" ascent="960" descent="-64" />
<missing-glyph horiz-adv-x="1024" />
<glyph unicode="&#x20;" horiz-adv-x="512" d="" />
<glyph unicode="&#x78;" glyph-name="x" horiz-adv-x="1001" d="M281 607q-27-1-53-1h-83q-18 0-36.5-6t-32.5-18.5-23-32-9-45.5v-76h912v41q0 16-0.5 30t-0.5 18q0 13-5 29t-17 29.5-31.5 22.5-49.5 9h-133v-97h-438v97zM955 374v-52q0-23 0.5-52t0.5-58-10.5-47.5-26-30-33-16-31.5-4.5q-14-1-29.5-0.5t-29.5 0.5h-32l-45 128h-439l-44-128h-63q-20 0-45 1-25 0-41 9.5t-25.5 23-13.5 29.5-4 30v167h911zM163 311q-12 0-21-8.5t-9-21.5 9-21.5 21-8.5q13 0 22 8.5t9 21.5-9 21.5-22 8.5zM316 187q-8-26-14-48-5-19-10.5-37t-7.5-25-3-15 1-14.5 9.5-10.5 21.5-4h365q23 0 34 12t2 38q-5 13-9.5 30.5t-9.5 34.5q-5 19-11 39h-368zM336 562v228q0 11 2.5 23t10 21.5 20.5 15.5 34 6h188q31 0 51.5-14.5t20.5-52.5v-227h-327z" />
<glyph unicode="&#xe600;" glyph-name="shoucang" d="M510 817q15 0 21-12l97-198q9-18 29-21l224-33q14-2 18-14t-5-20l-164-161q-14-14-11-33l38-222q2-13-9-20-6-4-13-4-6 0-12 3l-195 102q-9 5-18.5 5t-18.5-5l-195-102q-5-3-11-3-8 0-14 4-11 7-9 20l38 222q3 19-11 33l-164 161q-9 8-5 20t18 14l224 33q20 3 29 21l98 198q6 12 21 12zM510 855q-18 0-33.5-9t-23.5-25l-97-197-223-33q-18-2-31-13t-19-27q-12-34 14-60l164-160-38-222q-6-36 26-58 16-10 36-10 15 0 30 7l195 103 195-103q14-7 30-7 19 0 35 10 32 22 26 58l-38 222 164 160q26 26 14 60-5 16-18.5 27t-30.5 13l-224 33-97 197q-8 16-23 25t-33 9v0z" />
<glyph unicode="&#xe601;" glyph-name="shouye2-copy" d="M995 482q0 24-15 46-1 1-92 98.5t-181 193.5l-90 96q-37 40-92 40v0h-3q-54 0-91-40-361-385-363-388-15-22-16-46v-7q0-39 28-67t67-28h23v-342q0-41 33-70.5t79-29.5 78.5 29.5 32.5 70.5v342h261v-342q0-41 33-70.5t79-29.5 78.5 29.5 32.5 70.5v342h23q39 0 67 28t28 67v7zM853 826l1-1 72-75q7-8 18-8.5t19 7.5v0l1 1q5 5 7 12v3q1 3 1 4l8 141q1 15-9 26v0h-1q-11 11-26 11h-145q-2 0-3-1-7-1-12-5l-1-1q-8-8-8.5-19t7.5-19z" />
<glyph unicode="&#xe602;" glyph-name="iconfont58-copy" d="M978.5 692q-8.5 9-21 9t-21.5-9l-424-424-424 424q-9 9-21.5 9t-21-9-8.5-21.5 8-20.5l446-446q9-9 21.5-9t20.5 9q1 0 1 0.5v0.5l445 445q8 8 8 20.5t-8.5 21.5z" />
<glyph unicode="&#xe603;" glyph-name="weixin" d="M669 559q14 0 30-2-20 95-110.5 157.5t-206.5 62.5q-130 0-222-77.5t-92-189.5q0-124 126-212l-31-94 109 55q80-16 110-16 14 0 30 1-10 33-10 66 0 103 77.5 176t189.5 73zM500 644q18 0 28.5-11t10.5-28.5-10.5-28.5-28.5-11-32.5 11.5-14.5 28.5 14.5 28 32.5 11zM280 565q-18 0-32.5 11.5t-14.5 28.5 14.5 28 32.5 11 29-11 11-28.5-11-28.5-29-11zM956 314q0 93-80 160.5t-187 67.5q-112 0-189.5-67t-77.5-161.5 77.5-161 189.5-66.5q31 0 94 16l86-47-23 78q110 83 110 181zM602 353q-11 0-21 10t-10 21.5 10 21.5 21 10q17 0 28.5-9.5t11.5-22-11.5-22-28.5-9.5zM775 353q-12 0-21.5 10t-9.5 21.5 9.5 21.5 21.5 10q17 0 28-9.5t11-22-11-22-28-9.5z" />
<glyph unicode="&#xe604;" glyph-name="iconfont" d="M948-100q0-16-11.5-27.5t-28-11.5-28 11.5-11.5 27.5v8q-18 130-118 215.5t-235 86.5h-8q-134-1-233-84.5t-119-211.5q1-5 1-10v-4q0-16-11.5-28t-28-12-28 12-11.5 28l-1 1v3q0 4 1 9 16 119 89.5 210.5t183.5 133.5q-64 41-102 110t-38 149q0 128 87.5 217.5t213.5 89.5 213.5-89.5 87.5-217.5q0-80-38-149t-102-110q109-42 182.5-132.5t89.5-207.5q3-7 3-13v-4zM743 516q0 96-67.5 164t-163.5 68-164-68-68-164 68-163.5 164-67.5 163.5 67.5 67.5 163.5z" />
<glyph unicode="&#xe605;" glyph-name="552cc4d25879a" d="M383 0h-3q-121 11-201.5 62t-80.5 116q0 41 38 74.5t93.5 54 123.5 30.5v13q-34 25-56 60t-33 78-14.5 83-3.5 92q0 109 61 171t169 62q106 0 163-60t57-173q0-52-16.5-114t-45.5-116q-6-12-19-15.5t-24.5 2.5-15.5 18.5 2 24.5q25 47 40 101.5t15 98.5q0 169-156 169-166 0-166-169 0-47 3-82.5t12-73 28.5-66.5 48.5-48q15-9 15-27v-57q0-12-8.5-21.5t-20.5-10.5q-96-10-161-41.5t-65-57.5q0-33 63.5-69.5t159.5-44.5q14-1 22.5-11.5t7.5-23.5q-2-12-11-20.5t-21-8.5zM769 192h-128q-14 0-23 9.5t-9 22.5 9 22.5 23 9.5h128q13 0 22.5-9.5t9.5-22.5-9.5-22.5-22.5-9.5zM705 93h-64q-14 0-23 9t-9 22.5 9 23 23 9.5h64q13 0 22.5-9.5t9.5-23-9.5-22.5-22.5-9zM833-3h-256q-40 0-68 28t-28 68v163q0 40 28 68t68 28h256q39 0 67.5-28t28.5-68v-163q0-40-28.5-68t-67.5-28zM577 288q-13 0-22.5-9.5t-9.5-22.5v-163q0-14 9.5-23t22.5-9h256q13 0 22.5 9t9.5 23v163q0 13-9.5 22.5t-22.5 9.5h-256z" />
<glyph unicode="&#xe606;" glyph-name="zuoyoujian" d="M679 448l-438-426 105-86 510 516-541 508-88-97z" />
<glyph unicode="&#xe607;" glyph-name="paihang1" d="M90 82h230v531h-230v-531zM397 82h230v723h-230v-723zM699 474v-392h235v392h-235z" />
<glyph unicode="&#xe608;" glyph-name="neicun1" d="M512-64q-104 0-199 40-92 39-163 110t-110 163q-40 95-40 199t40 199q39 92 110 163t163 110q95 40 199 40t199-40q92-39 163-110t110-163q40-95 40-199t-40-199q-39-92-110-163t-163-110q-95-40-199-40zM512 927q-97 0-186-38t-153-102-102-153-38-186 38-186 102-153 153-102 186-38 186 38 153 102 102 153 38 186-38 186-102 153-153 102-186 38zM411 732q-20 0-34-15t-14-35q-2-88 0-139-1-13-26-30.5t-49.5-34.5-24.5-30v-234q0-21 14-36t34-15h134l135 1h133q20 0 34 15t14 35l-1 468q0 21-14 36t-34 15zM714 201h-407q-6 0-10.5 6.5t-4.5 14.5v201q0 12 25.5 31t50.5 38 25 32v157q0 5 4.5 10.5t10.5 5.5h306q15 0 15-21v-453q0-10-4-16t-11-6zM677 475v179h-41v-179h41zM542 654v-179h42v179h-42zM449 654v-179h42v179h-42z" />
<glyph unicode="&#xe609;" glyph-name="yuyan1" d="M512-64q-104 0-199 40-92 39-163 110t-110 163q-40 95-40 199t40 199q39 92 110 163t163 110q95 40 199 40t199-40q92-39 163-110t110-163q40-95 40-199t-40-199q-39-92-110-163t-163-110q-95-40-199-40zM512 927q-97 0-186-38t-153-102-102-153-38-186 38-186 102-153 153-102 186-38 186 38 153 102 102 153 38 186-38 186-102 153-153 102-186 38zM258 230h1q5-6 17-18 97-97 236-97 75 0 140.5 30.5t112.5 84.5h1q5 3 6 8 74 92 74 210t-74 210q-2 5-6 7h-1q-9 11-17 19-98 97-236 97t-236-97q-8-9-17-19h-1q-4-2-6-7-74-92-74-210.5t74-210.5q1-5 6-7zM262 636q32-41 90-66-15-54-17-112h-136q3 100 63 178zM495 760h5v-198q-68 1-122 20 16 48 44.5 91.5t44 59.5 28.5 27zM528 760q12-10 28-27t44-60 45-91q-54-19-124-20v198h7zM825 458h-136q-2 58-17 112 58 25 90 66 60-78 63-178zM761 258q-31 42-89 67 15 54 17 112h136q-3-99-64-179zM528 135h-4t-3-1v199q69-2 124-21-17-47-45-90.5t-44-60-28-26.5zM495 135q-12 10-28 26.5t-44.5 60-44.5 90.5q53 19 122 21v-199q0 1-2 1h-3zM500 354q-72-2-128-21-14 48-16 104h144v-83zM521 354v83h147q-2-51-17-104-56 19-130 21zM668 458h-147v83q73 2 130 21 15-53 17-104zM500 541v-83h-144q2 55 16 104 56-20 128-21zM335 437q2-58 17-112-58-25-90-67-60 79-63 179h136zM276 242q27 38 83 63 33-96 102-167-99 16-170 88-7 7-15 16zM563 138q69 71 102 167 21-10 39-21 28-19 44-42-75-86-185-104zM748 653q-27-38-83-63-33 96-102 166 99-16 170-87 6-6 15-16zM461 756q-69-70-102-166-22 9-39 21-28 19-44 42 8 9 15 16 71 71 170 87z" />
<glyph unicode="&#xe60a;" glyph-name="chongzhi" d="M415 433q-7 0-12 5.5t-5 13 5 12.5 12 5h113v22q-1 3-2 5l-104 111q-5 6-5 13.5t5 13 12.5 5.5 12.5-6l99-106 99 106q5 6 12.5 6t12.5-5.5 5-13-5-13.5l-105-111q0-2-1-5v-22h112q7 0 12.5-5t5.5-12.5-5.5-13-12.5-5.5h-112v-42h112q7 0 12.5-5t5.5-12.5-5.5-13-12.5-5.5h-112v-78q0-7-5.5-12.5t-13-5.5-12.5 5.5-5 12.5v78h-113q-7 0-12 5.5t-5 13 5 12.5 12 5h113v42h-113zM924 287q-31-74-88.5-132t-132.5-89q-77-33-162-33t-162 33q-56 23-103 62h62q93-59 203-59 103 0 190.5 51t138.5 139 51 191-51 190.5-138.5 138.5-190.5 51-190.5-51-138.5-138.5-51-190.5h-36q0 84 33 162 31 75 89 132.5t132 89.5q77 33 162 33t162-33q74-32 132-89.5t89-132.5q33-78 33-162.5t-33-162.5zM233 396q-12 12 0 24 5 4 11.5 4t11.5-5l90-95 1-2 2-3q1-3 1-6t-1-6q0-1-2-3 0-1-0.5-1.5t-0.5-1.5l-90-95q-5-5-11.5-5t-11.5 5q-12 12 0 23l63 67h-214q-7 0-11.5 5t-4.5 12 4.5 11.5 11.5 4.5h214z" />
<glyph unicode="&#xe60b;" glyph-name="leixing1" d="M512-64q-104 0-199 40-92 39-163 110t-110 163q-40 95-40 199t40 199q39 92 110 163t163 110q95 40 199 40t199-40q92-39 163-110t110-163q40-95 40-199t-40-199q-39-92-110-163t-163-110q-95-40-199-40zM512 927q-97 0-186-38t-153-102-102-153-38-186 38-186 102-153 153-102 186-38 186 38 153 102 102 153 38 186-38 186-102 153-153 102-186 38zM438 174h-148q-24 0-41.5 16.5t-17.5 40.5v145q0 24 17.5 41t41.5 17h148q25 0 42-17t17-41v-145q0-24-17-40.5t-42-16.5zM468 376q0 12-9 20.5t-21 8.5h-148q-12 0-20.5-8.5t-8.5-20.5v-145q0-12 8.5-20.5t20.5-8.5h148q12 0 21 8.5t9 20.5v145zM734 174h-148q-25 0-42 16.5t-17 40.5v145q0 24 17 41t42 17h148q24 0 41.5-17t17.5-41v-145q0-24-17.5-40.5t-41.5-16.5zM763 376q0 12-8.5 20.5t-20.5 8.5h-148q-12 0-21-8.5t-9-20.5v-145q0-12 9-20.5t21-8.5h148q12 0 20.5 8.5t8.5 20.5v145zM734 462h-148q-25 0-42 17t-17 41v145q0 24 17 41t42 17h148q24 0 41.5-17t17.5-41v-145q0-24-17.5-41t-41.5-17zM763 665q0 12-8.5 20.5t-20.5 8.5h-148q-12 0-21-8.5t-9-20.5v-145q0-12 9-20.5t21-8.5h148q12 0 20.5 8.5t8.5 20.5v145zM438 462h-148q-24 0-41.5 17t-17.5 41v145q0 24 17.5 41t41.5 17h148q25 0 42-17t17-41v-145q0-24-17-41t-42-17zM468 665q0 12-9 20.5t-21 8.5h-148q-12 0-20.5-8.5t-8.5-20.5v-145q0-12 8.5-20.5t20.5-8.5h148q12 0 21 8.5t9 20.5v145z" />
<glyph unicode="&#xe60c;" glyph-name="paihang" d="M960 753v15h-162q1 31 1.5 61.5t-0.5 46.5v15q0 5-5 5h-565q-5 0-5-5-2-54 1-123h-161v-64q4-108 45-193 44-92 126-151 67-49 152-70 46-49 93-62v-71q-2-9-5.5-18t-17-23.5-33.5-25-57-18.5-85-8h-21q-5 0-5-5v-54q0-5 5-5h502q5 0 5 5v54q0 5-5 5h-21q-56 0-97 9.5t-59.5 23.5-29 27.5-11.5 23.5l-1 10v70q46 13 92 61 85 22 153 71 82 59 126 151 22 44 32.5 96.5t11.5 80 1 65.5zM167 539q-35 71-39 165h101q3-28 7-52 29-170 85-270-104 53-154 157zM857 539q-50-105-155-158 56 100 85 271 4 23 6 52h103q-4-94-39-165z" />
<glyph unicode="&#xe60d;" glyph-name="zhuanti" d="M754.5 598q-38.5 0-66 27.5t-27.5 66 27.5 66 66 27.5 66-27.5 27.5-66-27.5-66-66-27.5zM755 739q-20 0-34-13.5t-14-33.5 14-34q14-13 34-13t34 13q13 14 13 34t-13.5 33.5-33.5 13.5zM460.5 19q-22.5 0-38.5 16l-324 325q-16 15-16 37.5t16 38.5l424 424q18 18 64 18h290q27 0 46-19t19-46v-284q0-17-0.5-26t-4.5-22-13-21l-424-425q-16-16-38.5-16zM586 841q-30 0-37-7l-425-424q-5-5-5-12t5-12l325-324q5-5 12-5t11 5l425 424q7 7 7 43v284q0 12-8 20t-20 8h-290z" />
<glyph unicode="&#xe60e;" glyph-name="wenda" horiz-adv-x="1300" d="M1209 158h-136l-75-97-132 97h-415q-37 1-63 28.5t-26 62.5v621q0 37 26 63.5t63 26.5h758q38 0 64-26.5t26-63.5v-621q0-38-26-64.5t-64-26.5v0zM801 289h71v72h-71v-72zM957 774q-45 42-120 42-71 0-114-38.5t-52-111.5l65-8q8 55 35 80t67 25q42 0 70.5-28t28.5-65q0-20-10-37.5t-42.5-46.5-45.5-45q-17-21-24-41-11-27-11-65 0-5 1-19v0h60q1 39 5 55 5 17 14 30t40 41q46 41 61.5 69.5t15.5 62.5q0 59-44 100v0zM687 98v-24q0-28-19-47.5t-46-19.5h-304l-97-71-55 71h-100q-28 0-47 19.5t-19 47.5v455q0 27 19 46.5t47 19.5l234 6v-390q-3-56 19-80 13-14 33-22.5t34-9.5l14-1h287z" />
<glyph unicode="&#xe60f;" glyph-name="close" d="M185 40q6-6 14.5-6t14.5 6l292 293 293-293q6-6 14.5-6t14.5 6 6 14.5-6 14.5l-292 292 292 293q6 6 6 14.5t-6 14.5-14.5 6-14.5-6l-293-293-292 293q-6 6-14.5 6t-14.5-6-6-14.5 6-14.5l292-293-292-292q-6-6-6-14.5t6-14.5z" />
<glyph unicode="&#xe610;" glyph-name="daxiao" d="M328 959q-35 0-60-26.5t-25-63.5q-3-156 0-248-1-19-29-42.5t-61-42-60.5-42-27.5-42.5v-419q0-37 25-63.5t60-26.5l240 1h478q35 0 60 26.5t25 64.5l-1 835q0 37-25 63.5t-61 26.5zM870 11h-233l-234-1h-261q-10 0-18 12t-8 26v358q0 18 28 43.5t62 47 62.5 46.5 28.5 44v281q0 9 8 19t19 10h545q12 0 19.5-11t7.5-28l1-809q0-16-7.5-27t-19.5-11zM803 500v319h-73v-320zM563 819v-320h74v320h-74zM397 819v-319l74-1v320h-74z" />
<glyph unicode="&#xe611;" glyph-name="xiaofeijilu" d="M1016 5l-129 129 6 7q58 75 58 172 0 116-82.5 198.5t-199 82.5-199-82.5-82.5-199 82.5-199 199.5-82.5q97 0 173 60l6 5 129-129q8-7 19-7t19 7.5 8 18.5-8 19zM831 151.5q-14-13.5-29-24.5-59-42-132-42-95 0-161.5 66.5t-66.5 161 67 161.5 161 67 161-67 67-161q0-73-42-132v0q-11-16-25-29.5zM285 445h-114q-11 0-18-8t-7-19 7-19 18-8h114q10 0 17.5 8t7.5 19-7.5 19-17.5 8zM386 616h-215q-11 0-18-7.5t-7-18.5 7-19 18-8h215q10 0 17.5 8t7.5 19-7.5 18.5-17.5 7.5zM670 779h-498q-11 0-18.5-7.5t-7.5-18.5 7.5-19 18.5-8h498q11 0 18.5 8t7.5 19-7.5 18.5-18.5 7.5zM854 837q0 42-29 71t-70 29h-655q-42 0-71-29t-29-71v-778q0-41 29-70t71-29h364q11 0 19 7.5t8 18.5-8 19-19 8h-364q-19 0-32.5 13.5t-13.5 32.5v778q0 19 13.5 32.5t32.5 13.5h655q19 0 32.5-13.5t13.5-32.5v-164q0-11 8-18.5t19-7.5 18.5 7.5 7.5 18.5v164z" />
<glyph unicode="&#xe613;" glyph-name="guanbi" d="M489 702h42v-278h-42v278zM624 642v-45q93-35 151-117.5t58-184.5q0-88-43.5-162t-117.5-117.5-162-43.5-162 43.5-117.5 117.5-43.5 162q0 102 58 184.5t151 117.5v45q-111-36-181.5-131.5t-70.5-215.5q0-99 49-183.5t133.5-133.5 183.5-49 183.5 49 133.5 133.5 49 183.5q0 120-70.5 215.5t-181.5 131.5z" />
<glyph unicode="&#xe614;" glyph-name="shijian4" d="M512.5-79q-90.5 0-172.5 35.5t-141.5 94.5-94.5 141.5-35 172.5 35 172.5 94.5 142 141.5 94.5 172.5 35 172.5-35 141.5-94.5 94.5-142 35-172.5-35-172.5-94.5-141.5-141.5-94.5-172.5-35.5zM512.5 742q-102.5 0-189.5-50.5t-137-137-50-189 50-189.5 137-137.5 189.5-50.5 189.5 50.5 137.5 137.5 50.5 189.5-50.5 189-137.5 137-189.5 50.5zM726 308h-224q-10 0-17 7t-7 17v270q0 10 7 16.5t16 6.5h23q9 0 15.5-6.5t6.5-16.5v-226h180q10 0 16.5-6.5t6.5-15.5v-23q0-9-6.5-16t-16.5-7z" />
<glyph unicode="&#xe618;" glyph-name="paixingbang" d="M217 891h590v-885l-295 233-295-233v885z" />
<glyph unicode="&#xe61b;" glyph-name="vipicon" d="M982 544q-4 5-49 57.5t-91 105.5-69 77q-14 16-24.5 23t-27.5 7h-417q-28 0-53-29-21-25-103.5-120t-104.5-121q-21-24-21.5-54.5t21.5-65.5q12-15 417-481 26-30 52-30t53 30q410 473 417 481 19 23 20 57.5t-20 62.5zM799 448q0-11-10-11h-15.5t-4.5-1.5-3-2-3-3-3-4.5l-247-333v1l-1 1v-2q-198 266-247 333-1 2-3 4.5t-3 3-3 2-4.5 1.5h-16.5q-10 0-10 11v55q0 11 10 11h99q13 0 20-11l158-223v-1l1 1 158 223q7 11 20 11h99q9 0 9-11v-55z" />
<glyph unicode="&#xe61d;" glyph-name="qiandao" d="M902 830h-72v92q0 16-11 27t-27 11h-2q-16 0-27.5-11t-11.5-27v-92h-475v92q0 16-11 27t-27 11h-3q-15 0-26.5-11t-11.5-27v-92h-75q-50 0-85.5-35.5t-35.5-85.5v-652q0-50 35.5-85.5t85.5-35.5h780q50 0 85.5 35.5t35.5 85.5v652q0 50-35.5 85.5t-85.5 35.5v0zM946 15h-867v540h867v-540zM946 636h-867v118h867v-118zM409 86q10-10 24-10 10 0 18 5 5 2 8 6l352 352q11 10 11 24.5t-10.5 25-25 10.5-24.5-11l-328-328-167 166q-10 10-24.5 10t-24.5-10-10-24.5 10-24.5l191-191z" />
<glyph unicode="&#xe61e;" glyph-name="vip1" horiz-adv-x="1025" d="M1003 636q-5 5-51.5 59.5t-94.5 110-72 81.5q-15 16-26 23.5t-29 7.5h-435q-30 0-56-30-23-27-108.5-126t-108.5-126q-21-25-22-57t22-68q14-16 436-502 27-32 54.5-32t54.5 32q429 494 436 502 20 24 21 60t-21 65v0zM948 542q-25-29-168-190.5t-224-255.5q-21-25-43-25t-44 25q-82 96-226.5 259t-165.5 187q-11 11-11 28.5t11 34.5q18 22 96.5 111.5t93.5 107.5q7 8 14 13.5t13 9 11.5 5.5 11 3 9 1 8-0.5 5.5-0.5h348q29 0 42-6t29-25q92-106 190-219 21-30 0-63v0zM802 605h-103q-14 0-21-12l-165-233v1l-166 232q-7 12-20 12h-104q-4 0-7-3.5t-3-8.5v-57q0-5 3-8.5t7-3.5h17.5t4.5-1.5 3-2 3-3.5 3-4q23-31 87.5-118t118-158l53.5-71q206 277 258 347 1 1 3 4t3 3.5 3 2 4.5 1.5h17.5q4 0 7 3.5t3 8.5v57q0 5-3 8.5t-7 3.5v0z" />
<glyph unicode="&#xe61f;" glyph-name="xiayiye" d="M903 414l-361-348q-9-10-21.5-10t-21.5 9.5-9 23 9 22.5l339 327-339 328q-9 9-9 22t9 22.5 21.5 9.5 21.5-9l361-349q9-9 8-24 1-14-8-24zM564 414l-361-348q-9-9-21.5-9t-21.5 9-9 22.5 9 22.5l339 327-339 328q-9 9-9 22.5t9 22.5 21.5 9 21.5-9l361-348q9-10 9-25 0-14-9-24z" />
<glyph unicode="&#xe620;" glyph-name="shijian2" d="M511.5 748q-104.5 0-192.5-51t-139.5-139.5-51.5-193 51.5-193 139.5-139.5 192.5-51 193 51 139.5 139.5 51 193-51 193-139.5 139.5-193 51zM511.5 16q-94.5 0-175 46.5t-127 127-46.5 175 46.5 175 127 127 175 46.5 175-46.5 127.5-127 47-175-47-175-127.5-127-175-46.5zM704 365h-175v226q0 8-5 13t-12.5 5-12.5-5-5-13v-244q0-7 5-12t13-5h192q7 0 12 5t5 12-5 12.5-12 5.5z" />
<glyph unicode="&#xe623;" glyph-name="iconfonterror" d="M514.5 769q-112.5 0-208-55.5t-151-151.5-55.5-208.5 55.5-208 151-151 208-55.5 208.5 55.5 151.5 151 55.5 208-55.5 208.5-151.5 151.5-208.5 55.5zM658 208q-5-5-11.5-7.5t-10.5-2.5h-4q-8 0-15.5 3t-10.5 5l-3 3-88 89-89-89q-9-11-29-11-15-1-26 10-12 12-12 28 0 19 12 29l88 88-89 89q-6 6-8.5 13.5t-2.5 11.5v5q0 7 3 13.5t5 9.5l3 2q5 5 11.5 8t10.5 4h4q8 0 15.5-3t10.5-6l4-3 89-89 89 89q11 12 29 12 15 0 26-12 11-8 11-25 3-16-11-30l-89-89 88-88q5-4 8-11.5t4-12.5v-5q0-7-3-14t-6-10z" />
<glyph unicode="&#xe624;" glyph-name="jiaocheng" d="M555 203v-171h106v-85h-298v85h106v171h-384v85h854v-85h-384zM128 693q0 36 25 61t60 25h598q35 0 60-25t25-61v-320h-768v320z" />
<glyph unicode="&#xe626;" glyph-name="shijian" d="M541 651q-127 0-217-90t-90-217 90-217 217-90 217 90 90 217-90 217-217 90zM541 76q-111 0-189.5 78.5t-78.5 189.5 78.5 189 189.5 78 189-78 78-189-78-189.5-189-78.5zM689 352h-137v163q0 9-6 15t-14 6-14-6-6-15v-184q0-8 6-14t14-6h157q8 0 14 6t6 14.5-6 14.5-14 6z" />
<glyph unicode="&#xe627;" glyph-name="mima" d="M855 505l-565 1q0 13-1.5 48t-1 58 3.5 54 14 56.5 30 45.5q33 37 80.5 62.5t96.5 25.5q75 0 133-49t89-126q9-23 18-33t26-11q21-1 33.5 8.5t15 24 1.5 29-6 26.5q-86 219-310 219-78 0-127-19.5t-95-68.5q-22-24-38.5-55.5t-25.5-62-15-64.5-7-63-2-57.5 0-47.5l-33-1q-23 0-39.5-16t-16.5-39v-459q0-23 16.5-39t39.5-16h686q23 0 39.5 16t16.5 39v459q0 23-16.5 39t-39.5 16v0 0 0zM824 68q0-18-13-31t-32-13h-533q-18 0-31 13t-13 31v307q0 18 13 31t31 13h533q19 0 32-13t13-31v-307z" />
<glyph unicode="&#xe628;" glyph-name="shijian5" d="M955 364q0-101-36-185.5t-97.5-141-142-87.5-168.5-31-169 33.5-142 91-97.5 141.5-36.5 179q0 90 35 172.5t94.5 142 142 95 173 35.5 173-35.5 142-95 94.5-142 35-172.5v0zM511 745q-104 0-192-51t-139-139-51-191.5 51-191 139-138.5 191.5-51 191.5 51 139 138.5 51 191-51 191.5-139 139-191 51v0zM733 332h-222q-14 0-23 9.5t-9 22.5v254q0 13 9 22.5t22.5 9.5 22.5-9.5 9-22.5v-222h191q13 0 22.5-9.5t9.5-22.5-9.5-22.5-22.5-9.5v0z" />
<glyph unicode="&#xe62c;" glyph-name="guanzhu" d="M512 20q-7 0-12 5-186 146-315 313-64 84-92 140-33 62-33 134 0 110 70 187 72 79 173 79 78 0 141-50 61-48 87-126 2-8-1.5-15t-11-9.5-15 1-9.5 11.5q-22 67-75 108t-116 41q-85 0-144.5-66.5t-59.5-160.5q0-63 28-116h1q26-53 89-135 126-163 307-306 6-5 7-13t-4-14q-6-8-15-8zM513 20q-10 0-16 8-5 6-4 14t8 13q182 143 307 307 63 81 89 134v0q29 53 29 116 0 94-60 160.5t-144 66.5q-64 0-116.5-41t-74.5-108q-3-8-10-11.5t-14.5-1-11.5 9.5-1 15q25 78 87 126 63 50 141 50 101 0 172-79 71-77 71-187 0-72-33-134-29-56-93-140-129-167-314-313-6-5-12-5z" />
<glyph unicode="&#xe62f;" glyph-name="xiazai2" d="M527 270q-6-7-15-7t-15 7l-199 198q-6 7-6 15.5t6 14.5v0q6 7 15 7t15-7l199-198q6-7 6-15.5t-6-14.5v0zM726 498q6-6 6-14.5t-6-15.5l-199-198q-6-7-15-7t-15 7v0q-6 6-6 14.5t6 15.5l199 198q6 7 15 7t15-7v0zM533 299q0-9-6-15.5t-15-6.5v0q-9 0-15 6.5t-6 15.5v469q0 9 6 15t15 6v0q9 0 15-6t6-15v-469zM874.5 405q-8.5 0-15-6t-6.5-15v-202q0-14-9-23.5t-23-9.5h-618q-14 0-23 9.5t-9 23.5v202q0 9-6.5 15t-15 6-15-6-6.5-15v-213q0-27 19-45.5t45-18.5h640q26 0 45 18.5t19 45.5v213q0 9-6.5 15t-15 6z" />
<glyph unicode="&#xe63f;" glyph-name="vip" d="M466 571h-71l39-46-95-193-16 301h-127q0-1-10.5-1.5t-26-0.5-30 0.5-26 1-10.5 0.5v-31l111-23q59-375 71-416h48l238 408h-95zM595 459q-8-7-19.5-7t-19 7.5-7.5 18.5 8 18.5 19 7.5 19-7.5 8-18.5-8-19v0zM596 157h-42v237h42v-237zM863 187q-29-36-79-36-45 0-70 39h-1v-143h-42v347h42v-41h1q28 47 81 47 46 0 71.5-32t25.5-86q0-59-29-95v0zM832 343q-18 22-48 22-31 0-51-22t-20-57v-32q0-28 18.5-48t46.5-20q34 0 52.5 25.5t18.5 71.5q0 38-17 60v0 0z" />
<glyph unicode="&#xe640;" glyph-name="appchanpinyemian01" d="M850 497q-27 65-78 116t-116 78q-69 29-143.5 29t-142.5-29q-65-27-116-78t-79-116q-28-69-28-143t28-143q28-65 79-116t116-78q68-29 142.5-29t143.5 29q65 27 116 78t78 116q29 68 29 143t-29 143v0zM741 125q-94-94-228-94t-228.5 94.5-94.5 228.5 94.5 228.5 228.5 94.5 228.5-94.5 94.5-228.5-95-229v0zM534 595q0 9-6 15.5t-15 6.5-15.5-6.5-6.5-15.5v-231q0-2 1-5-1-2-1-5 0-9 6.5-15.5t15.5-6.5h241q9 0 15.5 6.5t6.5 15.5-6.5 15.5-15.5 6.5h-220v219z" />
<glyph unicode="&#xe646;" glyph-name="youxi" horiz-adv-x="1025" d="M759 562q-36 0-111.5-34t-117.5-38v36q1 72 50.5 127t129.5 55h21q82 0 147.5 60t73.5 159h-37q-8-82-62-132t-122-50h-21q-63 0-113.5-33t-76.5-82-26-102v0-38q-42 4-117.5 38t-111.5 34q-23 0-56-17.5t-69.5-54.5-67.5-87-51.5-124.5-20.5-157.5q0-41 11-72t24.5-45.5 32-23 28-10 17.5-1.5h1q47 0 92 24t99 77q54 55 84 72.5t68 17.5h110q38 0 68-17.5t84-72.5q54-53 99-77t92-24h1q8 0 17.5 1.5t28 10 32 23 24.5 45.5 11 72q0 83-20.5 157.5t-51.5 124.5-67.5 87-69.5 54.5-56 17.5zM366 306h-73v-73h-37v73h-73v37h73v73h37v-73h73v-37zM676.5 270q-22.5 0-38.5 16t-16 38.5 16 39 38.5 16.5 38.5-16.5 16-39-16-38.5-38.5-16zM823 233q-23 0-39 16.5t-16 39 16 38.5 39 16 39-16 16-38.5-16-39-39-16.5z" />
<glyph unicode="&#xe655;" glyph-name="xiugai" d="M801 508q-12 0-19-7t-7-19v-334q0-28-18-48t-45-20h-485q-29 0-54 20.5t-25 47.5v486q0 27 25.5 50t53.5 23h276q12 0 19 7t7 19-7 19-19 7h-276q-56 0-93.5-35.5t-37.5-89.5v-486q0-54 37.5-87t93.5-33h485q55 0 85 32t30 88v329q0 12-7.5 21.5t-18.5 9.5v0zM906 801l-42 41q-24 24-58 24t-57-24l-73-88-397-387v-10l-52-173 36-31 162 57h10l382 403 89 73q23 23 23 57t-23 58v0zM300 226l26 73 47-47-73-26zM420 278l-73 74 360 355 68-68-355-361zM869 728l-52-53-79 79 53 52q2 0 10 2.5t10.5 2.5 10.5-2.5 10-2.5l42-42q11-21-5-36v0z" />
<glyph unicode="&#xe659;" glyph-name="icondengluyonghu" d="M600 4h-178q-54 0-81 0.5t-69 2.5-63 7.5-44 14.5-32 24-9 36v18q0 122 87.5 209t210.5 87h178q123 0 210.5-87t87.5-209v-18q0-15-5.5-27.5t-19-21.5-26.5-15-38.5-10-43-6.5-52-3.5-54.5-1h-59zM422 356q-104 0-177.5-73t-73.5-176v-18q0-13 20.5-21.5t65.5-11.5 76-4 89-1h178q51 0 81.5 1t76.5 4 69.5 11.5 23.5 21.5v18q0 103-73.5 176t-177.5 73h-178zM502 427q-98 0-167 68.5t-69 165.5q0 98 69 166.5t167 68.5 167.5-69 69.5-166-69.5-165.5-167.5-68.5zM502 849q-78 0-133-55t-55-132.5 55-132.5 133-55 133 55 55 132.5-55 132.5-133 55z" />
<glyph unicode="&#xe65b;" glyph-name="shijian7" d="M512-29q-92 0-175.5 36t-144 96.5-96.5 144-36 175.5 36 176 96.5 144.5 144 96.5 175.5 36 175.5-36 144-96.5 96.5-144.5 36-176-36-175.5-96.5-144-144-96.5-175.5-36zM512 856q-117 0-216.5-58t-157.5-157.5-58-217 58-217 157.5-157.5 216.5-58 216.5 58 157.5 157.5 58 217-58 217-157.5 157.5-216.5 58zM785 334h-368v386h20v-366h348v-20z" />
<glyph unicode="&#xe661;" glyph-name="iconfontweibowukuang" d="M727 405q-16 3-20.5 9.5t-0.5 11.5l3 4q1 3 3 7t6 15.5 4.5 22.5-4.5 25.5-16 25.5q-14 14-37 18.5t-46 1-44-9-33-11.5l-13-5q-10-3-17-4.5t-10.5 0-5.5 3.5-2 7.5 1 9 3 12.5 3 14q0 15-2.5 27.5t-11 27-23 22-41 7-62.5-12.5q-35-12-71.5-36t-64-49.5-50-49.5-34.5-40l-12-15q-33-44-48.5-87.5t-16.5-65 0-21.5q6-48 30-86.5t57-62 78.5-40 86.5-24.5 88-11q76-6 157 11.5t151 61 99 103.5q17 36 17.5 67t-10.5 51-29.5 35-34 22-27.5 9v0zM415 92q-110-5-188 42.5t-78 119.5 77.5 124 188.5 57q112 5 188.5-37t76.5-113q0-73-78-130.5t-187-62.5v0zM385 371q-30-3-53.5-13.5t-37-23.5-22.5-30-12.5-30.5-4.5-28-0.5-19.5 0.5-8v0-5t2-11.5 5.5-16.5 12-17 19.5-15q67-32 126-19.5t94 58.5q14 17 18.5 42t-2 50.5-22.5 47-48.5 33-74.5 6.5v0zM348 180q-20-2-35 8t-15 27q0 18 14 32.5t34 16.5q23 2 37.5-9t14.5-29q0-16-14.5-30t-35.5-16v0zM435 253q-7-5-14.5-4.5t-11.5 6.5-2 14.5 9 13.5q8 6 15.5 5t11.5-7q3-7 1-15t-9-13v0zM798 464q9 0 16 6t8 14v3q4 32-1 57t-16.5 39-26.5 23-30.5 11.5-28.5 3-21-0.5l-8-1q-10 0-17-7t-7-17 7-17 17-7q32 6 50.5 0.5t26-19.5 9-28 0.5-25l-2-11q0-10 7-17t17-7v0zM781 743q-51 12-121-1l-3-2h-1q-11-3-18.5-12.5t-7.5-21.5q0-14 10.5-24.5t25.5-10.5q18 3 31 8 6 0 18.5 1.5t33.5-3.5 42-13 43-26.5 37-43.5q28-60 11-115-7-17-7-34 0-14 10-22.5t25-8.5 23 5.5 11 23.5v0q19 57 14.5 102.5t-20 79-43.5 58-56 39-58 21.5v0z" />
<glyph unicode="&#xe670;" glyph-name="weibiaoti6-copy" d="M392 435l383 373-91 75-447-451 474-445 76 85z" />
<glyph unicode="&#xe678;" glyph-name="xin" d="M714 852q-58 0-111-24.5t-90-67.5h-2q-37 43-90 67.5t-111 24.5q-104 0-175-70t-71-172q0-27 6-54.5t14-51 27-52.5 33.5-50.5 45-54 50-53 60.5-58.5 64.5-59.5 72.5-65.5q6-5 9-8l65-57 1 1 1-1 65 57q3 3 9 8 49 44 72.5 65.5t64.5 59.5 60.5 58.5 50 53 45 54 33.5 50.5 27 52.5 14 51 6 54.5q0 102-71 172t-175 70zM542 140l-10-9-19-17-1 1-1-1-19 17-10 9q-74 66-111.5 100.5t-86.5 83-79 85.5q-92 110-92 209 0 71 57 127 53 52 127 55 92 4 162-58 14-13 27.5-26.5t19.5-20.5l6-7q21 25 53 54 70 62 162 58 74-3 127-55 57-56 57-127 0-98-92-209-30-37-79-85.5t-86.5-83-111.5-100.5z" />
<glyph unicode="&#xe67c;" glyph-name="shijian1" d="M512 876q-104 0-199-40.5t-163.5-109-109-163.5-40.5-199 40.5-199 109-163.5 163.5-109 199-40.5 199 40.5 163.5 109 109 163.5 40.5 199-40.5 199-109 163.5-163.5 109-199 40.5zM512-101q-95 0-181 36.5t-148.5 99-99 148.5-36.5 181 36.5 181 99 148.5 148.5 99 181 36.5 181-36.5 148.5-99 99-148.5 36.5-181-36.5-181-99-148.5-148.5-99-181-36.5zM768 364h-233v303q0 9-6.5 16t-16.5 7-16.5-7-6.5-16v-326q0-10 6.5-17t16.5-7h256q10 0 16.5 7t6.5 16.5-6.5 16.5-16.5 7z" />
<glyph unicode="&#xe697;" glyph-name="chongzhi1" d="M273 293v-58h210v-191h58v191h210v58h-210v114h210v58h-169l123 123-41 41-152-152-152 152-41-41 123-123h-169v-58h210v-114h-210zM512 812q185 0 316.5-131.5t131.5-316.5-131.5-316.5-316.5-131.5-316.5 131.5-131.5 316.5 131.5 316.5 316.5 131.5zM512 876q-139 0-257-68.5t-186.5-186.5-68.5-257 68.5-257 186.5-186.5 257-68.5 257 68.5 186.5 186.5 68.5 257-68.5 257-186.5 186.5-257 68.5v0z" />
<glyph unicode="&#xe698;" glyph-name="qq" d="M506 818q37 4 77.5-4.5t81-31 72.5-57 53-86.5 23-115l5-5t11.5-14 12.5-24 7-34-4-45q2-2 6-7.5t15-22 20.5-33.5 19.5-42 15-49 4-53-10-55q-7-34-31-16-20 15-46 67-9-25-31.5-65.5t-32.5-49.5q2 0 5.5-0.5t13-3 17-7.5 14-15.5 8.5-24.5q9-12 11.5-24.5t0.5-19.5-6-7q-5-14-32-30t-67-27.5-95-1.5-106 46h-45q-5-4-13-9.5t-34.5-18-55-19-70.5-4-83 18.5q-22 9-35 21t-16.5 22.5-2.5 21 3.5 16.5 5.5 8q-5 16 10.5 32.5t47.5 25.5q-5 5-13 14t-25.5 37.5-25.5 57.5l-16-24t-16-20.5-19-15-20-4.5-14 22.5-2 53 12.5 68 30.5 71.5 50 60q-3 5-6.5 13t-4 27 10.5 30q1 2-0.5 9.5t5 20.5 21.5 22l2.5 15.5t8 41.5 16 57 31.5 62.5 50 58.5 75.5 45 104.5 20z" />
<glyph unicode="&#xe6be;" glyph-name="xiazai" d="M479 115l33-36 33 36 352 388q6 7 5.5 16t-7 15-15.5 5.5-15-6.5l-331-364v769q0 9-6.5 15.5t-15.5 6.5-15.5-6.5-6.5-15.5v-769l-331 364q-6 6-15 6.5t-15.5-5.5-7-15 5.5-16zM1001 275q-9 0-15.5-6.5t-6.5-15.5v-229q0-18-14-31t-33-13h-840q-19 0-33 13t-14 31v229q0 9-6.5 15.5t-15.5 6.5-15.5-6.5-6.5-15.5v-229q0-36 26.5-62t64.5-26h840q38 0 64.5 26t26.5 62v229q0 9-6.5 15.5t-15.5 6.5z" />
<glyph unicode="&#xe6c7;" glyph-name="lishiguiji" d="M480 768q-13 0-22.5-9.5t-9.5-22.5v-320q0-13 9.5-22.5t22.5-9.5h256q13 0 22.5 9.5t9.5 22.5-9.5 22.5-22.5 9.5h-224v288q0 13-9.5 22.5t-22.5 9.5zM984 647q-39 92-110 163t-163 110q-95 40-199 40-161 0-293-92-62-43-109-103-26-33-46-69v104q0 13-9.5 22.5t-22.5 9.5-22.5-9.5-9.5-22.5v-192q0-13 9.5-22.5t22.5-9.5h160q13 0 22.5 9.5t9.5 22.5-9.5 22.5-22.5 9.5h-85q55 116 165.5 186t239.5 70q91 0 174-35.5t143-95.5 95.5-143 35.5-174-35.5-174-95.5-143-143-95.5-174-35.5q-111 0-208 51t-159.5 140.5-76.5 198.5q-2 14-12.5 22t-23.5 6.5-21-12-7-24.5q12-91 55.5-173t112.5-144q71-62 158.5-95.5t181.5-33.5q104 0 199 40 92 39 163 110t110 163q40 95 40 199 0 105-40 199z" />
<glyph unicode="&#xe6dc;" glyph-name="ruanjian" d="M871 628v-166q0-40-28.5-68.5t-68.5-28.5h-166q-40 0-68.5 28.5t-28.5 68.5v166q0 40 28.5 68.5t68.5 28.5h166q40 0 68.5-28.5t28.5-68.5zM583 78q0-20 14-34.5t35-14.5h166q20 0 34.5 14.5t14.5 34.5v166q0 21-14.5 35t-34.5 14h-166q-21 0-35-14t-14-35v-166zM895 244v-166q0-40-28.5-68.5t-68.5-28.5h-166q-40 0-68.5 28.5t-28.5 68.5v166q0 40 28.5 68.5t68.5 28.5h166q40 0 68.5-28.5t28.5-68.5zM511 268v-166q0-40-28.5-68.5t-68.5-28.5h-166q-40 0-68.5 28.5t-28.5 68.5v166q0 40 28.5 68.5t68.5 28.5h166q40 0 68.5-28.5t28.5-68.5zM175 486q0-20 14.5-34.5t34.5-14.5h166q20 0 34.5 14.5t14.5 34.5v166q0 20-14.5 34.5t-34.5 14.5h-166q-20 0-34.5-14.5t-14.5-34.5v-166zM487 652v-166q0-40-28.5-68.5t-68.5-28.5h-166q-40 0-68.5 28.5t-28.5 68.5v166q0 40 28.5 68.5t68.5 28.5h166q40 0 68.5-28.5t28.5-68.5z" />
<glyph unicode="&#xe70d;" glyph-name="news" d="M959 714q0 4-1 9-1 10-5 14-3 5-10.5 7t-13.5 2h-828q-23 2-30-9-4-4-5-14-1-5-1-9v-525q-2-24 6-31 6-5 13-7t11-1l4 1h826q15-4 28 7 3 3 4.5 11t1.5 14v531zM887 708l-346-359q-11-12-29-12t-29 12l-346 359h750zM101 693l232-241-232-241v482zM586 188h-457l229 238 99-103q23-24 55-24v0 0q32 0 55 24l99 103 229-238h-309zM923 211l-232 241 232 241v-482z" />
<glyph unicode="&#xe900;" glyph-name="android" d="M430.080 646.624c0-11.311 9.169-20.48 20.48-20.48s20.48 9.169 20.48 20.48c0 11.311-9.169 20.48-20.48 20.48s-20.48-9.169-20.48-20.48zM552.96 646.624c0-11.311 9.169-20.48 20.48-20.48s20.48 9.169 20.48 20.48c0 11.311-9.169 20.48-20.48 20.48s-20.48-9.169-20.48-20.48zM774.144 585.184c-8.192 0-12.288 0-20.48-4.096v4.096c-8.192 61.44-49.152 114.688-110.592 147.456l28.672 40.96c4.096 4.096 4.096 8.192 4.096 12.288 0 12.288-8.192 20.48-20.48 20.48-8.192 0-12.288-4.096-16.384-8.192v0l-32.768-45.056c-28.672 8.192-61.44 16.384-94.208 16.384s-65.536-4.096-94.208-16.384l-28.672 45.056c-4.096 4.096-12.288 8.192-16.384 8.192-12.288 0-20.48-8.192-20.48-20.48 0-4.096 0-8.192 4.096-12.288v0l28.672-40.96c-61.44-32.768-106.496-86.016-110.592-147.456v0-4.096c-8.192 4.096-16.384 4.096-24.576 4.096-32.768 0-61.44-28.672-61.44-61.44v-282.624c0-32.768 28.672-61.44 61.44-61.44 8.192 0 12.288 0 20.48 4.096v-65.536c0-20.48 16.384-40.96 40.96-40.96h40.96v-102.4c0-32.768 28.672-61.44 61.44-61.44s61.44 28.672 61.44 61.44v102.4h81.92v-102.4c0-32.768 28.672-61.44 61.44-61.44s61.44 28.672 61.44 61.44v102.4h40.96c20.48 0 40.96 16.384 40.96 40.96v65.536c8.192-4.096 12.288-4.096 20.48-4.096 32.768 0 61.44 28.672 61.44 61.44v282.624c-12.288 32.768-36.864 61.44-69.632 61.44zM270.336 245.216c0-12.288-8.192-20.48-20.48-20.48s-20.48 8.192-20.48 20.48v278.528c0 12.288 8.192 20.48 20.48 20.48s20.48-8.192 20.48-20.48v-278.528zM512 724.448c102.4 0 188.416-61.44 200.704-139.264h-401.408c12.288 77.824 98.304 139.264 200.704 139.264zM430.080-16.928c0-12.288-8.192-20.48-20.48-20.48s-20.48 8.192-20.48 20.48v102.4h40.96v-102.4zM630.784-16.928c0-12.288-8.192-20.48-20.48-20.48s-20.48 8.192-20.48 20.48v102.4h40.96v-102.4zM712.704 122.336h-401.408v421.888h401.408v-421.888zM794.624 245.216c0-12.288-8.192-20.48-20.48-20.48s-20.48 8.192-20.48 20.48v278.528c0 12.288 8.192 20.48 20.48 20.48s20.48-8.192 20.48-20.48v-278.528z" />
<glyph unicode="&#xe901;" glyph-name="android-cute" d="M880.396 209.725h-731.887c0 113.918 54.625 215.312 139.62 280.761l-134.891 195.369 0.996 0.948c-2.221 1.117-4.317 2.558-6.13 4.472-8.499 8.964-8.098 23.098 0.898 31.576 8.993 8.469 23.172 8.078 31.676-0.887 1.799-1.916 3.126-4.081 4.134-6.353l0.994 0.933 138.883-201.146c55.334 32.84 120.276 51.757 189.759 51.757 68.284 0 132.158-18.321 186.858-50.118l119.83 194.737 1.015-0.913c1.008 2.205 2.348 4.316 4.174 6.177 8.586 8.706 22.923 9.099 32.008 0.866 9.086-8.241 9.491-21.981 0.892-30.701-1.826-1.874-4.025-3.161-6.277-4.256l1.095-1.010-116.352-189.087c86.766-65.357 142.704-167.833 142.704-283.124v0zM514.45 513.538c-141.468 0-292.757-112.017-292.757-250.195h585.514c-0.001 138.178-151.284 250.195-292.758 250.195v0zM645.437 338.331c-17.036 0-30.844 13.81-30.844 30.843 0 17.036 13.808 30.844 30.844 30.844s30.844-13.81 30.844-30.844c0-17.034-13.81-30.843-30.844-30.843v0zM378.124 338.331c-17.042 0-30.843 13.81-30.843 30.843 0 17.036 13.8 30.844 30.843 30.844 17.036 0 30.844-13.81 30.844-30.844s-13.808-30.843-30.844-30.843v0zM172.495 122.424c17.036 0 30.843-13.81 30.843-30.844 0-4.234 10.094-32.961 43.016-32.961h527.346c38.264 0 46.526 32.149 46.526 22.679 0 17.036 13.802 30.843 30.844 30.843 17.036 0 30.843-13.807 30.843-30.843 1.326-0.833 4.73-82.249-78.344-82.249h-587.092c-80.030 0-74 91.727-74.826 92.532-0.001 17.034 13.808 30.843 30.844 30.843v0z" />
<glyph unicode="&#xe902;" glyph-name="android-market" d="M512 876c-281.6 0-512-230.4-512-512s230.4-512 512-512c281.6 0 512 230.4 512 512s-230.4 512-512 512zM512-84c-246.409 0-448 201.591-448 448s201.591 448 448 448c246.391 0 448-201.591 448-448s-201.591-448-448-448zM806.417 590.423c-38.588 0-69.973-31.386-69.973-69.956 0-12.988 3.516-25.446 10.189-36.386l-117.129-139.588c-18.739 4.335-39.117 0.563-55.023-10.172l-110.080 77.073c0.341 2.833 0.512 5.683 0.512 8.533 0 38.571-31.386 69.956-69.956 69.956s-69.956-31.386-69.956-69.956c0-12.134 3.089-23.859 8.994-34.321l-93.867-111.872c-7.236 2.492-14.797 3.738-22.545 3.738-38.571 0-69.956-31.386-69.956-69.973 0-38.571 31.386-69.956 69.956-69.956s69.956 31.386 69.956 69.956c0 10.103-2.202 20.105-6.4 29.235l96.785 115.337c19.985-5.018 41.933-0.7 58.522 11.503l108.203-75.759c-0.631-3.789-0.939-7.629-0.939-11.486 0-38.571 31.386-69.956 69.956-69.956s69.956 31.386 69.956 69.956c0 12.561-3.294 24.644-9.574 35.328l117.76 140.356c4.796-1.024 9.677-1.536 14.592-1.536 38.588 0 69.973 31.386 69.973 69.956s-31.386 69.99-69.956 69.99z" />
<glyph unicode="&#xe903;" glyph-name="apple" d="M853.4 506.6c-52.6 77.1-134.7 87.7-163.9 88.9-69.8 7.1-136.3-41.1-171.6-41.1s-90 40.1-147.9 39.1c-76.1-1.2-146.2-44.3-185.5-112.5-79.1-137.2-20.2-340.5 56.8-451.7 37.7-54.5 82.6-115.7 141.5-113.5 56.7 2.3 78.3 36.8 146.8 36.8 68.7 0 87.9-36.8 148-35.6 61.1 1.1 99.8 55.5 137.2 110.2 43.3 63.2 61 124.3 62.1 127.5-1.4 0.6-119.1 45.7-120.3 181.3-1.1 113.4 92.6 167.9 96.8 170.6zM690.4 812.3c-45.1-1.8-99.6-30-132-67.9-29-33.6-51.4-87.2-44.6-138.7 50.3-3.9 98.7 25.6 130 63.5 31.3 37.8 52.4 90.5 46.6 143.1z" />
<glyph unicode="&#xe904;" glyph-name="app-package" d="M914.286-148h-804.571c-53.638 0-97.524 43.886-97.524 97.524l73.143 585.143c0 53.638 43.886 97.524 97.524 97.524h73.143c7.314 136.533 117.029 243.81 256 243.81s248.686-107.276 256-243.81h73.143c53.638 0 97.524-43.886 97.524-97.524l73.143-585.143c0-53.638-43.886-97.524-97.524-97.524zM512 827.238c-109.714 0-199.924-85.333-207.238-195.048h414.476c-7.314 109.714-97.524 195.048-207.238 195.048zM889.905 534.667c0 26.819-21.943 48.762-48.762 48.762h-658.286c-26.819 0-48.762-21.943-48.762-48.762l-12.19-90.21c39.010-46.324 158.476-182.857 307.2-219.429 9.752 36.571 41.448 63.39 82.895 63.39 36.571 0 68.267-24.381 80.457-58.514 143.848 43.886 268.19 170.667 307.2 214.552l-9.752 90.21zM475.429 205.524c0-19.505 17.067-36.571 36.571-36.571s36.571 17.067 36.571 36.571c0 19.505-17.067 36.571-36.571 36.571s-36.571-17.067-36.571-36.571zM909.41 381.067c-53.638-53.638-175.543-163.352-314.514-199.924-9.752-36.571-43.886-60.952-80.457-60.952s-68.267 21.943-80.457 56.076c-170.667 31.695-292.571 175.543-316.952 207.238l-56.076-433.981c0-26.819 21.943-48.762 48.762-48.762h804.571c26.819 0 48.762 21.943 48.762 48.762l-53.638 431.543z" />
<glyph unicode="&#xe905;" glyph-name="article" d="M397.706 44.010l-246.87 246.874-30.468-187.23 90.107-90.108zM921.173 567.388l-246.865 246.866-486.265-486.17 246.87-246.866zM117.046 83.343l-14.219-87.335 87.336 14.213zM102.827-40.093h685.402v-46.161h-685.402v46.161z" />
<glyph unicode="&#xe906;" glyph-name="bulb" d="M615.123 15.11h-183.142c-37.057 0-67.206 30.149-67.206 67.207v142.25c-37.808 24.631-69.614 57.858-92.545 96.821-26.248 44.603-40.122 95.674-40.122 147.693 0 77.895 30.334 151.127 85.413 206.206s128.311 85.413 206.206 85.413c77.894 0 151.127-30.334 206.206-85.413 55.080-55.079 85.414-128.311 85.414-206.206 0-52.097-13.914-103.235-40.234-147.886-22.997-39.009-54.883-72.247-92.784-96.86v-142.016c-0.001-37.059-30.15-67.208-67.208-67.208zM523.728 709.534c-64.228 0-124.611-25.012-170.027-70.427s-70.427-105.8-70.427-170.027c0-42.9 11.429-84.998 33.053-121.742 21.010-35.702 51.051-65.565 86.875-86.363l12.738-7.396v-171.263c0-8.845 7.196-16.041 16.040-16.041h183.143c8.845 0 16.041 7.196 16.041 16.041v171.081l12.772 7.389c35.911 20.775 66.029 50.648 87.1 86.391 21.684 36.785 33.147 78.938 33.147 121.902 0 64.228-25.012 124.611-70.427 170.027s-105.8 70.427-170.027 70.427zM612.407-68.179h-177.358c-14.129 0-25.583 11.454-25.583 25.583s11.454 25.583 25.583 25.583h177.358c14.13 0 25.583-11.454 25.583-25.583s-11.453-25.583-25.583-25.583zM652.313 142.691h-248.301c-14.129 0-25.583 11.454-25.583 25.583s11.454 25.583 25.583 25.583h248.301c14.129 0 25.583-11.454 25.583-25.583s-11.454-25.583-25.583-25.583z" />
<glyph unicode="&#xe907;" glyph-name="category" horiz-adv-x="1028" d="M498.176 379.872h-123.392c-43.008 0-78.336 35.328-78.336 78.336v45.056c0 43.008 35.328 78.336 78.336 78.336h45.056c43.008 0 78.336-35.328 78.336-78.336v-123.392zM374.784 551.392c-26.112 0-47.616-21.504-47.616-47.616v-45.056c0-26.112 21.504-47.616 47.616-47.616h93.184v93.184c0 26.112-21.504 47.616-47.616 47.616h-45.568zM653.312 379.872h-123.392v123.392c0 43.008 35.328 78.336 78.336 78.336h45.056c43.008 0 78.336-34.816 78.336-78.336 0 0 0 0 0 0v-45.056c0-43.008-34.816-78.336-78.336-78.336v0zM560.128 410.592h93.184c26.624 0 48.128 21.504 48.128 47.616v45.056c0 26.624-21.504 47.616-48.128 47.616h-45.056c-26.112 0-47.616-21.504-47.616-47.616l-0.512-92.672zM653.312 148.448h-45.056c-43.008 0-78.336 35.328-78.336 78.336v123.392h123.392c43.008 0 78.336-34.816 78.336-78.336v0-45.056c0-43.008-34.816-78.336-78.336-78.336v0zM560.128 319.968v-92.672c0-26.112 21.504-47.616 47.616-47.616h45.056c26.624 0 48.128 20.992 48.128 47.616 0 0 0 0 0 0v45.056c0 26.112-21.504 47.616-47.616 47.616h-93.184zM419.84 148.448h-45.056c-43.008 0-78.336 35.328-78.336 78.336v45.056c0 43.008 35.328 78.336 78.336 78.336h123.392v-123.392c0-43.008-34.816-78.336-78.336-78.336zM374.784 319.968c-26.112 0-47.616-21.504-47.616-47.616v-45.056c0-26.112 21.504-47.616 47.616-47.616h45.056c26.112 0 47.616 21.504 47.616 47.616v92.672h-92.672zM510.464-16.416c-101.376 0-197.12 39.424-268.8 111.616-71.68 71.68-111.104 167.424-111.104 268.8s39.424 197.12 111.616 268.8c71.68 71.68 167.424 111.616 268.8 111.616s197.12-39.424 268.8-111.616c71.68-71.68 111.616-167.424 111.616-268.8s-39.424-197.12-111.616-268.8c-72.704-72.192-167.936-111.616-269.312-111.616v0zM510.464 717.28c-194.56 0-353.28-158.208-353.28-353.28 0-194.56 158.208-353.28 353.28-353.28 194.56 0 353.28 158.208 353.28 353.28-0.512 194.56-158.72 353.28-353.28 353.28v0z" />
<glyph unicode="&#xe908;" glyph-name="comments" d="M876.032 252h-28.032v56h14.016c23.168 0 41.984 18.816 41.984 41.984v364.032c0 23.168-18.816 41.984-41.984 41.984h-560c-23.168 0-41.984-18.816-41.984-41.984v-14.016h-56v28.032c0 46.4 37.568 83.968 83.968 83.968h588.032c46.336 0 83.968-37.568 83.968-83.968v-392c0-46.4-37.632-84.032-83.968-84.032zM819.968 588v-392c0-46.4-37.632-83.968-83.968-83.968h-252.032l-279.936-196.032v195.968h-56.064c-46.4 0-83.968 37.632-83.968 84.032v392c0 46.4 37.568 83.968 83.968 83.968h588.032c46.4 0 83.968-37.568 83.968-83.968zM161.984 616.032c-23.168 0-41.984-18.816-41.984-41.984v-364.032c0-23.232 18.816-41.984 41.984-41.984h97.984v-140.032l195.968 140.032h265.984c23.168 0 41.984 18.752 41.984 41.984v363.968c0 23.168-18.816 41.984-41.984 41.984h-559.936z" />
<glyph unicode="&#xe909;" glyph-name="comments-single" d="M979.236 208.698l-0.929-5.597-0.936-2.799-0.929-1.865-0.936-1.865-0.93-0.928-0.935-1.865-0.93-1.865-0.935-2.799-0.928-1.865-0.937-1.865-0.93-1.86-0.936-0.938-1.865-1.865-0.927-0.933-0.93-1.86-0.935-0.932-0.93-2.799-3.731-1.865v-1.865h-1.865l-0.936-1.865-0.928-1.868-1.865-0.926-3.731-1.865-0.931-0.939-0.934-0.926-0.931-1.867-0.934-0.932-2.794-0.933-2.804-0.927-2.793-0.938-1.865-0.927-1.867-0.938-0.935-1.867-1.857-0.927-2.804-0.937-8.391-0.928-337.616-0.938-2.793-0.927-0.938-0.937-0.927-0.928-0.936-0.928-0.929-0.937-0.936-0.934-1.868-0.931v-1.865h-1.867v-0.928c-2.342-8.798-11.933-6.552-12.12-14.928-5.796-1.349-6.323-2.226-9.488-6.359-3.304-4.31-7.122-1.6-7.297-9.496l-5.163-0.671-4.167-2.12-0.433-4.801-8.894-4.529c-0.625-5.717-3.533-2.96-6.343-5.781-3.197-3.204 1.355-6.164-6.708-6.342v-2.803h-1.867l-0.070-5.42-2.733-1.105h-4.66l-3.731-6.526c-5.697-0.131-7.975-3.9-10.417-7.302-2.666-3.712-7.625-3.894-8.235-9.49-9.783-2.273-5.988-4.352-9.188-7.59-2.871-2.902-6.494 0.465-8.529-8.26-7.79-0.172-14.811-10.351-17.721-15.856-8.483-0.182-5.658-3.163-11.575-7.082-4.256-2.819-1.987-1.897-4.34-4.984-1.325-1.74-3.693-2.495-5.537-3.788-4.653-3.284-14.887-16.319-20.514-16.787v-2.799c-4.934-1.783-1.712-3.816-9.331-5.593l-12.938-15.119 0.816-0.74c-4.005-0.328-8.894-2.548-9.328-6.526h-2.795c-2.848 0-7.463 1.756-7.463 4.669v3.722c0 2.829 1.828 4.357 4.79 4.639l2.635 15.906 8.43 10.238c0 19.414 3.633 11.303 5.596 18.648h1.865v0.934l0.96 16.739 5.826 2.815 2.147 16.162 5.873 4.399 1.050 8.377v5.597c3.609 1.308 6.527 6.598 6.527 12.124h1.867v8.401c0 5.728 8.391 3.017 8.703 17.539l7.212 12.67-0.945 0.485 1.812 1.016h0.935v11.186h2.797c0.403 3.681 3.732 5.551 3.732 8.402v3.731c0 4.93-9.542 1.856-14.92 1.856h-318.039c-10.388 0-12.223 1.531-15.855 8.401-13.981 0-6.244 7.145-19.587 10.257-0.16 6.953-7.036 8.59-9.328 14.917l-4.783-0.032-3.601 15.001-5.476 0.907-1.065 10.242v534.388c0 5.49 0.266 9.815 5.43 10.309l3.973 14.773 6.452 3.831c2.125 9.108 7.546 5.406 9.326 13.050h5.597l1.865 0.937 0.929 0.93 1.868 0.935 0.936 0.931 0.929 0.937 0.937 0.928 0.929 0.937 0.935 0.929 2.795 0.937 3.731 0.929 5.599 1.864 1.864 0.93 0.93 0.937 1.865 0.929 0.936 0.937 5.599 0.928h816.987l5.597-0.928 0.931-0.937 0.934-0.929 2.794-0.937 1.865-0.93 1.865-0.935 7.464-1.858 0.926-0.937 1.868-0.929 0.934-0.937 0.931-0.928 0.937-0.937 0.928-0.931 1.865-0.935 1.865-0.93 1.865-0.937 0.928-0.927 0.937-0.938 0.927-1.864 0.939-0.929 0.927-0.937 0.938-0.928 1.865-0.93 0.927-0.937 0.935-0.929 0.931-1.865 0.934-1.865 0.931-0.937 0.926-1.865 0.939-0.93 1.865-0.935 0.928-1.868 0.937-1.863 0.928-2.795 0.934-1.867 0.931-2.795 0.934-0.938 2.796-5.596 0.936-1.864 0.929-6.527 0.936-12.124v-506.421l-0.936-12.123h0.004zM475.612-1.149h1.865l0.933 0.933 1.865 0.932 0.93 0.939 0.938 0.927v0.932l1.863 5.6c4.61 0.38 2.642 1.678 7.456 2.797 0.947 4.050 10.51 13.526 13.99 15.85h3.731v2.8h1.865c0.334 4.029 0.527 3.638 4.668 3.731v2.799h2.796c1.011 4.357 2.207 5.478 7.461 5.597 1.257 5.399 3.085 3.107 4.663 7.459h3.731c1.874 8.031 3.883 5.685 9.518 9.35l-1.127 7.438h8.391c2.762 7.626 9.493 5.728 10.265 14.917 11.66 0 6.762 8.501 16.647 9.36l1.074 5.566c6.981 1.631 10.439 3.038 12.123 10.257 6.328 0 11.172 1.865 20.515 1.865 7.461 0 14.924 0 22.381 0 15.237 0 30.466 0 45.707 0 30.459 0 60.926 0 91.395 0 30.156 0 60.312 0 90.469 0 15.23 0 30.46 0.032 45.697 0 12.961-0.021 9.953 1.073 18.299 4.081 2.421 0.875 17.325 2.445 21.453 2.064l4.081 6.917c10.226 0 15.855-2.162 15.855 8.391 2.916 0.246 3.311 0.934 6.526 0.934l2.741 0.031 2.856 6.5h4.66c2.345 8.776 9.596 6.937 10.265 14.916 8.645 2.018 6.129 9.345 13.053 11.196v3.731c0 6.374 5.65 10.888 7.798 19.014l2.323-2.185 1.073 1.818v576.374c-6.161 2.543-2.21-3.1-5.186 6.009-0.752 2.307-4.104 6.282-5.412 7.227l-3.39 11.012-3.404 0.084-2.193 9.245-5.514 0.014-1.014 6.511c-7.797 4.128-5.931 9.144-13.959 9.337l-0.966 4.653h-2.796v3.731c-9.014 0.205-8.177 7.464-19.585 7.464h-6.529c-0.142 6.456-2.114 4.498-6.545 7.172l-23.304 1.219c-3.276 2.191-6.663 2.801-12.123 2.801l-790.862-0.106-35.966-4.393-11.705-6.222-11.103-2.338c-0.435-5.223-5.653-6.389-9.779-7.705l-3.275-6.283-5.125 0.169-2.336-8.56h-2.795c-2.521 0-2.574-0.449-4.668-0.937-0.756-9.123-4.73-5.337-7.22-10.501-0.966-2.003-5.826-11.788-5.832-11.879h-2.804v-9.331c0-3.813-0.943-5.283-4.24-5.794l-2.599-4.455-1.552-55.033-0.319-464.459 2.223-56.77 3.192-1.293 2.436-4.853 0.86 0.439v-5.593c0-9.027 7.464-8.881 7.464-13.061l0.258-3.48 11.416-10.815 4.181-7.157h7.462v-2.793c0-1.387 2.011-4.124 2.795-5.6 7.326 0 9.579-1.271 10.25-7.531l12.023-0.912 2.932-5.369 25.161-2.97c2.064-1.387 6.443-4.67 9.32-4.67h251.816c4.882 0 15.854 2.904 15.854-2.793v-8.402c0-5.339-1.492-6.662-2.009-10.874l-5.834-2.162-0.51-17.575-3.411 0.319-4.090-2.345v-8.392c0-13.426-8.392-11.111-8.392-17.72v-11.196c-7.531-1.751-9.329-4.543-9.329-13.99v-3.727c-5.269-1.412-7.462-13.456-7.462-20.519-6.107-1.626-7.462-10.706-7.462-18.654v-29.844c0-2.517 0.448-2.564 0.937-4.66l0.716 0.662 3.327-3.894 6.215-3.305c1.958-8.413 4.843-7.452 14.864-7.546l5.651-2.711v-2.793h10.267c3.776 0 5.52 1.887 6.524 4.624l14.736 1.146 5.78 7.28c5.743 0.131 16.335 10.415 17.233 15.158l7.95 4.43v3.732c7.669 0.641 6.268 8.213 15.139 10.972 6.96 2.162 1.302 3.252 6.929 6.135 5.65 2.891 4.393 1.568 5.91 8.078 6.579 0 7.896 1.454 8.391 7.463h2.803c2.519 0 2.564 0.439 4.462 0.965l1.136 6.494c16.866 3.931 0.349 9.324 14.917 9.331l-3.731-3.738h0.006zM174.057 464.959c0-40.11 32.515-72.625 72.625-72.625s72.625 32.515 72.625 72.625c0 40.11-32.515 72.625-72.625 72.625s-72.625-32.515-72.625-72.625zM664.449 464.959c0-40.11 32.515-72.625 72.625-72.625s72.625 32.515 72.625 72.625c0 40.11-32.515 72.625-72.625 72.625s-72.625-32.515-72.625-72.625zM415.172 464.959c0-40.11 32.515-72.625 72.625-72.625s72.625 32.515 72.625 72.625c0 40.11-32.515 72.625-72.625 72.625s-72.625-32.515-72.625-72.625z" />
<glyph unicode="&#xe90a;" glyph-name="computer" d="M886.239 755.636h-746.567c-40.571 0-73.438-34.501-73.438-77.040v-529.748c0-42.586 32.867-77.074 73.438-77.074h359.683v-118.238h-137.907v-37.862h313.677v37.862h-137.908v118.239h349.021c40.547 0 73.414 34.488 73.414 77.074v529.748c0.001 42.538-32.866 77.039-73.413 77.039zM139.672 717.773h746.566c19.603 0 35.552-17.574 35.552-39.177v-426.347h-817.693v426.348c0 21.602 15.959 39.176 35.575 39.176zM886.239 109.637h-349.022v0.393h-37.862v-0.393h-359.683c-19.616 0-35.575 17.59-35.575 39.212v65.539h817.694v-65.539c0-21.622-15.948-39.212-35.552-39.212z" />
<glyph unicode="&#xe90b;" glyph-name="crown" d="M836.267 368.267h-59.733l59.733 200.533h59.733l-59.733-200.533zM512 509.067l-157.867-140.8v-4.267h-59.733l-59.733 200.533h59.733l42.667-132.267 132.267 119.467-81.067 76.8 123.733 136.533 136.533-123.733-89.6-93.867 123.733-110.933 42.667 132.267h59.733l-59.733-200.533h-59.733zM571.733 637.067l-55.467 51.2-51.2-55.467 55.467-51.2 51.2 55.467zM187.733 368.267l-59.733 200.533h59.733l59.733-200.533h-59.733zM802.133 257.333h-567.467l-29.867 59.733h631.467l-34.133-59.733z" />
<glyph unicode="&#xe90c;" glyph-name="download" d="M906.758 419.779c-31.129 0-56.317-25.217-56.317-56.317v-337.907h-675.81v337.907c0 31.101-25.187 56.317-56.317 56.317-31.127 0-56.318-25.215-56.318-56.317v-394.222c0-31.101 25.188-56.317 56.318-56.317h788.445c31.132 0 56.317 25.214 56.317 56.317v394.222c0 31.101-25.184 56.317-56.317 56.317zM568.855 419.779v344.785c0 27.303-25.188 49.438-56.318 49.438s-56.317-22.135-56.317-49.438v-344.785h-168.954l225.269-225.268 225.273 225.268h-168.95z" />
<glyph unicode="&#xe90d;" glyph-name="edit" d="M841.020-82.945h-641.587c-32.895 0-67.143 14.091-93.059 39.369-25.922 25.233-41.298 57.712-41.298 89.752v649.474c0 33.055 16.020 63.67 44.17 85.059 24.696 18.784 57.055 29.683 90.198 29.683h344.941c17.309 0 31.331-13.779 31.331-30.615 0-16.856-14.021-30.641-31.331-30.641h-344.952c-33.986 0-71.46-21.006-71.46-53.486v-649.473c0-33.438 37.109-67.839 71.46-67.839h641.588c33.335 0 53.020 34.734 53.020 67.839v331.897c0 16.862 14.149 30.513 31.451 30.513s31.451-13.651 31.451-30.513v-331.897c0-32.275-10.261-62.916-29.537-86.981-21.976-27.43-52.425-42.141-86.386-42.141v0zM500.146 325.443c-10.158 0-20.317 3.78-28.061 11.321-15.496 15.1-15.496 39.573 0 54.673l419.101 408.184c15.496 15.1 40.62 15.1 56.116 0s15.496-51.545 0-66.619l-407.13-396.237c-7.745-7.541-29.882-11.321-40.027-11.321v0z" />
<glyph unicode="&#xe90e;" glyph-name="game" d="M404.511 591.446h-56.373v-56.374h-56.373v-56.373h56.373v-56.373h56.373v56.373h56.373v56.373h-56.373zM876.634 427.006c-46.734 0-84.56-37.882-84.56-84.56 0-46.676 37.825-84.558 84.56-84.558 46.732 0 84.56 37.882 84.56 84.558 0 46.678-37.828 84.56-84.56 84.56zM594.656 337.88l259.767 275.777c19.505 20.068 0.45 51.976-2.874 53.272l0.449 0.451c-66.969 77.343-201.757 149.557-334.741 149.557-249.056 0-450.982-201.929-450.982-450.984s201.927-450.982 450.982-450.982c119.961 0 228.648 47.129 309.431 123.514 8.568 9.639 27.905 26.213 14.262 47.127l-246.294 252.267zM517.257-28.656c-217.939 0-394.611 176.674-394.611 394.609 0 217.938 176.674 394.611 394.611 394.611 111.617 0 211.848-46.96 283.555-121.484l-283.555-303.060 259.709-266.419c-69.394-60.939-160.043-98.258-259.709-98.258z" />
<glyph unicode="&#xe90f;" glyph-name="h5" d="M628.248 598.465c8.467 0 14.553 1.704 18.229 5.078 3.677 3.39 5.515 7.623 5.515 12.671 0 5.363-1.838 9.732-5.515 13.122s-9.762 5.077-18.229 5.077h-248.131v-235.507c0-6.192 1.567-10.997 4.67-14.372 3.104-3.405 7.201-5.076 12.263-5.076 3.691 0 10.034 2.259 19.073 6.764 36.97 19.435 73.973 29.182 110.944 29.182 36.127 0 65.897-12.188 89.339-36.564 23.412-24.406 35.134-56.617 35.134-96.632 0-47.064-13.53-84.775-40.648-113.097-27.089-28.323-61.408-42.499-102.869-42.499-50.259 0-96.691 19.885-139.342 59.628-5.364 5.062-10.441 7.609-15.232 7.609-4.52 0-8.467-1.776-11.871-5.288-3.375-3.525-5.062-7.832-5.062-12.911 0-6.205 5.363-13.951 16.090-23.246 18.049-15.486 38.086-28.459 60.112-38.9 31.066-14.93 63.397-22.403 96.993-22.403 50.802 0 93.167 17.462 127.004 52.43 33.897 34.937 50.831 80.615 50.831 136.991 0 51.027-15.034 92.172-45.106 123.449-30.040 31.292-67.372 46.93-111.998 46.93-17.205 0-35.42-2.154-54.628-6.553-19.194-4.371-39.23-10.907-60.112-19.645v173.765h212.546zM116.227 809.852l74.485-805.049 324.877-88.646 330.48 90.424 72.377 804.371-802.22-1.1zM817.233 30.685l-301.645-82.53-296.116 80.799-69.409 750.089 734.633 1.010-67.462-749.368z" />
<glyph unicode="&#xe910;" glyph-name="hand" d="M771.275 781.415c6.79 0 13.581 0 20.371 0 44.675-7.103 71.418-31.697 84.397-61.115 38.506-87.269-49.952-175.037-136.785-136.784-44.318 19.526-78.8 85.312-49.475 142.604 12.851 25.104 41.71 48.755 81.49 55.295zM715.979 676.646c1.43-77.062 112.682-81.574 129.507-17.46 13.801 52.579-30.691 88.686-72.757 82.943-38.185-5.215-57.363-32.411-56.751-65.482zM509.348 630.082c61.706 6.928 116.886-40.494 113.501-107.679-1.243-24.639-13.193-50.273-27.649-65.481-61.857-65.083-178.981-20.902-178.981 71.303 0.001 58.125 39.073 95.791 93.13 101.858zM454.054 531.132c-1.345-35.495 24.655-66.844 62.571-68.391 94.225-3.843 87.634 143.36-7.276 129.507-33.106-4.831-54.030-27.679-55.297-61.116zM714.526 480.203c71.822 8.063 126.521-52.566 112.045-123.686-21.085-103.594-173.2-105.889-200.809-5.821-15.575 56.447 19.646 103.97 53.841 120.777 8.91 4.381 22.769 7.365 34.924 8.732zM662.138 397.26c-25.776-99.222 129.072-113.93 129.507-18.916 0.205 44.686-34.9 71.229-77.121 64.025-31.226-5.324-46.491-22.412-52.387-45.108zM630.125 190.631c64.25 14.78 145.642 37.883 218.272 56.751 22.713 5.901 53.394 20.755 77.121 14.55 39.015-10.198 45.185-75.377 23.281-109.135-12.33-19.008-56.781-44.21-78.576-58.204-29.695-19.068-56.834-33.319-85.852-49.476-62.556-34.823-118.062-69.253-187.712-84.396-48.829-10.617-104.242 6.895-148.425 18.916-80.164 21.812-154.483 51.35-253.194 52.384-15.357 0.161-56.195 0-75.668 0-25.225 0-57.098-3.459-58.204 17.462-1.226 23.167 26.208 20.371 55.297 20.371 28.46 0 57.069 0.582 75.668 0 96.1-3.015 169.809-31.225 248.829-52.384 41.23-11.043 94.15-27.328 138.238-21.827 37.677 4.7 75.327 24.645 106.225 39.287 66.826 31.669 124.362 64.577 186.256 104.769 26.587 17.266 69.151 45.727 42.199 85.852-82.956-21.049-177.065-46.572-266.289-69.847-29.335-7.65-62.076-21.827-90.22-21.827-17.204 0-31.31 8.991-48.020 14.551-31.801 10.581-62.453 18.006-96.039 29.103-19.436 6.42-32.433 18.419-23.283 33.468 10.132 16.661 69.63-8.551 84.397-13.094 13.957-4.295 30.067-10.735 42.199-14.55 14.377-4.523 29.931-12.58 43.655-11.643 18.459 1.264 38.189 18.972 33.47 45.108-4.33 23.983-39.666 37.71-55.297 46.564-46.732 26.473-84.21 47.648-129.506 74.212-43.023 25.229-93.711 65.378-165.887 45.109-39.479-11.087-95.027-44.226-129.506-65.481-11.084-6.832-22.732-25.558-37.833-23.281-7.209 1.086-13.87 10.364-14.551 16.006-2.055 17.017 22.303 25.684 37.833 36.375 15.269 10.512 32.303 20.815 45.108 27.648 42.131 22.48 72.389 47.056 116.412 50.931 18.993 1.673 54.654 2.109 74.212-2.912 24.452-6.276 48.229-25.152 72.757-39.289 48.121-27.737 91.743-52.886 141.147-81.487 42.779-24.764 91.5-40.739 81.486-110.591z" />
<glyph unicode="&#xe911;" glyph-name="homepage" d="M877.487 325.189l-346.861 324.709-346.861-323.695c-6.786-6.318-7.176-17.004-0.858-23.79s17.004-7.176 23.79-0.78l323.929 302.246 323.929-303.182c3.276-3.042 7.41-4.524 11.466-4.524 4.446 0 8.97 1.794 12.246 5.304 6.396 6.786 6.006 17.394-0.78 23.712zM771.643 318.559c-9.282 0-16.848-7.566-16.848-16.848v-257.864h-134.47v179.397h-179.397v-179.397h-134.548v257.864c0 9.282-7.488 16.848-16.848 16.848-9.282 0-16.848-7.566-16.848-16.848v-291.482h201.783v179.397h112.084v-179.397h201.783v291.482c0.156 9.282-7.41 16.848-16.692 16.848zM653.942 559.575h100.931v-89.699c0-9.282 7.566-16.848 16.848-16.848s16.848 7.488 16.848 16.848v123.316h-134.626c-9.282 0-16.848-7.488-16.848-16.848 0-9.204 7.566-16.77 16.848-16.77z" />
<glyph unicode="&#xe912;" glyph-name="information" horiz-adv-x="1130" d="M671.693-84.308c-22.98-3.635-46.55-5.52-70.555-5.52-247.774 0-448.644 200.865-448.644 448.634 0 247.797 200.869 448.666 448.644 448.666 247.784 0 448.659-200.869 448.659-448.666 0-23.23-1.755-46.055-5.155-68.33h33.41c3.17 22.315 4.825 45.145 4.825 68.33 0 266.059-215.669 481.734-481.739 481.734-266.032 0-481.709-215.674-481.709-481.734 0-266.034 215.674-481.714 481.709-481.714 23.975 0 47.535 1.755 70.555 5.135v33.465zM512.254 359.341c0-52.39 42.47-94.855 94.855-94.855 52.39 0 94.86 42.465 94.86 94.855 0 52.387-42.47 94.857-94.86 94.857-52.385 0.003-94.855-42.467-94.855-94.857zM729.868 154.002c0-36.98 29.97-66.96 66.95-66.96s66.96 29.98 66.96 66.96v0c0 36.98-29.98 66.96-66.96 66.96s-66.95-29.98-66.95-66.96zM743.258-83.698c0-24.66 19.98-44.64 44.64-44.64 24.65 0 44.64 19.98 44.64 44.64 0 24.65-19.99 44.64-44.64 44.64-24.66 0-44.64-19.99-44.64-44.64zM671.273-60.818c-21.73-3.435-44.015-5.22-66.705-5.22-234.247 0-424.149 189.9-424.149 424.144 0 234.264 189.902 424.166 424.149 424.166 234.254 0 424.164-189.902 424.164-424.166 0-21.96-1.665-43.545-4.88-64.6h31.585c3 21.095 4.565 42.675 4.565 64.6 0 251.529-203.89 455.429-455.434 455.429-251.507 0-455.409-203.899-455.409-455.429 0-251.514 203.899-455.414 455.409-455.414 22.66 0 44.94 1.66 66.705 4.86v31.63z" />
<glyph unicode="&#xe913;" glyph-name="likes" d="M470.341-65.411l-355.858 379.984c-30.157 24.126-75.394 81.425-90.472 117.614-12.063 24.126-21.11 66.346-21.11 99.52 0 144.756 117.614 262.37 259.354 262.37 81.425 0 159.835-39.205 208.087-105.551 48.252 66.346 126.661 105.551 208.087 105.551 141.74 0 259.354-117.614 259.354-262.37 0-27.142-3.016-66.346-18.094-99.52s-60.315-90.472-90.472-114.598l-358.874-383zM262.254 733.762c-108.567 0-199.039-90.472-199.039-202.055 0-27.142 6.031-57.299 12.063-72.378 12.063-27.142 51.268-78.409 75.394-93.488l6.031-3.016 313.638-334.748 319.669 340.78c18.094 15.079 57.299 66.346 72.378 93.488 12.063 15.079 15.079 36.189 15.079 69.362 0 111.583-90.472 202.055-199.039 202.055-75.394 0-147.772-45.236-180.945-114.598l-27.142-57.299-27.142 57.299c-33.173 69.362-102.535 114.598-180.945 114.598z" />
<glyph unicode="&#xe914;" glyph-name="likes-big" d="M511.645 611.058c-132.557 302.323-509.297 232.556-511.623-120.929-2.326-193.021 179.068-267.439 299.997-344.183 116.278-74.418 199.998-179.068 211.626-220.928 11.628 41.86 104.65 148.836 211.626 223.254 118.604 81.395 299.997 148.836 299.997 344.183-2.326 353.485-386.043 409.298-511.623 118.604v0z" />
<glyph unicode="&#xe915;" glyph-name="mac" d="M917.333 129.333h-294.507c12.693-70.421 54.891-118.869 93.888-149.333h51.285c11.797 0 21.333-9.536 21.333-21.333s-9.536-21.333-21.333-21.333h-512c-11.797 0-21.333 9.536-21.333 21.333s9.536 21.333 21.333 21.333h51.264c38.976 30.464 81.216 78.912 93.888 149.333h-294.485c-47.125 0-85.333 38.208-85.333 85.333v490.667c0 47.125 38.208 85.333 85.333 85.333h810.667c47.125 0 85.333-38.208 85.333-85.333v-490.667c0-47.125-38.208-85.333-85.333-85.333zM371.136-20h281.707c-34.027 35.883-64.32 84.821-73.792 149.333h-134.123c-9.472-64.512-39.765-113.451-73.792-149.333zM960 705.333c0 23.552-19.115 42.667-42.667 42.667h-810.667c-23.552 0-42.667-19.115-42.667-42.667v-405.333h896v405.333zM960 257.333h-896v-42.667c0-23.552 19.115-42.667 42.667-42.667h810.667c23.552 0 42.667 19.115 42.667 42.667v42.667zM512 193.333c-11.797 0-21.333 9.536-21.333 21.333s9.536 21.333 21.333 21.333 21.333-9.536 21.333-21.333-9.536-21.333-21.333-21.333z" />
<glyph unicode="&#xe916;" glyph-name="marked" d="M826.698 596.153l-4.342 4.342c-11.989 11.989-31.427 11.989-43.415 0l-337.031-337.031-182.957 182.957c-9.535 9.535-26.984 7.546-38.973-4.442s-13.977-29.437-4.442-38.973l212.937-212.937c9.535-9.535 26.984-7.546 38.973 4.442 0.293 0.293 0.573 0.59 0.853 0.889 1.874 1.189 3.651 2.593 5.286 4.227l353.11 353.11c11.989 11.988 11.989 31.426 0 43.415z" />
<glyph unicode="&#xe917;" glyph-name="money" d="M680.96 538.080l-141.824-155.648v-23.040h118.784c11.264-0.512 19.968-9.728 19.968-20.992s-9.216-20.48-19.968-20.992v0h-0.512c0 0 0 0-0.512 0 0 0 0 0-0.512 0h-117.76v-43.52h118.784c11.264-0.512 19.968-9.728 19.968-20.992s-9.216-20.48-19.968-20.992v0h-0.512c0 0 0 0-0.512 0 0 0 0 0-0.512 0h-117.76v-86.528c0-14.848-12.288-27.136-27.136-27.136s-27.136 12.288-27.136 27.136c0 0 0-12.8 0-12.8v99.328h-116.736c0 0 0 0-0.512 0-11.264 0-20.992 9.216-20.992 20.992 0 11.264 9.216 20.992 20.992 20.992 0 0 0 0 0.512 0v0h116.736v43.52h-116.736c0 0-0.512 0-0.512 0-11.264 0-20.992 9.216-20.992 20.992 0 11.264 9.216 20.992 20.992 20.992 0 0 0.512 0 0.512 0v0h116.736v23.040l-139.776 155.648c0 0-14.848 42.496 31.232 27.648 16.384-5.632 30.208-27.648 30.208-27.648l107.52-116.224 107.008 117.248c0 0 16.384 22.528 35.328 26.112 28.16 7.68 25.6-27.136 25.6-27.136zM512-16.416c-101.376 0-197.12 39.424-268.8 111.616-71.68 71.68-111.104 167.424-111.104 268.8s39.424 197.12 111.616 268.8c71.68 71.68 167.424 111.616 268.8 111.616s197.12-39.424 268.8-111.616c71.68-71.68 111.616-167.424 111.616-268.8s-39.424-197.12-111.616-268.8c-72.192-72.192-167.936-111.616-269.312-111.616v0zM512 717.28c-194.56 0-353.28-158.208-353.28-353.28 0-194.56 158.208-353.28 353.28-353.28s353.28 158.208 353.28 353.28c-0.512 194.56-158.72 353.28-353.28 353.28v0z" />
<glyph unicode="&#xe918;" glyph-name="need-network" d="M736.233 757.808h-448.923l-224.462-388.779 224.462-388.778h448.923l224.461 388.778-224.46 388.779zM714.634 17.66h-405.726l-202.862 351.369 202.863 351.368h405.726l202.862-351.369-202.863-351.367zM680.118 354.352c-14.009 0-26.809-5.145-36.64-13.634l-136.372 77.927c2.958 8.704 4.666 18.73 4.666 29.154 0 0.028 0 0.055 0 0.083 0 0.009 0 0.025 0 0.040 0 8.611-1.162 16.951-3.339 24.871l95.333 46.932c10.092-9.734 23.812-15.732 38.941-15.732 30.992 0 56.115 25.124 56.115 56.115s-25.124 56.115-56.115 56.115-56.115-25.124-56.115-56.115c0-2.347 0.16-4.654 0.44-6.925l-95.186-47.593c-17.123 21.806-43.725 35.814-73.6 35.814-51.653 0-93.526-41.873-93.526-93.526 0-39.84 24.913-73.855 60.007-87.334l-13.646-81.875c-26.34-4.618-46.362-27.59-46.362-55.253 0-30.992 25.124-56.115 56.115-56.115s56.115 25.125 56.115 56.115c0 21.143-11.697 39.545-28.967 49.113l13.649 81.892c26.642 0.949 50.445 13.038 66.891 31.755l136.386-77.934c-0.573-3.005-0.903-6.463-0.908-9.998 0-30.996 25.124-56.119 56.115-56.119s56.115 25.124 56.115 56.115c0.002 30.99-25.121 56.114-56.113 56.114z" />
<glyph unicode="&#xe919;" glyph-name="no-ads" d="M959.028 43.966l-46.53 46.53v552.396c0 26.797-21.748 48.545-48.545 48.545h-552.396l-48.545 48.545h625.214c40.22 0 72.818-32.622 72.818-72.818v-606.815c0-5.631-0.777-11.092-2.015-16.384zM596.954 433.274v185.297c0 13.423 10.874 24.297 24.273 24.297 5.121 0 9.612-1.966 13.52-4.66 11.335 2.645 22.889 4.66 35.025 4.66 93.838 0 169.908-76.070 169.908-169.908 0-76.58-50.996-140.562-120.61-161.777l-41.239 41.215c63.205 4.223 113.305 56.313 113.305 120.562 0 67.017-54.322 121.363-121.363 121.363-8.35 0-16.433-0.971-24.273-2.573v-206.996l-48.545 48.521zM930.144-52.057c-9.49-9.49-24.831-9.49-34.321 0l-801.578 797.792c-9.49 9.49-9.49 24.831 0 34.321s24.831 9.49 34.321 0l801.554-797.767c9.49-9.49 9.49-24.855 0.025-34.346zM439.789 107.949l-30.778 75.003c-2.038-0.558-4.029-1.262-6.262-1.262h-145.635c-0.461 0-0.801 0.243-1.262 0.267l-30.996-74.055c-5.17-12.379-19.394-18.205-31.773-13.010-12.355 5.17-18.18 19.37-13.010 31.748l122.309 292.267 105.707-105.707 76.58-186.827c5.073-12.403-0.849-26.603-13.253-31.676-12.379-5.098-26.555 0.826-31.627 13.253zM333.475 367.349l-57.38-137.116h113.596l-56.215 137.116zM111.502 84.623c0-26.821 21.748-48.545 48.545-48.545h528.123l48.545-48.545h-600.941c-40.22 0-72.818 32.598-72.818 72.818v600.941l48.545-48.57v-528.099z" />
<glyph unicode="&#xe91a;" glyph-name="QQ" d="M993.735 227.353l-2.56 17.522-3.243 17.18-2.56 8.818-2.446 9.33-3.3 8.932-3.3 9.956-3.868 9.387-4.21 9.614-7.509 15.701-6.656 13.881-6.599 12.345-5.803 11.548-6.599 10.581-4.892 9.614-10.24 14.393-12.971 19.228-3.015 4.722-1.024 1.991v1.65l2.219 6.428 2.958 5.803 2.617 11.378 1.422 5.86v6.087l0.796 4.892v4.892l-0.796 5.689-0.853 4.551-1.877 9.387-2.446 9.102-2.276 8.306-3.527 8.135-3.982 6.77-3.129 6.315-3.527 6.030-5.461 8.988-2.048 3.129-0.569 2.731-2.56 17.294-1.593 11.378-1.877 14.108-2.901 14.62-4.494 16.668-2.617 9.387-1.934 7.908-2.901 9.273-3.186 9.785-3.129 9.102-4.096 9.728-8.249 18.887-4.949 8.932-5.916 10.297-5.575 8.818-5.518 9.899-7.908 9.216-6.656 8.932-8.078 9.273-8.249 8.306-8.306 8.078-9.842 8.363-5.177 3.072-4.892 4.153-10.581 7.339-12.345 7.964-12.572 7.168-12.914 6.485-14.108 5.916-13.255 5.632-13.881 4.892-15.132 4.039-13.824 3.584-14.677 3.129-13.995 3.356-14.962 1.593-14.734 1.764-14.677 1.82h-43.975l-14.905-0.796-13.938-1.934-13.995-1.877-14.108-2.276-13.995-2.617-13.255-3.186-13.312-4.153-12.288-4.153-12.288-4.039-12.402-5.916-11.719-4.779-10.354-5.746-10.752-6.485-9.956-6.77-9.842-7.68-8.078-7.054-12.686-11.662-10.468-10.809-10.069-10.524-9.273-10.638-8.647-10.98-7.623-10.638-7.396-10.695-3.413-4.722-3.186-5.803-6.884-10.069-5.518-10.126-4.836-9.444-4.267-10.126-4.153-9.216-3.47-8.647-3.186-9.216-3.186-8.533-4.324-15.417-3.072-14.848-1.764-12.402-1.764-10.695v-20.708l-3.015-3.186-2.731-4.324-2.162-3.868-1.877-4.21-2.332-9.045-2.503-8.42-0.91-7.452-0.569-5.461v-5.916l-5.916-8.363-4.153-8.363-3.186-8.078-2.389-7.225-1.764-6.884-1.764-6.542v-16.555l0.967-3.982 1.479-7.339 1.82-5.689-3.3-2.446-9.216-6.77-12.288-10.98-7.509-6.428-7.339-6.372-5.006-5.006-4.153-4.494-8.988-9.387-8.476-9.33-6.599-8.135-7.964-11.662-7.623-10.468-7.452-11.662-6.372-10.866-5.234-11.492-5.575-10.638-4.039-10.468-4.324-11.036-3.186-10.638-3.129-10.98-2.788-9.5-1.593-10.24-1.707-9.5-1.422-9.216-0.91-18.091v-24.178l0.91-7.339 2.332-12.516 0.796-5.518 1.593-5.575 1.877-5.348 1.764-3.755 2.844-6.94 2.162-1.422 1.308-2.901 1.707-0.74h1.764l7.339 0.74 7.509 1.877 6.372 2.446 6.599 4.153 6.030 3.982 5.461 5.006 5.916 5.291 5.063 5.518 4.779 6.201 4.267 5.575 4.096 4.665 2.56 5.291 4.949 8.818 1.536 3.584 0.853 2.219 0.455 2.389 1.138 2.048 0.853 0.398 1.707 0.853h1.081l0.398-0.853h0.853l0.853-0.398 2.788-12.004 2.958-9.671 4.096-10.069 4.039-9.045 3.413-9.045 5.234-7.964 3.868-8.363 4.324-7.623 5.006-6.599 3.755-6.428 10.126-11.833 8.818-10.468 8.42-8.249 8.42-7.282 7.225-5.803 10.809-9.33 4.324-2.048 1.479-2.048v-0.967l-1.024-0.91h-0.455l-2.162-0.683-8.135-0.626-7.452-0.967-6.315-0.853-6.713-1.422-5.746-1.764-5.746-1.707-5.006-2.617-4.039-2.446-5.006-1.593-3.186-2.56-3.47-2.048-3.641-2.844-4.608-5.632-1.707-2.617-2.162-2.332-2.901-5.916-1.593-4.892-1.934-4.892-0.398-4.267v-8.135l-0.796-4.039v-3.982l-1.024-4.096v-3.527l1.024-3.925 0.796-3.47 2.332-6.77 1.593-3.186 2.048-3.129 2.276-3.186 2.446-2.731 3.3-3.186 2.503-2.56 7.282-5.404 7.396-4.437 8.476-4.039 9.102-3.584 9.614-3.868 10.695-2.503 10.695-3.47 11.548-2.276 11.492-1.764 24.007-3.47 24.178-2.446 24.917-0.398h44.032l10.809 0.398 9.273 1.024 8.875 0.796 8.42 0.626 13.369 2.617 9.671 2.617 9.273 2.276 16.953 6.94 7.68 2.901 7.339 3.584 12.117 6.656 10.923 5.291 8.078 5.063 5.916 5.348 9.216-1.024 7.168-0.74 14.165-0.967h12.231l4.324-0.91 4.38-1.707 6.884-2.446 7.794-2.617 14.734-4.437 14.962-5.348 14.677-4.21 14.734-2.844 15.076-3.755 15.588-2.162 14.791-1.593 14.962-2.048 13.824-1.252 14.848-0.853h41.188l13.255 1.593 12.971 0.512 12.572 2.048 11.548 2.446 11.435 2.503 11.15 2.56 4.551 1.308 5.12 1.536 9.557 3.755 8.59 3.868 8.021 4.039 7.509 4.267 6.656 4.836 2.617 2.617 3.129 3.584 4.039 4.779 4.324 5.916 1.65 3.015 0.683 2.446 1.82 3.186 0.796 3.413v3.356l0.853 3.3-0.853 4.892-0.796 4.21-1.82 4.836-1.479 4.096-2.731 4.836-3.3 4.494-3.186 3.868-4.267 3.413-8.875 7.452-9.899 7.225-10.012 5.746-10.468 5.916-24.064 11.548-5.803 3.413-1.536 1.593-1.024 1.024 11.548 11.378 5.063 5.632 4.153 5.177 8.078 11.378 7.623 11.662 6.428 10.411 6.144 9.899 8.135 19.968 6.372 16.555 4.267 11.605 2.389 3.925 1.479 3.186 2.503 1.877h1.024l0.74-0.455 6.201-11.947 5.518-11.548 3.868-6.485 4.039-5.575 3.982-6.94 5.12-6.77 4.267-4.779 2.617-2.617 2.56-2.276 2.389-1.707 2.219-1.593 4.949-2.446 2.56-0.853h4.039l2.617 0.853 3.243 1.536 3.527 1.593 3.015 2.617 2.788 3.015 3.129 3.755 2.446 2.901 2.788 4.608 2.105 3.755 2.446 5.348 1.365 4.437 3.584 10.98 2.276 12.060 1.707 13.426 1.138 7.794v21.902z" />
<glyph unicode="&#xe91b;" glyph-name="safety-scan" d="M941.892 364.439h-828.7c-18.867 0-34.133 15.283-34.133 34.133s15.267 34.133 34.133 34.133h828.7c18.867 0 34.133-15.283 34.133-34.133s-15.268-34.133-34.133-34.133zM851.358-35.845h-165.4c-18.867 0-34.133 15.283-34.133 34.133s15.267 34.133 34.133 34.133h165.4c13.5 0 24.466 10.983 24.466 24.484v165.416c0 18.85 15.267 34.133 34.133 34.133s34.133-15.283 34.133-34.133v-165.416c0-51.15-41.599-92.75-92.733-92.75zM909.958 504.989c-18.867 0-34.133 15.283-34.133 34.133v165.416c0 13.483-10.967 24.466-24.466 24.466h-165.4c-18.867 0-34.133 15.283-34.133 34.133s15.267 34.133 34.133 34.133h165.4c51.134 0 92.733-41.6 92.733-92.733v-165.416c0-18.85-15.267-34.133-34.133-34.133zM145.092 504.989c-18.867 0-34.133 15.283-34.133 34.133v165.416c0 51.134 41.6 92.733 92.767 92.733h165.4c18.867 0 34.133-15.283 34.133-34.133s-15.267-34.133-34.133-34.133h-165.4c-13.5 0-24.5-10.983-24.5-24.466v-165.416c0-18.85-15.267-34.133-34.133-34.133zM369.125-35.845h-165.4c-51.166 0-92.767 41.6-92.767 92.75v165.4c0 18.85 15.267 34.133 34.133 34.133s34.133-15.283 34.133-34.133v-165.4c0-13.5 11-24.484 24.5-24.484h165.4c18.867 0 34.133-15.283 34.133-34.133s-15.267-34.133-34.133-34.133z" />
<glyph unicode="&#xe91c;" glyph-name="search-icon" d="M716.6 662.199c-138.851 138.915-364.020 138.915-502.935 0s-138.915-364.084 0-502.935c64.35-64.369 153.259-104.184 251.468-104.184s187.117 39.815 251.467 104.183c64.371 64.351 104.185 153.26 104.185 251.469s-39.815 187.117-104.183 251.467zM136.241 81.84c-84.207 84.186-136.292 200.499-136.292 328.977 0 256.914 208.27 465.183 465.183 465.183s465.183-208.27 465.183-465.183c0-128.478-52.085-244.791-136.291-328.976-84.178-84.157-200.456-136.207-328.892-136.207s-244.714 52.050-328.892 136.207zM1005.18-129.316c-11.49-11.508-27.373-18.627-44.919-18.627s-33.429 7.119-44.918 18.626l-89.774 89.838c-11.487 11.487-18.593 27.357-18.593 44.887 0 35.059 28.421 63.479 63.479 63.479 17.529 0 33.399-7.105 44.887-18.593l89.837-89.773c11.539-11.476 18.68-27.363 18.68-44.919s-7.141-33.443-18.677-44.916z" />
<glyph unicode="&#xe91d;" glyph-name="software" d="M884.658 789.367c-12.817 5.681-24.299-9.842-33.176-16.623-10.445-7.978-21.494-15.158-33.071-21.385-23.361-12.564-48.757-21.266-74.91-25.678-51.093-8.619-104.393-0.521-150.615 22.904-11.678 5.918-22.865 12.792-33.454 20.488-8.684 6.311-20.591 21.591-31.911 21.591-11.036 0-23.295-15.328-31.911-21.591-11.399-8.284-23.483-15.587-36.129-21.804-46.477-22.847-99.844-30.338-150.813-21.112-28.108 5.088-55.247 15.182-79.884 29.626-13.362 7.833-25.083 17.213-37.226 26.719-10.012 7.838-30.311 12.307-30.311-7.157v-489.628c0-73.263 55.91-134.99 108.501-179.443 56.535-47.786 122.146-86.83 190.386-115.422 19.412-8.133 41.271-18.030 62.554-19.886 17.203-1.5 35.121 5.689 50.966 11.498 66.973 24.555 131.059 61.464 187.69 104.62 61.518 46.88 132.451 115.123 132.451 198.634v489.627c-0.001 6.064-3.582 11.57-9.136 14.022-5.536 2.454 5.555-2.453 0 0zM863.155 285.716c0-67.728-56.646-123.794-105.721-163.075-52.762-42.232-112.747-76.915-174.872-103.431-15.675-6.69-34.614-16.45-52.001-17.689-13.768-0.981-28.596 5.933-41.141 10.774-60.032 23.166-117.76 55.68-169.71 93.498-56.725 41.293-127.823 103.105-127.823 179.922v457.513c101.163-72.569 238.352-68.659 335.634 11.828 97.273-80.488 234.481-84.437 335.634-11.809v-457.532zM612.177 573.417h-169.313v-108.114h-108.095v-169.313h108.095v-108.095h169.313v108.095h108.095v169.313h-108.095v108.114zM689.633 434.663v-108.036h-108.095v-108.095h-108.035v108.095h-108.095v108.036h108.095v108.114h108.035v-108.114h108.095z" />
<glyph unicode="&#xe91e;" glyph-name="software-service" d="M398.222 762.222v-284.444h-284.444v284.444h284.444zM398.222 819.111h-284.444c-31.289 0-56.889-25.6-56.889-56.889v-284.444c0-31.289 25.6-56.889 56.889-56.889h284.444c31.289 0 56.889 25.6 56.889 56.889v284.444c0 31.289-25.6 56.889-56.889 56.889v0zM398.222 250.222v-284.444h-284.444v284.444h284.444zM398.222 307.111h-284.444c-31.289 0-56.889-25.6-56.889-56.889v-284.444c0-31.289 25.6-56.889 56.889-56.889h284.444c31.289 0 56.889 25.6 56.889 56.889v284.444c0 31.289-25.6 56.889-56.889 56.889v0zM910.222 762.222v-284.444h-284.444v284.444h284.444zM910.222 819.111h-284.444c-31.289 0-56.889-25.6-56.889-56.889v-284.444c0-31.289 25.6-56.889 56.889-56.889h284.444c31.289 0 56.889 25.6 56.889 56.889v284.444c0 31.289-25.6 56.889-56.889 56.889v0zM910.222 250.222v-284.444h-284.444v284.444h284.444zM910.222 307.111h-284.444c-31.289 0-56.889-25.6-56.889-56.889v-284.444c0-31.289 25.6-56.889 56.889-56.889h284.444c31.289 0 56.889 25.6 56.889 56.889v284.444c0 31.289-25.6 56.889-56.889 56.889v0z" />
<glyph unicode="&#xe91f;" glyph-name="star" d="M510.607 746.687l91.663-272.867 274.949-7.422-218.297-176.043 78.259-277.465-226.574 164.077-226.553-164.077 78.261 277.465-218.298 176.043 274.948 7.422 91.642 272.867z" />
<glyph unicode="&#xe920;" glyph-name="tags" d="M935.6 329.8l-374.4 382.7c-5.6 5.7-13.2 8.9-21.2 8.9h-437.9c-17.7 0-32-14.3-32-32v-269.1c0-7.9 3.1-15.4 8.7-21l373.9-373.9c25-25 65.5-25 90.5 0l43.5 43.5 43.5-43.5c25-25 65.5-25 90.5 0l214.4 214.4c24.8 24.8 25 65 0.5 90zM586.7 159.3l-66.1-66.1c-12.5-12.5-32.8-12.5-45.3 0l-341.2 341.3v222.9h214.1l342.2-349.7c12.3-12.5 12.2-32.6-0.2-45l-103.5-103.4zM867.5 262.7l-169.5-169.4c-12.5-12.5-32.8-12.5-45.3 0l-20.7 20.8 125.7 125.7c24.8 24.8 25 64.9 0.5 90l-320.5 327.6h87.9l342.2-349.7c12.2-12.5 12.1-32.6-0.3-45zM280.7 415.9c-52.6 0-95.3 42.8-95.3 95.3s42.8 95.3 95.3 95.3 95.3-42.8 95.3-95.3-42.7-95.3-95.3-95.3zM280.7 542.5c-17.3 0-31.3-14-31.3-31.3s14-31.3 31.3-31.3c17.3 0 31.3 14 31.3 31.3s-14 31.3-31.3 31.3z" />
<glyph unicode="&#xe921;" glyph-name="thumb-up" d="M728.87-79.94h-296.91c-12.090 0-21.93 9.72-21.93 21.66s9.84 21.63 21.93 21.63h296.91c63.090 0 93.57 34.23 107.97 62.94 0.72 1.74 0.96 3.33 1.32 5.22 2.73 13.71 7.35 36.72 37.68 73.050 21.87 26.22 18.12 54.060 13.71 86.28-1.38 10.23-2.76 20.4-3.33 30.48-2.52 42.99 8.76 61.56 24.42 87.3 2.85 4.62 5.91 9.66 9.18 15.3 14.37 24.78 13.56 55.53-2.16 82.23-19.2 32.64-55.32 52.17-96.57 52.17-73.080 0-157.32-2.49-158.13-2.49-7.29-0.27-13.020 2.55-17.31 7.5-4.35 4.95-6.12 11.58-4.95 18 0.3 1.5 27.81 150.45 27.81 215.91 0 67.14-50.94 74.37-72.78 74.37-34.53 0-62.61-36.75-62.61-81.96 0-56.19 0-75.15-29.7-116.16-40.98-56.58-118.35-151.53-176.64-151.53h-36.93v-480.21c0-11.97-9.84-21.66-21.93-21.66h-125.52c-45.99 0-83.43 36.93-83.43 82.32v380.52c0 45.36 37.41 82.29 83.43 82.29h184.41c26.1 0 84.090 54.84 140.91 133.38 21.54 29.73 21.54 36.72 21.54 91.020 0 70.26 46.74 125.25 106.44 125.25 53.82 0 116.67-30.84 116.67-117.66 0-52.62-15.75-150.54-23.85-197.49 31.11 0.75 84.24 1.83 132.57 1.83 57.060 0 107.4-27.54 134.52-73.71 23.64-40.2 24.51-87.12 2.31-125.43-3.45-5.94-6.66-11.22-9.63-16.11-14.55-23.88-20.010-32.82-18.27-62.49 0.54-8.97 1.83-18.090 3.030-27.21 4.77-35.070 10.71-78.72-23.34-119.52-23.28-27.93-26.43-43.59-28.53-53.94-0.99-4.95-2.040-10.080-4.62-15.24-28.62-56.91-80.91-87.84-147.69-87.84v0zM142.4 421.93c-21.78 0-39.54-17.49-39.54-39v-380.58c0-21.54 17.76-39.030 39.54-39.030h103.59v458.61h-103.59z" />
<glyph unicode="&#xe922;" glyph-name="time" d="M516.267-86.799c-245.35 0-444.211 198.861-444.211 444.177s198.861 444.211 444.211 444.211c245.35 0 444.211-198.861 444.211-444.211s-198.861-444.177-444.211-444.177zM516.267 718.338c-199.339 0-360.926-161.587-360.926-360.926 0-199.305 161.587-360.926 360.926-360.926 199.27 0 360.96 161.621 360.96 360.926-0.034 199.305-161.69 360.926-360.96 360.926zM696.661 315.77h-180.395c-23.006 0-41.643 18.637-41.643 41.643v249.856c0 23.006 18.637 41.643 41.643 41.643s41.609-18.637 41.609-41.643v-208.247h138.786c23.074 0 41.677-18.637 41.677-41.643s-18.603-41.609-41.677-41.609z" />
<glyph unicode="&#xe923;" glyph-name="user-center" d="M515.584-11.808c-101.376 0-197.12 39.424-268.8 111.616-71.68 71.68-111.104 167.424-111.104 268.8s39.424 197.12 111.616 268.8c71.68 71.68 167.424 111.616 268.8 111.616s197.12-39.424 268.8-111.616c71.68-71.68 111.616-167.424 111.616-268.8s-39.424-197.12-111.616-268.8c-72.192-72.192-167.936-111.616-269.312-111.616v0zM515.584 721.888c-194.56 0-353.28-158.208-353.28-353.28 0-194.56 158.208-353.28 353.28-353.28 194.56 0 353.28 158.208 353.28 353.28-0.512 194.56-158.72 353.28-353.28 353.28v0zM597.504 350.688c39.936 26.624 66.56 72.192 66.56 123.904 0 81.92-66.56 148.48-148.48 148.48s-148.48-66.56-148.48-148.48c0-51.712 26.624-97.28 66.56-123.904-76.288-30.72-131.072-102.4-133.632-186.88 0 0-3.584-15.872 26.624-13.312 12.8 1.024 16.384 13.312 16.384 13.312 14.336 92.16 86.016 162.304 173.056 162.304 86.528 0 158.72-70.144 173.056-162.304 0 0 8.192-12.8 16.384-13.312 24.576-3.072 26.624 13.312 26.624 13.312-3.584 84.48-57.856 156.16-134.656 186.88v0zM515.584 368.608c-59.904 0-108.032 48.128-108.032 108.032s48.128 108.032 108.032 108.032c59.904 0 108.032-48.128 108.032-108.032s-48.64-108.032-108.032-108.032v0z" />
<glyph unicode="&#xe924;" glyph-name="VIP" d="M982.016 544.032c-21.824 24.96-157.056 184.64-208.704 240.32-15.936 17.216-27.776 29.12-52.16 30.080-24.384 0.896-417.408 0-417.408 0-13.44 0-30.72-3.136-52.928-29.12-51.776-60.672-168.576-194.432-207.936-241.28-26.688-30.912-30.080-74.88 0-120.128 64-74.56 240.32-276.8 417.408-480.64 25.152-28.992 40.96-30.080 52.16-30.080 10.944 0 26.496 0.512 52.16 30.080 175.36 201.92 343.744 394.944 417.344 480.64 24.896 30.016 29.568 84.544 0.064 120.128zM929.856 453.92c-58.816-68.544-235.52-264.896-375.488-426.624-20.48-23.616-32.896-24-41.6-24-8.896 0-21.504 0.896-41.6 24-141.312 163.2-324.992 366.976-376.064 426.624-14.272 14.592-13.952 39.104 0 60.096 31.36 37.504 141.056 161.984 182.528 210.24 30.784 35.904 57.792 30.080 68.544 30.080 0 0 313.536 0 333.056 0 40 0 49.472-8.832 67.968-30.080 39.936-45.952 165.312-190.272 182.656-210.24 15.36-21.952 10.752-42.688 0-60.096zM789.504 514.016h-98.816c-5.44 0-13.312-0.832-19.84-11.008l-158.080-222.848c-0.128-0.128-0.192-0.512-0.32-0.768 0 0.256 0 0.64 0 0.832l-158.336 222.72c-6.528 10.24-14.336 11.008-19.776 11.008h-98.944c-5.44 0-9.92-4.928-9.92-11.008v-54.848c0-6.080 4.416-11.008 9.92-11.008 0.128 0 1.536 0 9.536 0 14.272 0 13.184-2.688 20.096-11.008 49.472-67.264 247.36-332.544 247.36-332.544 0 0.32 0 0.832 0 1.152 0.128-0.384 0.192-0.832 0.32-1.152 0 0 197.632 265.344 247.168 332.544 6.848 8.256 5.888 11.008 20.032 11.008 7.936 0 9.344 0 9.472 0 5.44 0 9.856 4.992 9.856 11.008v54.848c0.128 6.144-4.288 11.072-9.728 11.072z" />
<glyph unicode="&#xe925;" glyph-name="vip-circle" d="M515.584-16.416c-101.376 0-197.12 39.424-268.8 111.616-71.68 71.68-111.104 167.424-111.104 268.8s39.424 197.12 111.616 268.8c71.68 71.68 167.424 111.616 268.8 111.616s197.12-39.424 268.8-111.616c71.68-71.68 111.616-167.424 111.616-268.8s-39.424-197.12-111.616-268.8c-72.704-72.192-167.936-111.616-269.312-111.616v0zM515.584 717.28c-194.56 0-353.28-158.208-353.28-353.28 0-194.56 158.208-353.28 353.28-353.28 194.56 0 353.28 158.208 353.28 353.28-0.512 194.56-158.72 353.28-353.28 353.28v0zM687.104 547.296c-18.432 7.68-39.936-1.536-47.104-20.48l-121.856-303.616-121.856 303.616c-7.68 18.432-28.672 27.648-47.104 20.48-18.432-7.68-27.648-28.672-20.48-47.104l153.6-382.976c6.144-14.848 20.48-23.552 35.84-22.528 15.36-1.024 29.696 7.68 35.84 22.528l153.6 382.976c7.168 18.432-1.536 39.424-20.48 47.104z" />
<glyph unicode="&#xe926;" glyph-name="wechat" d="M693.12 528.736c11.776 0 23.36-0.896 35.008-2.176-31.36 146.048-187.456 254.528-365.696 254.528-199.232 0-362.432-135.744-362.432-308.224 0-99.52 54.272-181.248 145.024-244.736l-36.224-108.992 126.72 63.488c45.312-8.896 81.664-18.112 126.912-18.112 11.392 0 22.656 0.512 33.792 1.344-7.040 24.256-11.2 49.6-11.2 76.032 0.064 158.336 136 286.848 308.096 286.848zM498.304 626.976c27.392 0 45.376-17.984 45.376-45.248 0-27.136-17.984-45.312-45.376-45.312-27.072 0-54.336 18.176-54.336 45.312 0 27.328 27.2 45.248 54.336 45.248zM244.672 536.416c-27.2 0-54.592 18.176-54.592 45.312 0 27.264 27.392 45.248 54.592 45.248s45.248-17.92 45.248-45.248c0-27.136-18.048-45.312-45.248-45.312zM1024 246.24c0 144.896-145.024 262.976-307.904 262.976-172.48 0-308.224-118.144-308.224-262.976 0-145.28 135.808-262.976 308.224-262.976 36.096 0 72.512 9.024 108.736 18.112l99.392-54.528-27.264 90.624c72.768 54.656 127.040 127.040 127.040 208.768zM616.128 291.616c-17.984 0-36.224 17.92-36.224 36.224 0 18.048 18.24 36.224 36.224 36.224 27.52 0 45.376-18.176 45.376-36.224 0-18.304-17.856-36.224-45.376-36.224zM815.488 291.616c-17.856 0-36.032 17.92-36.032 36.224 0 18.048 18.112 36.224 36.032 36.224 27.264 0 45.376-18.176 45.376-36.224 0-18.304-18.112-36.224-45.376-36.224z" />
<glyph unicode="&#xe927;" glyph-name="windows" d="M489.779 119.981l-0.691 232.576 308.915-1.408v-277.683l-308.224 46.515zM489.088 608.019l308.915 46.515v-256.87h-308.915v210.355zM225.971 353.248l220.774-0.691v-228.403l-220.774 35.405v193.69zM225.971 397.664v170.803l220.774 35.405v-206.182l-220.774-0.026z" />
<glyph unicode="&#xe928;" glyph-name="homepage-circle" horiz-adv-x="1025" d="M787.456 368.608l-248.832 222.208c-14.336 12.8-38.4 12.8-53.248 0l-108.032-96.256v47.104c0 9.728-8.192 17.92-17.92 17.92h-23.040c-9.728 0-17.92-8.192-17.92-17.92v-99.328l-82.432-73.728c-14.336-12.8-10.752-23.552 9.216-23.552h64.512v-199.68c0-9.728 8.192-17.92 17.92-17.92h97.792c9.728 0 17.92 8.192 17.92 17.92v61.952c0 9.728 8.192 17.92 17.92 17.92h100.864c9.728 0 17.92-8.192 17.92-17.92v-61.952c0-9.728 8.192-17.92 17.92-17.92h98.304c9.728 0 17.92 8.192 17.92 17.92v199.68h64.512c18.944 0 23.040 10.752 8.704 23.552zM708.608 370.656c-6.144 0.512-22.016 1.024-21.504-8.704 0-4.096 0-6.656 0-6.656v-201.216h-80.384v53.248c0 24.576-19.968 44.544-44.544 44.544h-100.864c-24.576 0-44.544-19.968-44.544-44.544v-53.248h-80.384l0.512 194.56c0 0 0 7.168 0 13.312-0.512 11.264-14.336 8.704-22.016 8.704-14.848 1.536-41.984-2.56-34.304 4.608l222.208 192c5.632 6.144 9.728 6.144 17.408 0l222.208-192c7.168-6.656-25.088-3.072-33.792-4.608zM512.512-16.416c-101.376 0-197.12 39.424-268.8 111.616-71.68 71.68-111.104 167.424-111.104 268.8s39.424 197.12 111.616 268.8c71.68 71.68 167.424 111.616 268.8 111.616s197.12-39.424 268.8-111.616c71.68-71.68 111.616-167.424 111.616-268.8s-39.424-197.12-111.616-268.8c-72.192-72.192-167.936-111.616-269.312-111.616v0zM512.512 717.28c-194.56 0-353.28-158.208-353.28-353.28 0-194.56 158.208-353.28 353.28-353.28 194.56 0 353.28 158.208 353.28 353.28-0.512 194.56-158.72 353.28-353.28 353.28v0z" />
<glyph unicode="&#xe929;" glyph-name="game-solid" d="M631.808 592.864h-85.504v67.072c0 10.24 8.192 18.432 18.432 18.432h76.288c20.992 0 37.888 16.896 37.888 38.4 0 20.992-16.896 38.4-37.888 38.4h-76.288c-51.712 0-93.696-42.496-93.696-95.232v-67.072h-84.992c-159.744 0-289.28-128.512-289.28-287.232s129.536-287.232 289.28-287.232h246.272c159.744 0 289.28 128.512 289.28 287.232-1.024 158.72-130.048 287.232-289.792 287.232zM421.376 268.256h-50.176v-50.176c0-20.48-16.896-37.376-37.376-37.376s-37.376 16.896-37.376 37.376v50.176h-50.176c-20.48 0-37.376 16.896-37.376 37.376s16.896 37.376 37.376 37.376h50.176v50.176c0 20.48 16.896 37.376 37.376 37.376s37.376-16.896 37.376-37.376v-50.176h50.176c20.48 0 37.376-16.896 37.376-37.376s-16.896-37.376-37.376-37.376zM658.432 317.92c-20.48 0-37.376 16.896-37.376 37.376s16.896 37.376 37.376 37.376 37.376-16.896 37.376-37.376c0-20.48-16.384-37.376-37.376-37.376zM758.272 218.080c-20.48 0-37.376 16.896-37.376 37.376s16.896 37.376 37.376 37.376c20.48 0 37.376-16.896 37.376-37.376s-16.384-37.376-37.376-37.376z" />
<glyph unicode="&#xe92a;" glyph-name="rank-solid" d="M517.632 573.92c-162.304 0-293.376-133.632-293.376-298.496s131.584-298.496 293.376-298.496c162.304 0 293.888 133.632 293.888 298.496s-131.584 298.496-293.888 298.496v0zM668.672 302.048l-57.856-57.344 13.824-80.896c4.608-27.136-10.752-38.912-35.328-26.112l-71.68 38.4-71.68-38.4c-24.064-12.8-39.936-1.536-35.328 26.112l13.824 80.896-57.856 57.344c-19.456 19.456-13.824 37.888 13.312 41.984l79.872 11.776 35.84 73.728c11.776 24.576 31.232 25.088 43.52 0l35.84-73.728 79.872-11.776c27.136-4.096 33.28-22.528 13.824-41.984zM792.064 745.952h-181.76c-9.728 0-17.408-7.168-19.968-16.384l-55.808-112.128c0 0 119.808-7.168 190.464-76.8l83.968 171.52c2.56 3.584 4.096 7.68 4.096 12.288 0 11.776-9.216 21.504-20.992 21.504v0zM497.664 617.44l-55.808 112.128c-2.56 9.216-10.24 16.384-19.968 16.384h-181.76c-11.776 0-20.992-9.728-20.992-21.504 0-4.608 1.536-8.704 4.096-12.288l83.456-171.52c71.168 69.632 190.976 76.8 190.976 76.8z" />
<glyph unicode="&#xe92b;" glyph-name="rec" d="M801.28 757.216h-588.288c-16.896 0-30.72-13.824-30.72-30.72v-783.36l324.608 222.208 324.608-222.208v783.36c0.512 17.408-13.312 30.72-30.208 30.72zM287.744 653.792h115.2v36.352h37.376v-36.352h133.632v36.352h37.376v-36.352h115.2v-33.28h-115.2v-36.864h-37.376v36.864h-133.632v-36.352h-37.376v36.352h-115.2c0 0 0 33.28 0 33.28zM406.016 225.248h-34.816v179.712c-19.968-17.92-43.52-35.84-70.144-54.272l-23.040 29.184c60.416 39.424 107.008 84.992 139.776 136.192h-123.904v33.28h142.848c6.656 14.336 12.288 27.136 16.896 38.4l35.328-6.144c-1.536-4.096-3.584-9.216-6.144-16.384l-6.656-16.384h247.296v-33.28h-264.192c-14.848-26.624-32.768-51.712-54.272-76.288v-214.016h1.024zM729.6 336.352h-111.616v-68.608c0-27.136-13.312-40.96-40.448-40.96h-59.392l-10.752 35.328c26.112-1.536 44.544-2.56 55.296-2.56 12.288 0 18.944 6.144 18.944 18.432v58.368h-139.776v34.304h139.776v31.232c14.336 8.704 35.328 22.528 63.488 40.96h-166.912v33.28h218.624v-26.624c-26.112-20.48-52.224-39.936-78.848-58.368v-21.504h111.616v-33.28z" />
<glyph unicode="&#xe92c;" glyph-name="soft-tri" d="M107.52 552.928l375.808-160.256v-433.152c-30.72 13.312-61.44 28.672-92.16 41.984-28.672 13.312-59.392 26.624-94.72 41.984l-105.472 46.080c-13.312 6.656-24.064 13.312-35.328 24.064-8.704 8.704-17.408 19.968-24.064 30.72s-13.312 24.064-17.408 37.376c-4.608 13.312-6.656 26.624-6.656 37.376 0 0 0 333.824 0 333.824zM916.48 552.928v-334.336c0-15.36-2.048-30.72-8.704-44.032-6.656-15.36-13.312-28.672-22.016-39.424-8.704-13.312-19.968-24.064-30.72-32.768s-22.016-17.408-32.768-22.016c-30.72-13.312-61.44-26.624-96.768-39.424-32.768-13.312-64-26.624-92.16-39.424-32.768-13.312-66.048-28.672-96.768-39.424v431.104l379.904 159.744zM892.416 618.976l-375.808-156.16-377.856 156.16 375.808 149.504 377.856-149.504z" />
<glyph unicode="&#xe92d;" glyph-name="emoji" d="M512.321 810.899c-246.934 0-447.813-200.879-447.813-447.813 0-246.927 200.879-447.809 447.813-447.809 246.952 0 447.86 200.882 447.86 447.809 0 246.934-200.908 447.813-447.86 447.813v0zM512.321-47.404c-226.357 0-410.494 184.137-410.494 410.49 0 226.357 184.137 410.496 410.494 410.496 226.377 0 410.538-184.139 410.538-410.496 0-226.353-184.156-410.49-410.538-410.49v0zM725.24 260.882c-9.729 3.455-20.377-1.57-23.86-11.271-28.487-79.49-104.395-132.91-188.911-132.91-84.838 0-160.846 53.713-189.162 133.655-3.431 9.729-14.081 14.777-23.832 11.37-9.704-3.433-14.805-14.108-11.369-23.834 33.559-94.822 123.726-158.51 224.34-158.51 100.213 0 190.253 63.343 224.041 157.639 3.507 9.676-1.542 20.372-11.246 23.856v0.004zM339.056 515.079c37.494 0 68.020-36.947 68.020-82.353 0-10.298 8.362-18.66 18.661-18.66 10.301 0 18.658 8.361 18.658 18.66 0 65.981-47.246 119.67-105.339 119.67s-105.315-53.69-105.315-119.67c0-10.298 8.361-18.66 18.658-18.66 10.303 0 18.658 8.361 18.658 18.66-0.023 45.432 30.48 82.353 67.999 82.353v0zM685.629 552.396c-58.064 0-105.338-53.69-105.338-119.67 0-10.298 8.361-18.66 18.658-18.66 10.303 0 18.664 8.361 18.664 18.66 0 45.404 30.527 82.353 68.016 82.353 37.495 0 67.998-36.947 67.998-82.353 0-10.298 8.361-18.66 18.659-18.66 10.302 0 18.663 8.361 18.663 18.66 0.025 66.007-47.221 119.67-105.32 119.67v0z" />
<glyph unicode="&#xe92e;" glyph-name="eye" d="M983.36 391.392c-7.36 10.624-184.512 260.608-471.36 260.608s-464-249.984-471.424-260.608c-11.456-16.448-11.456-38.336 0-54.784 7.424-10.688 184.576-260.608 471.424-260.608s464 249.92 471.36 260.544c11.52 16.512 11.52 38.4 0 54.848zM512 124c-265.152 0-432 240-432 240s166.848 240 432 240c265.088 0 432-240 432-240s-166.912-240-432-240zM512 556c-106.048 0-192-86.016-192-192 0-106.048 85.952-192 192-192 105.984 0 192 85.952 192 192 0 105.984-86.016 192-192 192zM512 220c-79.424 0-144 64.576-144 144 0 79.36 64.576 144 144 144 79.36 0 144-64.64 144-144 0-79.424-64.64-144-144-144z" />
<glyph unicode="&#xe92f;" glyph-name="points" d="M958.367 133.356l-0.065 86.581c0.235 2.082 0.366 4.184 0.366 6.318 0 1.325-0.132 2.619-0.376 3.873l-0.071 85.477c0.306 2.43 0.446 4.79 0.446 7.075 0 78.007-161.354 123.22-328.725 129.877 39.027 79.219 57.022 148.624 37.95 186.663-0.569 4.917-2.896 9.651-6.957 13.13l-72.624 62.207c-1.837 1.578-3.997 2.842-6.361 3.676l-0.14 0.043c-8.382 6.196-21.911 12.185-42.158 10.116-69.122-6.916-190.449-108.22-301.884-252.124-123.639-159.69-216.119-349.489-153.583-403.315 0.933-0.8 1.968-1.619 3.034-2.396l0.143-0.099 64.624-55.165c0.911-1.228 1.906-2.304 3.003-3.266l0.024-0.020c10.295-8.951 22.705-12.772 36.375-12.735 33.118 0 73.579 22.362 109.094 48.034 67.373-30.137 176.27-48.114 291.532-48.114 156.127 0 313.876 32.785 355.924 95.829 6.233 3.483 10.446 10.149 10.446 17.765l-0.009 9.736c0.259 2.204 0.413 4.433 0.413 6.699 0 0.006 0 0.014 0 0.022 0 1.457-0.154 2.878-0.446 4.248l0.024-0.133zM184.316 41.161l-29.724 25.371c71.143 24.501 177.704 118.655 276.39 246.22 31.453 40.522 60.054 81.819 84.993 122.708 5.857 9.562 2.807 22.089-6.793 27.952-9.562 5.82-22.094 2.844-27.952-6.793-24.167-39.549-51.912-79.582-82.425-118.965-115.101-148.789-224.789-231.618-273.649-236.545-5.857-0.634-10.3-0.009-13.261 1.782-0.249 0.191-0.556 0.41-0.868 0.621l-0.072 0.046c-0.103 0.080-0.226 0.15-0.324 0.239-26.852 23.147 21.808 170.102 159.244 347.567 115.299 148.831 224.985 231.665 273.767 236.545 6.713 0.654 11.555-0.203 14.484-2.764 7.733-6.633 13.835-39.507-18.513-116.686-4.353-10.375 0.573-22.297 10.906-26.607 10.455-4.353 22.297 0.531 26.607 10.901 15.588 37.156 24.661 68.676 27.275 94.455l20.115-17.228c1.203-2.153 2.698-3.985 4.46-5.517l0.025-0.021c26.852-23.147-21.808-170.102-159.201-347.778-47.559-61.351-98.094-116.154-146.222-158.505-77.017-68.197-124.261-83.189-139.262-76.998zM815.704 238.421c2.689-8.336 10.371-14.264 19.441-14.281h0.002c1.997 0 4.071 0.245 6.106 0.94 34.096 10.662 58.719 22.451 76.328 34.467l0.029-36.634c-6.37-30.217-97.426-74.443-263.143-84.17-11.231-0.611-19.814-10.294-19.124-21.483 0.654-10.821 9.562-19.161 20.303-19.161 0.404 0 0.771 0 1.222 0.038 102.489 5.999 205.604 27.966 260.788 65.536l0.033-38.092c-8.020-36.197-133.144-85.707-325.674-85.707-98.634 0-191.558 13.473-254.653 36.423 5.362 4.533 9.639 8.254 13.872 12.023l-0.729-0.638c14.338 12.621 28.868 26.292 43.465 40.865 46.2-9.872 99.716-16.237 155.445-18.489h0.855c10.863 0 19.856 8.583 20.303 19.528 0.446 11.235-8.259 20.67-19.49 21.159-43.625 1.744-85.689 6.116-123.572 12.759 10.16 11.003 20.916 23.107 31.448 35.41l1.482 1.774c0.573-0.122 1.151-0.23 1.749-0.306 41.58-5.209 85.194-7.813 129.66-7.813 54.968 0 107.656 3.907 156.517 11.555 11.066 1.749 18.714 12.166 16.965 23.232-1.749 11.104-12.204 18.428-23.232 16.965-77.231-12.124-167.846-14.31-250.869-6.196 3.582 4.513 7.155 9.058 10.704 13.642 40.437 52.298 77.537 107.806 106.969 160.719 188.821-3.953 309.038-55.513 309.038-89.806 0-14.281-23.312-38.242-88.899-58.752-10.741-3.373-16.678-14.763-13.341-25.505z" />
<glyph unicode="&#xe930;" glyph-name="VIP2" d="M831.809 694.661c-5.954 22.421-23.243 32.175-45.872 28.828-25.024-3.717-36.649-19.73-34.548-44.867 0.946-11.341 2.912-21.685-9.572-29.193-41.624-25.036-82.809-50.782-124.163-76.257-17.863 22.445-35.236 45.305-53.682 67.238-14.56 17.285-29.306 32.053-13.496 57.92 9.524 15.622-0.796 31.688-14.464 42.397-14.033 10.976-29.667 12.544-45.488 2.838-15.575-9.537-26.647-26.626-18.899-40.906 18.142-33.519-5.172-50.174-21.738-70.757-14.865-18.487-29.633-37.068-44.462-55.601v0 0c-49.594 16.040-86.479 53.373-130.829 78.143-10.367 5.793-6.001 14.696-5.487 23.225 1.649 26.897-11.692 43.544-37.933 46.479-22.704 2.519-39.257-9.146-43.353-32.128-4.684-26.036 6.482-45.132 33.389-49.336 16.918-2.691 22.299-11.466 26.442-26.086 13.555-48.022 29.323-95.453 42.138-143.694 4.549-17.136 10.411-25.524 29.398-25.083 61.273 1.466 122.592 1.54 183.877 2.15 67.379-0.684 134.8-0.467 202.149-2.542 20.18-0.609 25.755 9.463 30.073 25.138 12.971 46.816 26.207 93.541 39.618 140.241 4.052 14.135 7.63 26.774 26.738 30.782 25.868 5.473 37.042 25.178 30.164 51.071v0zM223.916 145.743l-73.072 204.569h-87.662v-20.462l140.268-350.682h43.827l144.669 347.744v23.4h-90.61l-77.42-204.569zM564.353 265.546h37.981v84.767h-168.021v-84.767h42.375v-201.615h-42.375v-84.762h175.32v83.299l-45.28 2.908v200.17zM868.276 350.312h-179.734v-371.144h83.293v92.047l89.129 4.399c0 0 96.441 16.063 96.441 138.804 0 122.737-89.13 135.893-89.13 135.893v0zM844.897 164.738h-68.679v99.367h64.279c0 0 33.62-13.159 33.62-49.687s-29.219-49.68-29.219-49.68v0z" />
<glyph unicode="&#xe931;" glyph-name="rec-tilt" d="M132.8-18.4c0-5.6 4.8-10.4 10.4-10.4h292.8c5.6 0 10.4 4.8 10.4 10.4v292.8c0 5.6-4.8 10.4-10.4 10.4h-292.8c-5.6 0-10.4-4.8-10.4-10.4v-292.8zM172 236c0 5.6 4.8 10.4 10.4 10.4h214.4c5.6 0 10.4-4.8 10.4-10.4v-214.4c0-5.6-4.8-10.4-10.4-10.4h-214.4c-5.6 0-10.4 4.8-10.4 10.4v214.4zM132.8 380.8c0-5.6 4.8-10.4 10.4-10.4h292.8c5.6 0 10.4 4.8 10.4 10.4v292.8c0 5.6-4.8 10.4-10.4 10.4h-292.8c-5.6 0-10.4-4.8-10.4-10.4v-292.8zM172 634.4c0 5.6 4.8 10.4 10.4 10.4h214.4c5.6 0 10.4-4.8 10.4-10.4v-214.4c0-5.6-4.8-10.4-10.4-10.4h-214.4c-5.6 0-10.4 4.8-10.4 10.4v214.4zM524.8-14.4c0-5.6 4.8-10.4 10.4-10.4h292.8c5.6 0 10.4 4.8 10.4 10.4v292.8c0 5.6-4.8 10.4-10.4 10.4h-292.8c-5.6 0-10.4-4.8-10.4-10.4v-292.8zM564 239.2c0 5.6 4.8 10.4 10.4 10.4h214.4c5.6 0 10.4-4.8 10.4-10.4v-214.4c0-5.6-4.8-10.4-10.4-10.4h-213.6c-5.6 0-10.4 4.8-10.4 10.4v214.4zM850.4 778.4c-1.6 5.6-7.2 8.8-12.8 7.2l-335.2-89.6c-5.6-1.6-8.8-7.2-7.2-12.8l89.6-335.2c1.6-5.6 7.2-8.8 12.8-7.2l335.2 89.6c5.6 1.6 8.8 7.2 7.2 12.8l-89.6 335.2zM550.4 651.2c-1.6 5.6 1.6 11.2 7.2 12.8l248 66.4c5.6 1.6 11.2-1.6 12.8-7.2l66.4-248c1.6-5.6-1.6-11.2-7.2-12.8l-248-66.4c-5.6-1.6-11.2 1.6-12.8 7.2l-66.4 248z" />
<glyph unicode="&#xe932;" glyph-name="bars" d="M128.679 9.826h768.688v-29.007h-768.688v29.007zM127.56 377.424h29.007v-395.589h-29.007v395.589zM330.872 377.424h29.007v-395.589h-29.007v395.589zM359.738 362.92h-232.057v16.506c0 0 0.278 12.501 19.495 12.501 15.452 0 145.572 0 195.143 0 17.486 0.113 17.419-13.731 17.419-13.731v-15.276zM665.091 541.163h29.007v-559.328h-29.007v559.328zM868.401 541.163h29.007v-559.328h-29.007v559.328zM897.268 526.66h-232.057v16.506c0 0 0.278 12.501 19.495 12.501 15.452 0 145.572 0 195.143 0 17.486 0.113 17.419-13.731 17.419-13.731v-15.276zM395.020 732.487h29.007v-750.806h-29.007v750.806zM601.401 732.487h25.937v-750.806h-25.937v750.806zM627.197 717.984h-232.056v16.506c0 0 0.278 12.501 19.495 12.501 15.452 0 145.572 0 195.143 0 17.486 0.113 17.419-13.731 17.419-13.731v-15.276z" />
<glyph unicode="&#xe933;" glyph-name="articles" d="M903.246 847.020c0 15.789-13.182 28.98-28.992 28.98-241.509 0-483.009 0-724.519 0-15.791 0-28.98-13.19-28.98-28.98 0-322.015 0-644.041 0-966.039 0-15.802 13.19-28.98 28.98-28.98 241.509 0 483.009 0 724.519 0 8.53 0 15.020 3.098 19.661 7.759 0.279 0.24 0.54 0.521 0.799 0.769 0.24 0.251 0.54 0.531 0.759 0.801 4.66 4.628 7.771 11.118 7.771 19.65 0.002 321.998 0.002 644.024 0.002 966.039zM845.274-90.041c-222.18 0-444.374 0-666.56 0 0 302.699 0 605.391 0 908.082 222.186 0 444.381 0 666.56 0 0-302.69 0-605.381 0-908.082zM257.703 707.040h218.451v-40.959h-218.451v40.959zM551.246 712.161h220.159v-204.8h-220.159v204.8zM257.703 625.119h218.451v-40.959h-218.451v40.959zM257.703 543.199h218.451v-40.959h-218.451v40.959zM257.703 461.28h513.711v-40.959h-513.711v40.959zM257.703 358.88h513.711v-40.959h-513.711v40.959zM655.864 133.439h-22.318c-2.91 11.202-7.411 21.96-13.18 31.739l15.83 15.86c4.8 4.8 4.8 12.599 0 17.398l-26.059 26.081c-4.8 4.8-12.58 4.8-17.379 0l-15.911-15.83c-9.771 5.768-20.529 10.27-31.731 13.18v22.32c0 6.79-5.34 12.288-12.149 12.288h-36.86c-6.79 0-12.145-5.498-12.145-12.288v-22.32c-11.185-2.91-21.956-7.39-31.724-13.169l-15.875 15.819c-4.8 4.8-12.595 4.8-17.394 0l-26.070-26.059c-4.806-4.8-4.806-12.58 0-17.379l15.83-15.901c-5.785-9.779-10.27-20.54-13.18-31.739h-22.32c-6.79 0-12.29-5.34-12.29-12.149v-36.86c0-6.79 5.5-12.149 12.29-12.149h22.32c2.91-11.202 7.396-21.96 13.18-31.739l-15.83-15.86c-4.806-4.8-4.806-12.601 0-17.401l26.059-26.070c4.8-4.808 12.586-4.808 17.375-0.009l15.905 15.83c9.771-5.77 20.54-10.27 31.724-13.18v-22.331c0-6.779 5.346-12.277 12.145-12.277h36.86c6.788 0 12.149 5.498 12.149 12.277v22.331c11.202 2.91 21.96 7.409 31.739 13.18l15.858-15.83c4.8-4.8 12.601-4.8 17.401 0l26.070 26.059c4.81 4.8 4.81 12.58 0.011 17.379l-15.83 15.909c5.768 9.773 10.27 20.531 13.18 31.733h22.318c6.792 0 12.29 5.34 12.29 12.149v36.86c0.002 6.807-5.496 12.147-12.288 12.147zM514.553 41.44c-33.933 0-61.439 27.52-61.439 61.441 0 33.94 27.505 61.439 61.439 61.439 33.921 0 61.441-27.499 61.441-61.439 0-33.921-27.518-61.441-61.441-61.441z" />
<glyph unicode="&#xe934;" glyph-name="star2" horiz-adv-x="1025" d="M784.8-126.4c-11.2 0-22.4 2.4-32.8 8l-240 126.4-240-126.4c-24-12.8-52-10.4-74.4 5.6-21.6 16-32.8 42.4-28 68.8l46.4 267.2-194.4 189.6c-19.2 19.2-26.4 46.4-17.6 72s30.4 44 56.8 48l268 39.2 120 243.2c12 24 36 39.2 63.2 39.2s51.2-15.2 63.2-39.2l108-217.6c8-16 1.6-35.2-14.4-43.2s-35.2-1.6-43.2 14.4l-108 217.6c-0.8 2.4-3.2 4-5.6 4s-4.8-0.8-5.6-4l-128-257.6c-4.8-9.6-13.6-16-24-17.6l-284.8-41.6c-2.4 0-4.8-1.6-5.6-4.8s0-4.8 1.6-6.4l206.4-200.8c7.2-7.2 11.2-17.6 8.8-28l-48.8-284c0-2.4 0-4.8 2.4-6.4s4.8-1.6 6.4-0.8l255.2 134.4c9.6 4.8 20.8 4.8 29.6 0l255.2-134.4c2.4-0.8 4.8-0.8 6.4 0.8 2.4 1.6 3.2 4 2.4 6.4l-48.8 284c-1.6 10.4 1.6 20.8 8.8 28l206.4 200.8c1.6 1.6 2.4 4 1.6 6.4s-2.4 4-5.6 4.8l-192.8 28c-17.6 2.4-29.6 19.2-27.2 36 2.4 17.6 19.2 29.6 36 27.2l192.8-28c26.4-4 48.8-22.4 56.8-48s1.6-53.6-17.6-72l-194.4-189.6 45.6-267.2c4.8-26.4-6.4-52.8-28-68.8-9.6-8.8-24-13.6-38.4-13.6v0z" />
<glyph unicode="&#xe935;" glyph-name="articles-hori" d="M1013.505 667.037h-100.952v73.106c0 5.797-4.697 10.495-10.495 10.495h-891.564c-5.797 0-10.495-4.697-10.495-10.495v-694.497c0-37.651 30.634-68.285 68.285-68.285h889.496c36.513 0 66.219 29.704 66.219 66.217v612.964c0 5.797-4.697 10.495-10.495 10.495zM1003.011 43.578c0-24.94-20.29-45.228-45.23-45.228s-45.228 20.288-45.228 45.228v29.064c0 5.797-4.697 10.495-10.495 10.495s-10.495-4.697-10.495-10.495v-29.064c0-17.476 6.817-33.381 17.916-45.228h-841.196c-26.079 0-47.295 21.218-47.295 47.297v684h870.576v-558.994c0-5.797 4.697-10.495 10.495-10.495s10.495 4.697 10.495 10.495v475.394h90.458v-602.469zM428.415 611.314h-334.337c-5.797 0-10.495-4.697-10.495-10.495v-250.741c0-5.797 4.697-10.495 10.495-10.495h334.337c5.797 0 10.495 4.697 10.495 10.495v250.741c0 5.795-4.697 10.495-10.495 10.495zM417.921 360.573h-313.348v229.751h313.348v-229.751zM473.643 600.819c0 5.797 4.697 10.495 10.495 10.495h334.337c5.797 0 10.495-4.697 10.495-10.495s-4.697-10.495-10.495-10.495h-334.337c-5.797 0-10.495 4.697-10.495 10.495zM473.643 517.215c0 5.797 4.697 10.495 10.495 10.495h334.337c5.797 0 10.495-4.697 10.495-10.495s-4.697-10.495-10.495-10.495h-334.337c-5.797 0-10.495 4.7-10.495 10.495zM473.643 433.612c0 5.797 4.697 10.495 10.495 10.495h334.337c5.797 0 10.495-4.697 10.495-10.495s-4.697-10.495-10.495-10.495h-334.337c-5.797 0-10.495 4.7-10.495 10.495zM484.138 339.517c-5.797 0-10.495 4.697-10.495 10.495s4.697 10.495 10.495 10.495h334.337c5.797 0 10.495-4.697 10.495-10.495s-4.697-10.495-10.495-10.495h-334.337zM438.91 266.409c0-5.797-4.697-10.495-10.495-10.495h-334.337c-5.797 0-10.495 4.697-10.495 10.495s4.697 10.495 10.495 10.495h334.337c5.797 0 10.495-4.697 10.495-10.495zM438.91 182.872c0-5.797-4.697-10.495-10.495-10.495h-334.337c-5.797 0-10.495 4.697-10.495 10.495s4.697 10.495 10.495 10.495h334.337c5.797 0 10.495-4.697 10.495-10.495zM438.91 99.336c0-5.797-4.697-10.495-10.495-10.495h-334.337c-5.797 0-10.495 4.697-10.495 10.495s4.697 10.495 10.495 10.495h334.337c5.797 0 10.495-4.7 10.495-10.495zM832.951 266.409c0-5.797-4.697-10.495-10.495-10.495h-334.337c-5.797 0-10.495 4.697-10.495 10.495s4.697 10.495 10.495 10.495h334.337c5.795 0 10.495-4.697 10.495-10.495zM832.951 182.872c0-5.797-4.697-10.495-10.495-10.495h-334.337c-5.797 0-10.495 4.697-10.495 10.495s4.697 10.495 10.495 10.495h334.337c5.795 0 10.495-4.697 10.495-10.495zM832.951 99.336c0-5.797-4.697-10.495-10.495-10.495h-334.337c-5.797 0-10.495 4.697-10.495 10.495s4.697 10.495 10.495 10.495h334.337c5.795 0 10.495-4.7 10.495-10.495z" />
<glyph unicode="&#xe936;" glyph-name="fly" d="M881.822 733.884l-369.812-689.964v256.372c0 35.338-28.654 63.973-63.988 63.973h-256.517l690.317 369.62zM959.99 876c-10.904 0-21.172-2.72-30.181-7.563l-895.961-479.734c-20.126-10.794-33.828-31.997-33.828-56.415 0-35.314 28.676-63.958 63.993-63.958h351.981v-351.829c0-35.374 28.67-63.988 64.003-63.988 24.429 0 45.676 13.675 56.455 33.806l479.978 895.571c4.833 8.963 7.547 19.246 7.547 30.15 0.003 35.331-28.653 63.96-63.987 63.96z" />
<glyph unicode="&#xe937;" glyph-name="rocket" d="M512 554.4c37.6 0 68.8-30.4 68.8-68s-30.4-68-68-68-68 30.4-68 68c-1.6 37.6 29.6 68 67.2 68zM512 598.4c-61.6 0-112-50.4-112-112s50.4-112 112-112 112 50.4 112 112c-0.8 61.6-50.4 112-112 112zM663.2 42.4l-88.8 128-29.6-34.4-32.8-6.4-33.6 6.4-29.6 34.4-88-127.2-17.6 18.4c-3.2 4-74.4 88.8-70.4 188.8 1.6 44.8 20 85.6 53.6 120-8.8 22.4-29.6 64-24.8 118.4 6.4 71.2 45.6 176 198.4 277.6l10.4 7.2 11.2-6.4c3.2-1.6 72-40.8 128-109.6 73.6-89.6 84.8-188 46.4-284.8 17.6-18.4 46.4-56 52.8-111.2 6.4-63.2-11.2-129.6-68.8-197.6 0.8 0-16.8-21.6-16.8-21.6zM512 720.8c-245.6-168.8-152.8-336-148.8-343.2l9.6-16-13.6-12c-32-28.8-49.6-63.2-50.4-100.8-2.4-55.2 25.6-115.2 45.6-143.2l89.6 124.8 55.2-60.8 12-2.4 12 2.4 55.2 60.8 89.6-128.8c36.8 50.4 49.6 109.6 44.8 153.6-6.4 59.2-48 92-48 92.8l-13.6 10.4 7.2 16c39.2 86.4 25.6 171.2-41.6 252-38.4 49.6-84 81.6-104.8 94.4zM563.2 88c12.8-18.4 17.6-37.6 12.8-56.8-0.8-3.2-2.4-6.4-3.2-9.6l-7.2 7.2-25.6 24-18.4-29.6-9.6-15.2-9.6 15.2-18.4 28.8-24.8-24-8-7.2c-6.4 15.2-6.4 30.4 0 45.6 3.2 7.2 6.4 13.6 10.4 18.4 16-8 31.2-11.2 48-11.2 21.6 0.8 40 7.2 53.6 14.4v0zM568 126.4c0 0-24-23.2-59.2-23.2-16 0-34.4 4.8-53.6 20 0 0-79.2-66.4-10.4-145.6l33.6 31.2 34.4-53.6 33.6 53.6 33.6-31.2c-0.8-0.8 68 71.2-12 148.8z" />
<glyph unicode="&#xe938;" glyph-name="tag2" d="M595.139-87.931c-26.013 0-50.482 10.134-68.865 28.537l-437.645 437.645c-20.117 20.117-30.421 47.939-28.255 76.325l19.402 252.068c3.711 48.221 41.402 85.913 89.623 89.623l252.050 19.382c28.819 2.147 56.208-8.081 76.344-28.236l437.645-437.645c37.974-37.993 37.955-99.776 0-137.732l-271.432-271.432c-18.385-18.401-42.854-28.536-68.866-28.536zM428.945 777.355c-1.507 0-3.014-0.056-4.521-0.17l-252.050-19.382c-29.121-2.241-51.894-25.015-54.136-54.136l-19.402-252.050c-1.3-17.122 4.916-33.943 17.066-46.093l437.645-437.645c22.227-22.227 60.954-22.227 83.181 0l271.432 271.432c22.924 22.924 22.924 60.239 0 83.181l-437.644 437.646c-11.114 11.113-25.881 17.216-41.572 17.216zM299.295 499.67c-20.664 0-40.028 8.005-54.55 22.528s-22.528 33.887-22.528 54.55c0 20.644 8.005 40.028 22.528 54.55s33.887 22.528 54.55 22.528c20.644 0 40.028-8.005 54.55-22.528s22.528-33.905 22.528-54.55c0-20.664-8.005-40.028-22.528-54.55s-33.906-22.528-54.55-22.528zM299.295 615.249c-10.36 0-20.041-3.975-27.275-11.227s-11.227-16.934-11.227-27.275c0-10.36 3.975-20.041 11.227-27.275 14.466-14.485 40.046-14.485 54.55 0 7.252 7.233 11.227 16.915 11.227 27.275 0 10.342-3.993 20.023-11.227 27.275-7.252 7.234-16.934 11.227-27.275 11.227z" />
</font>
</defs>
</svg>
