<?xml version="1.0" standalone="no"?><!DOCTYPE svg PUBLIC "-//W3C//DTD SVG 1.1//EN" "http://www.w3.org/Graphics/SVG/1.1/DTD/svg11.dtd"><svg class="icon" width="200px" height="200.00px" viewBox="0 0 1024 1024" version="1.1" xmlns="http://www.w3.org/2000/svg"><path fill="#333333" d="M853.4 369.4c-52.6-77.1-134.7-87.7-163.9-88.9-69.8-7.1-136.3 41.1-171.6 41.1s-90-40.1-147.9-39.1C293.9 283.7 223.8 326.8 184.5 395c-79.1 137.2-20.2 340.5 56.8 451.7 37.7 54.5 82.6 115.7 141.5 113.5 56.7-2.3 78.3-36.8 146.8-36.8 68.7 0 87.9 36.8 148 35.6 61.1-1.1 99.8-55.5 137.2-110.2 43.3-63.2 61-124.3 62.1-127.5-1.4-0.6-119.1-45.7-120.3-181.3C755.5 426.6 849.2 372.1 853.4 369.4zM690.4 63.7c-45.1 1.8-99.6 30-132 67.9-29 33.6-51.4 87.2-44.6 138.7 50.3 3.9 98.7-25.6 130-63.5C675.1 169 696.2 116.3 690.4 63.7z" /></svg>