<?xml version="1.0" standalone="no"?><!DOCTYPE svg PUBLIC "-//W3C//DTD SVG 1.1//EN" "http://www.w3.org/Graphics/SVG/1.1/DTD/svg11.dtd"><svg class="icon" width="200px" height="200.00px" viewBox="0 0 1024 1024" version="1.1" xmlns="http://www.w3.org/2000/svg"><path fill="#333333" d="M615.122659 860.890109 431.980525 860.890109c-37.056987 0-67.205635-30.148647-67.205635-67.206658l0-142.249795c-37.808094-24.63098-69.614497-57.857732-92.544743-96.821139-26.247804-44.602847-40.121789-95.674013-40.121789-147.69276 0-77.895091 30.333866-151.126976 85.413322-206.206432s128.311341-85.413322 206.206432-85.413322c77.894068 0 151.126976 30.333866 206.206432 85.413322 55.080479 55.079456 85.414345 128.311341 85.414345 206.206432 0 52.096519-13.913894 103.235223-40.234353 147.886165-22.99676 39.009456-54.882981 72.247464-92.784196 96.860025l0 142.016481C682.329317 830.741461 652.18067 860.890109 615.122659 860.890109zM523.728112 166.466336c-64.227814 0-124.611066 25.01165-170.027441 70.427002-45.415352 45.416376-70.427002 105.799628-70.427002 170.027441 0 42.900066 11.429307 84.997859 33.05279 121.741715 21.0095 35.70213 51.0507 65.565275 86.874603 86.36295l12.738116 7.396457 0 171.262572c0 8.845459 7.195889 16.041348 16.040325 16.041348l183.143157 0c8.845459 0 16.041348-7.195889 16.041348-16.041348L631.164007 622.603027l12.771885-7.389294c35.910884-20.775162 66.028832-50.647517 87.09973-86.390579 21.683858-36.784788 33.146934-78.93784 33.146934-121.902374 0-64.227814-25.01165-124.611066-70.427002-170.027441C648.339178 191.477986 587.955926 166.466336 523.728112 166.466336zM612.406804 944.179047 435.048397 944.179047c-14.128789 0-25.582655-11.453866-25.582655-25.582655s11.453866-25.582655 25.582655-25.582655l177.358407 0c14.129812 0 25.582655 11.453866 25.582655 25.582655S626.536616 944.179047 612.406804 944.179047zM652.312676 733.309408 404.01152 733.309408c-14.128789 0-25.582655-11.453866-25.582655-25.582655s11.453866-25.582655 25.582655-25.582655l248.301156 0c14.128789 0 25.582655 11.453866 25.582655 25.582655S666.441465 733.309408 652.312676 733.309408zM843.660702 206.375278M218.350007 190.002378" /></svg>