<?xml version="1.0" encoding="utf-8"?>
<!-- Generator: Adobe Illustrator 19.0.0, SVG Export Plug-In . SVG Version: 6.00 Build 0)  -->
<svg version="1.1" id="图层_1" xmlns="http://www.w3.org/2000/svg" xmlns:xlink="http://www.w3.org/1999/xlink" x="0px" y="0px"
	 viewBox="-899 901 200.8 200" style="enable-background:new -899 901 200.8 200;" xml:space="preserve">
<style type="text/css">
	.st0{fill:#2C2C2C;}
</style>
<path class="st0" d="M-801.7,997.9h-24.1c-8.4,0-15.3-6.9-15.3-15.3v-8.8c0-8.4,6.9-15.3,15.3-15.3h8.8c8.4,0,15.3,6.9,15.3,15.3
	V997.9z M-825.8,964.4c-5.1,0-9.3,4.2-9.3,9.3v8.8c0,5.1,4.2,9.3,9.3,9.3h18.2v-18.2c0-5.1-4.2-9.3-9.3-9.3H-825.8z M-771.4,997.9
	h-24.1v-24.1c0-8.4,6.9-15.3,15.3-15.3h8.8c8.4,0,15.3,6.8,15.3,15.3c0,0,0,0,0,0v8.8C-756.1,991-762.9,997.9-771.4,997.9
	L-771.4,997.9z M-789.6,991.9h18.2c5.2,0,9.4-4.2,9.4-9.3v-8.8c0-5.2-4.2-9.3-9.4-9.3h-8.8c-5.1,0-9.3,4.2-9.3,9.3L-789.6,991.9z
	 M-771.4,1043.1h-8.8c-8.4,0-15.3-6.9-15.3-15.3v-24.1h24.1c8.4,0,15.3,6.8,15.3,15.3l0,0v8.8
	C-756.1,1036.2-762.9,1043.1-771.4,1043.1L-771.4,1043.1z M-789.6,1009.6v18.1c0,5.1,4.2,9.3,9.3,9.3h8.8c5.2,0,9.4-4.1,9.4-9.3
	c0,0,0,0,0,0v-8.8c0-5.1-4.2-9.3-9.3-9.3L-789.6,1009.6z M-817,1043.1h-8.8c-8.4,0-15.3-6.9-15.3-15.3v-8.8
	c0-8.4,6.9-15.3,15.3-15.3h24.1v24.1C-801.7,1036.2-808.5,1043.1-817,1043.1z M-825.8,1009.6c-5.1,0-9.3,4.2-9.3,9.3v8.8
	c0,5.1,4.2,9.3,9.3,9.3h8.8c5.1,0,9.3-4.2,9.3-9.3v-18.1H-825.8z"/>
<path class="st0" d="M-799.3,1075.3c-19.8,0-38.5-7.7-52.5-21.8c-14-14-21.7-32.7-21.7-52.5c0-19.8,7.7-38.5,21.8-52.5
	c14-14,32.7-21.8,52.5-21.8c19.8,0,38.5,7.7,52.5,21.8c14,14,21.8,32.7,21.8,52.5s-7.7,38.5-21.8,52.5
	C-760.9,1067.6-779.5,1075.3-799.3,1075.3L-799.3,1075.3z M-799.3,932c-38,0-69,30.9-69,69c0,38,30.9,69,69,69c38,0,69-30.9,69-69
	C-730.4,963-761.3,932-799.3,932L-799.3,932z"/>
</svg>
