<?xml version="1.0" standalone="no"?><!DOCTYPE svg PUBLIC "-//W3C//DTD SVG 1.1//EN" "http://www.w3.org/Graphics/SVG/1.1/DTD/svg11.dtd"><svg t="1490250994352" class="icon" style="" viewBox="0 0 1024 1024" version="1.1" xmlns="http://www.w3.org/2000/svg" p-id="3122" xmlns:xlink="http://www.w3.org/1999/xlink" width="50" height="50"><defs><style type="text/css"></style></defs><path d="M886.238938 120.364345 139.671575 120.364345c-40.571021 0-73.437569 34.500768-73.437569 77.039607l0 529.748223c0 42.585911 32.866548 77.0744 73.437569 77.0744l359.682919 0 0 118.237915L361.447611 922.464489l0 37.862329 313.677119 0 0-37.862329L537.216823 922.464489 537.216823 804.225551l349.021092 0c40.547485 0 73.414033-34.488489 73.414033-77.0744L959.651948 197.402929C959.652971 154.865113 926.786423 120.364345 886.238938 120.364345zM139.671575 158.226674l746.56634 0c19.603477 0 35.551704 17.574261 35.551704 39.177278l0 426.347225L104.096335 623.751177 104.096335 197.402929C104.096335 175.800935 120.055818 158.226674 139.671575 158.226674zM886.238938 766.363222 537.216823 766.363222l0-0.39295-37.862329 0 0 0.39295L139.671575 766.363222c-19.615757 0-35.57524-17.58961-35.57524-39.21207l0-65.538669 817.694307 0 0 65.538669C921.790642 748.773611 905.842415 766.363222 886.238938 766.363222z" p-id="3123" fill="#1296db"></path></svg>