<?xml version="1.0" standalone="no"?><!DOCTYPE svg PUBLIC "-//W3C//DTD SVG 1.1//EN" "http://www.w3.org/Graphics/SVG/1.1/DTD/svg11.dtd"><svg class="icon" width="200px" height="200.00px" viewBox="0 0 1024 1024" version="1.1" xmlns="http://www.w3.org/2000/svg"><path fill="#333333" d="M836.266667 507.733333h-59.733334l59.733334-200.533333h59.733333l-59.733333 200.533333z m-324.266667-140.8l-157.866667 140.8v4.266667h-59.733333l-59.733333-200.533333h59.733333l42.666667 132.266666 132.266666-119.466666-81.066666-76.8 123.733333-136.533334 136.533333 123.733334-89.6 93.866666 123.733334 110.933334 42.666666-132.266667h59.733334l-59.733334 200.533333h-59.733333m-93.866667-268.8l-55.466666-51.2-51.2 55.466667 55.466666 51.2 51.2-55.466667z m-384 268.8l-59.733333-200.533333h59.733333l59.733334 200.533333h-59.733334z m614.4 110.933334h-567.466666l-29.866667-59.733334h631.466667l-34.133334 59.733334z"  /></svg>