<?xml version="1.0" standalone="no"?><!DOCTYPE svg PUBLIC "-//W3C//DTD SVG 1.1//EN" "http://www.w3.org/Graphics/SVG/1.1/DTD/svg11.dtd"><svg t="1490251289410" class="icon" style="" viewBox="0 0 1024 1024" version="1.1" xmlns="http://www.w3.org/2000/svg" p-id="1694" xmlns:xlink="http://www.w3.org/1999/xlink" width="12" height="12"><defs><style type="text/css"></style></defs><path d="M906.758 456.221c-31.129 0-56.317 25.217-56.317 56.317v337.907h-675.81v-337.907c0-31.101-25.187-56.317-56.317-56.317-31.127 0-56.318 25.215-56.318 56.317v394.222c0 31.101 25.188 56.317 56.318 56.317h788.445c31.132 0 56.317-25.214 56.317-56.317v-394.222c0-31.101-25.184-56.317-56.317-56.317zM568.855 456.221v-344.785c0-27.303-25.188-49.438-56.318-49.438-31.129 0-56.317 22.135-56.317 49.438v344.785h-168.954l225.269 225.268 225.273-225.268h-168.95z" p-id="1695" fill="#ffffff"></path></svg>