<?xml version="1.0" standalone="no"?><!DOCTYPE svg PUBLIC "-//W3C//DTD SVG 1.1//EN" "http://www.w3.org/Graphics/SVG/1.1/DTD/svg11.dtd"><svg class="icon" width="200px" height="200.00px" viewBox="0 0 1024 1024" version="1.1" xmlns="http://www.w3.org/2000/svg"><path fill="#333333" d="M512.320806 65.100694c-246.934019 0-447.813119 200.8791-447.813119 447.813119 0 246.926856 200.8791 447.809025 447.813119 447.809025 246.952438 0 447.860191-200.88217 447.860191-447.809025C960.180997 265.979794 759.273245 65.100694 512.320806 65.100694L512.320806 65.100694zM512.320806 923.403884c-226.357378 0-410.494165-184.136787-410.494165-410.490072 0-226.357378 184.136787-410.496212 410.494165-410.496212 226.376821 0 410.538167 184.138834 410.538167 410.496212C922.858974 739.267097 738.702744 923.403884 512.320806 923.403884L512.320806 923.403884zM725.240127 615.117542c-9.728572-3.454682-20.377096 1.569752-23.860431 11.270694-28.486798 79.490425-104.394628 132.910079-188.910511 132.910079-84.838224 0-160.846338-53.713342-189.162244-133.655046-3.431146-9.728572-14.080693-14.776542-23.831778-11.369955-9.704013 3.433192-14.805194 14.108323-11.368932 23.833825 33.559327 94.821599 123.725906 158.51013 224.340441 158.51013 100.213399 0 190.253088-63.342654 224.040612-157.639297 3.50687-9.676383-1.542122-20.37198-11.246135-23.856337L725.24115 615.117542zM339.055624 360.921119c37.493939 0 68.020186 36.947494 68.020186 82.352613 0 10.29753 8.362458 18.659989 18.661012 18.659989 10.3006 0 18.657942-8.361435 18.657942-18.659989 0-65.980737-47.246047-119.66952-105.33914-119.66952-58.094116 0-105.314581 53.689806-105.314581 119.66952 0 10.29753 8.361435 18.659989 18.657942 18.659989 10.302647 0 18.657942-8.361435 18.657942-18.659989C271.034415 397.842007 301.537126 360.921119 339.055624 360.921119L339.055624 360.921119zM685.628968 323.604212c-58.06444 0-105.338117 53.689806-105.338117 119.66952 0 10.29753 8.361435 18.659989 18.657942 18.659989 10.302647 0 18.664082-8.361435 18.664082-18.659989 0-45.404096 30.527271-82.352613 68.016093-82.352613 37.494962 0 67.997674 36.947494 67.997674 82.352613 0 10.29753 8.361435 18.659989 18.658965 18.659989 10.301623 0 18.663058-8.361435 18.663058-18.659989C790.973224 377.266389 743.727177 323.604212 685.628968 323.604212L685.628968 323.604212zM685.628968 323.604212" /></svg>