<?xml version="1.0" standalone="no"?><!DOCTYPE svg PUBLIC "-//W3C//DTD SVG 1.1//EN" "http://www.w3.org/Graphics/SVG/1.1/DTD/svg11.dtd"><svg t="1499335545390" class="icon" style="" viewBox="0 0 1024 1024" version="1.1" xmlns="http://www.w3.org/2000/svg" p-id="1029" xmlns:xlink="http://www.w3.org/1999/xlink" width="200" height="200"><defs><style type="text/css"></style></defs><path d="M983.36 484.608C976 473.984 798.848 224 512 224S48 473.984 40.576 484.608c-11.456 16.448-11.456 38.336 0 54.784C48 550.08 225.152 800 512 800s464-249.92 471.36-260.544C994.88 522.944 994.88 501.056 983.36 484.608zM512 752C246.848 752 80 512 80 512S246.848 272 512 272c265.088 0 432 240 432 240S777.088 752 512 752z" p-id="1030"></path><path d="M512 320C405.952 320 320 406.016 320 512c0 106.048 85.952 192 192 192 105.984 0 192-85.952 192-192C704 406.016 617.984 320 512 320zM512 656c-79.424 0-144-64.576-144-144 0-79.36 64.576-144 144-144 79.36 0 144 64.64 144 144C656 591.424 591.36 656 512 656z" p-id="1031"></path></svg>