<?xml version="1.0" standalone="no"?><!DOCTYPE svg PUBLIC "-//W3C//DTD SVG 1.1//EN" "http://www.w3.org/Graphics/SVG/1.1/DTD/svg11.dtd"><svg t="1499409470436" class="icon" style="" viewBox="0 0 1024 1024" version="1.1" xmlns="http://www.w3.org/2000/svg" p-id="8488" xmlns:xlink="http://www.w3.org/1999/xlink" width="200" height="200"><defs><style type="text/css"></style></defs><path d="M881.822 142.116L512.01 832.08V575.708c0-35.338-28.654-63.973-63.988-63.973H191.505l690.317-369.62M959.99 0c-10.904 0-21.172 2.72-30.181 7.563L33.848 487.297C13.722 498.091 0.02 519.294 0.02 543.712c0 35.314 28.676 63.958 63.993 63.958h351.981v351.829c0 35.374 28.67 63.988 64.003 63.988 24.429 0 45.676-13.675 56.455-33.806L1016.43 94.11c4.833-8.963 7.547-19.246 7.547-30.15C1023.98 28.629 995.324 0 959.99 0z m0 0" fill="#FF9800" p-id="8489"></path></svg>