<?xml version="1.0" encoding="utf-8"?>
<!-- Generator: Adobe Illustrator 19.0.0, SVG Export Plug-In . SVG Version: 6.00 Build 0)  -->
<svg version="1.1" id="图层_1" xmlns="http://www.w3.org/2000/svg" xmlns:xlink="http://www.w3.org/1999/xlink" x="0px" y="0px"
	 viewBox="-399 401 200 200" style="enable-background:new -399 401 200 200;" xml:space="preserve">
<path d="M-275.6,456.3h-16.7v-13.1c0-2,1.6-3.6,3.6-3.6h14.9c4.1,0,7.4-3.3,7.4-7.5c0-4.1-3.3-7.5-7.4-7.5h-14.9
	c-10.1,0-18.3,8.3-18.3,18.6v13.1h-16.6c-31.2,0-56.5,25.1-56.5,56.1s25.3,56.1,56.5,56.1h48.1c31.2,0,56.5-25.1,56.5-56.1
	C-219.2,481.4-244.4,456.3-275.6,456.3z M-316.7,519.7h-9.8v9.8c0,4-3.3,7.3-7.3,7.3s-7.3-3.3-7.3-7.3v-9.8h-9.8
	c-4,0-7.3-3.3-7.3-7.3s3.3-7.3,7.3-7.3h9.8v-9.8c0-4,3.3-7.3,7.3-7.3s7.3,3.3,7.3,7.3v9.8h9.8c4,0,7.3,3.3,7.3,7.3
	S-312.7,519.7-316.7,519.7z M-270.4,510c-4,0-7.3-3.3-7.3-7.3s3.3-7.3,7.3-7.3s7.3,3.3,7.3,7.3C-263.1,506.7-266.3,510-270.4,510z
	 M-250.9,529.5c-4,0-7.3-3.3-7.3-7.3s3.3-7.3,7.3-7.3c4,0,7.3,3.3,7.3,7.3S-246.8,529.5-250.9,529.5z"/>
</svg>
