<?xml version="1.0" standalone="no"?><!DOCTYPE svg PUBLIC "-//W3C//DTD SVG 1.1//EN" "http://www.w3.org/Graphics/SVG/1.1/DTD/svg11.dtd"><svg t="1491376613982" class="icon" style="" viewBox="0 0 1024 1024" version="1.1" xmlns="http://www.w3.org/2000/svg" p-id="2460" xmlns:xlink="http://www.w3.org/1999/xlink" width="200" height="200"><defs><style type="text/css"></style></defs><path d="M628.248096 277.534967c8.466835 0 14.553461-1.703805 18.229177-5.077645 3.676739-3.390213 5.514597-7.622608 5.514597-12.670577 0-5.363148-1.837858-9.731642-5.514597-13.121855-3.676739-3.390213-9.762341-5.076622-18.229177-5.076622l-248.131287 0 0 235.506758c0 6.192026 1.566682 10.997472 4.670369 14.372336 3.103688 3.40454 7.201006 5.075599 12.263301 5.075599 3.691065 0 10.033517-2.25946 19.073404-6.764054 36.970006-19.434631 73.972758-29.181623 110.943788-29.181623 36.126802 0 65.896826 12.187577 89.338724 36.563754 23.412223 24.405853 35.134195 56.617485 35.134195 96.631828 0 47.063899-13.530155 84.774779-40.647769 113.096824-27.088962 28.323069-61.407582 42.49893-102.868879 42.49893-50.258661 0-96.691179-19.884886-139.341558-59.628052-5.364171-5.062296-10.440793-7.609305-15.231913-7.609305-4.519943 0-8.466835 1.77646-11.871375 5.288446-3.374864 3.52529-5.062296 7.832386-5.062296 12.911054 0 6.205329 5.363148 13.950733 16.090467 23.246447 18.049075 15.485693 38.086433 28.459169 60.112076 38.899962 31.06553 14.930037 63.396889 22.403243 96.993055 22.403243 50.802036 0 93.166913-17.461697 127.003556-52.430116 33.897018-34.936697 50.830689-80.615039 50.830689-136.991024 0-51.027164-15.034415-92.172259-45.106314-123.44859-30.040177-31.29168-67.372433-46.929846-111.997793-46.929846-17.204847 0-35.419697 2.15406-54.628178 6.553253-19.194154 4.370541-39.23049 10.907421-60.112076 19.645432L415.702282 277.534967 628.248096 277.534967 628.248096 277.534967z" p-id="2461"></path><path d="M116.226606 66.147536l74.485435 805.049313 324.877205 88.645946 330.479807-90.424452 72.377424-804.370861L116.226606 66.147536zM817.233308 845.315388l-301.645085 82.529645L219.472062 847.045799 150.063249 96.957239l734.632543-1.010003L817.233308 845.315388z" p-id="2462"></path></svg>