<?xml version="1.0" standalone="no"?><!DOCTYPE svg PUBLIC "-//W3C//DTD SVG 1.1//EN" "http://www.w3.org/Graphics/SVG/1.1/DTD/svg11.dtd"><svg t="1491376349781" class="icon" style="" viewBox="0 0 1024 1024" version="1.1" xmlns="http://www.w3.org/2000/svg" p-id="998" xmlns:xlink="http://www.w3.org/1999/xlink" width="200" height="200"><defs><style type="text/css"></style></defs><path d="M771.275 94.585c6.79 0 13.581 0 20.371 0 44.675 7.103 71.418 31.697 84.397 61.115 38.506 87.269-49.952 175.037-136.785 136.784-44.318-19.526-78.8-85.312-49.475-142.604 12.851-25.104 41.71-48.755 81.49-55.295zM715.979 199.354c1.43 77.062 112.682 81.574 129.507 17.46 13.801-52.579-30.691-88.686-72.757-82.943-38.185 5.215-57.363 32.411-56.751 65.482z" p-id="999"></path><path d="M509.348 245.918c61.706-6.928 116.886 40.494 113.501 107.679-1.243 24.639-13.193 50.273-27.649 65.481-61.857 65.083-178.981 20.902-178.981-71.303 0.001-58.125 39.073-95.791 93.13-101.858zM454.054 344.868c-1.345 35.495 24.655 66.844 62.571 68.391 94.225 3.843 87.634-143.36-7.276-129.507-33.106 4.831-54.030 27.679-55.297 61.116z" p-id="1000"></path><path d="M714.526 395.797c71.822-8.063 126.521 52.566 112.045 123.686-21.085 103.594-173.2 105.889-200.809 5.821-15.575-56.447 19.646-103.97 53.841-120.777 8.91-4.381 22.769-7.365 34.924-8.732zM662.138 478.74c-25.776 99.222 129.072 113.93 129.507 18.916 0.205-44.686-34.9-71.229-77.121-64.025-31.226 5.324-46.491 22.412-52.387 45.108z" p-id="1001"></path><path d="M630.125 685.369c64.25-14.78 145.642-37.883 218.272-56.751 22.713-5.901 53.394-20.755 77.121-14.55 39.015 10.198 45.185 75.377 23.281 109.135-12.33 19.008-56.781 44.21-78.576 58.204-29.695 19.068-56.834 33.319-85.852 49.476-62.556 34.823-118.062 69.253-187.712 84.396-48.829 10.617-104.242-6.895-148.425-18.916-80.164-21.812-154.483-51.35-253.194-52.384-15.357-0.161-56.195 0-75.668 0-25.225 0-57.098 3.459-58.204-17.462-1.226-23.167 26.208-20.371 55.297-20.371 28.46 0 57.069-0.582 75.668 0 96.1 3.015 169.809 31.225 248.829 52.384 41.23 11.043 94.15 27.328 138.238 21.827 37.677-4.7 75.327-24.645 106.225-39.287 66.826-31.669 124.362-64.577 186.256-104.769 26.587-17.266 69.151-45.727 42.199-85.852-82.956 21.049-177.065 46.572-266.289 69.847-29.335 7.65-62.076 21.827-90.22 21.827-17.204 0-31.31-8.991-48.020-14.551-31.801-10.581-62.453-18.006-96.039-29.103-19.436-6.42-32.433-18.419-23.283-33.468 10.132-16.661 69.63 8.551 84.397 13.094 13.957 4.295 30.067 10.735 42.199 14.55 14.377 4.523 29.931 12.58 43.655 11.643 18.459-1.264 38.189-18.972 33.47-45.108-4.33-23.983-39.666-37.71-55.297-46.564-46.732-26.473-84.21-47.648-129.506-74.212-43.023-25.229-93.711-65.378-165.887-45.109-39.479 11.087-95.027 44.226-129.506 65.481-11.084 6.832-22.732 25.558-37.833 23.281-7.209-1.086-13.87-10.364-14.551-16.006-2.055-17.017 22.303-25.684 37.833-36.375 15.269-10.512 32.303-20.815 45.108-27.648 42.131-22.48 72.389-47.056 116.412-50.931 18.993-1.673 54.654-2.109 74.212 2.912 24.452 6.276 48.229 25.152 72.757 39.289 48.121 27.737 91.743 52.886 141.147 81.487 42.779 24.764 91.5 40.739 81.486 110.591z" p-id="1002"></path></svg>