<?xml version="1.0" encoding="utf-8"?>
<!-- Generator: Adobe Illustrator 19.0.0, SVG Export Plug-In . SVG Version: 6.00 Build 0)  -->
<svg version="1.1" id="图层_1" xmlns="http://www.w3.org/2000/svg" xmlns:xlink="http://www.w3.org/1999/xlink" x="0px" y="0px"
	 viewBox="-899 901 200.2 200" style="enable-background:new -899 901 200.2 200;" xml:space="preserve">
<style type="text/css">
	.st0{fill:#2C2C2C;}
</style>
<path class="st0" d="M-745.2,1000.1l-48.6-43.4c-2.8-2.5-7.5-2.5-10.4,0l-21.1,18.8v-9.2c0-1.9-1.6-3.5-3.5-3.5h-4.5
	c-1.9,0-3.5,1.6-3.5,3.5v19.4l-16.1,14.4c-2.8,2.5-2.1,4.6,1.8,4.6h12.6v39c0,1.9,1.6,3.5,3.5,3.5h19.1c1.9,0,3.5-1.6,3.5-3.5v-12.1
	c0-1.9,1.6-3.5,3.5-3.5h19.7c1.9,0,3.5,1.6,3.5,3.5v12.1c0,1.9,1.6,3.5,3.5,3.5h19.2c1.9,0,3.5-1.6,3.5-3.5v-39h12.6
	C-743.2,1004.7-742.4,1002.6-745.2,1000.1z M-760.6,999.7c-1.2-0.1-4.3-0.2-4.2,1.7c0,0.8,0,1.3,0,1.3v39.3h-15.7v-10.4
	c0-4.8-3.9-8.7-8.7-8.7h-19.7c-4.8,0-8.7,3.9-8.7,8.7v10.4h-15.7l0.1-38c0,0,0-1.4,0-2.6c-0.1-2.2-2.8-1.7-4.3-1.7
	c-2.9-0.3-8.2,0.5-6.7-0.9l43.4-37.5c1.1-1.2,1.9-1.2,3.4,0l43.4,37.5C-752.6,1000.1-758.9,999.4-760.6,999.7z"/>
<path class="st0" d="M-798.9,1075.3c-19.8,0-38.5-7.7-52.5-21.8c-14-14-21.7-32.7-21.7-52.5c0-19.8,7.7-38.5,21.8-52.5
	c14-14,32.7-21.8,52.5-21.8s38.5,7.7,52.5,21.8c14,14,21.8,32.7,21.8,52.5s-7.7,38.5-21.8,52.5
	C-760.4,1067.6-779.1,1075.3-798.9,1075.3L-798.9,1075.3z M-798.9,932c-38,0-69,30.9-69,69c0,38,30.9,69,69,69c38,0,69-30.9,69-69
	C-730,963-760.9,932-798.9,932L-798.9,932z"/>
</svg>
