<?xml version="1.0" standalone="no"?><!DOCTYPE svg PUBLIC "-//W3C//DTD SVG 1.1//EN" "http://www.w3.org/Graphics/SVG/1.1/DTD/svg11.dtd"><svg class="icon" width="200px" height="159.50px" viewBox="0 0 1284 1024" version="1.1" xmlns="http://www.w3.org/2000/svg"><path fill="#333333" d="M1100.286533 562.270869 665.355492 155.11595l-434.931041 405.883477c-8.508883 7.922063-8.997899 21.321108-1.075836 29.82999s21.321108 8.997899 29.82999 0.978032l406.176886-378.987584 406.176886 380.161223c4.107736 3.814327 9.291309 5.672588 14.377077 5.672588 5.574785 0 11.247373-2.249475 15.35511-6.650621C1109.284432 583.494174 1108.795415 570.192932 1100.286533 562.270869zM967.567526 570.584145c-11.638586 0-21.125501 9.486915-21.125501 21.125501l0 323.337536L777.829226 915.047182l0-224.947469-224.947469 0 0 224.947469L384.171156 915.047182 384.171156 591.709647c0-11.638586-9.389112-21.125501-21.125501-21.125501-11.638586 0-21.125501 9.486915-21.125501 21.125501L341.920153 957.200382l253.017001 0L594.937154 732.252913 735.48042 732.252913l0 224.947469 253.017001 0L988.497421 591.709647C988.693028 580.07106 979.206113 570.584145 967.567526 570.584145zM819.982426 268.372111l126.557402 0 0 112.473734c0 11.638586 9.486915 21.125501 21.125501 21.125501s21.125501-9.389112 21.125501-21.125501L988.790831 226.218911l-168.808405 0c-11.638586 0-21.125501 9.389112-21.125501 21.125501C798.856925 258.885196 808.34384 268.372111 819.982426 268.372111z" /></svg>