<?xml version="1.0" standalone="no"?><!DOCTYPE svg PUBLIC "-//W3C//DTD SVG 1.1//EN" "http://www.w3.org/Graphics/SVG/1.1/DTD/svg11.dtd"><svg t="1491376660387" class="icon" style="" viewBox="0 0 1130 1024" version="1.1" xmlns="http://www.w3.org/2000/svg" p-id="3116" xmlns:xlink="http://www.w3.org/1999/xlink" width="220.703125" height="200"><defs><style type="text/css"></style></defs><path d="M671.693 960.308c-22.98 3.635-46.55 5.52-70.555 5.52-247.774 0-448.644-200.865-448.644-448.634 0-247.797 200.869-448.666 448.644-448.666 247.784 0 448.659 200.869 448.659 448.666 0 23.23-1.755 46.055-5.155 68.33l33.41 0c3.17-22.315 4.825-45.145 4.825-68.33 0-266.059-215.669-481.734-481.739-481.734-266.032 0-481.709 215.674-481.709 481.734 0 266.034 215.674 481.714 481.709 481.714 23.975 0 47.535-1.755 70.555-5.135L671.693 960.308 671.693 960.308zM512.254 516.659c0 52.39 42.47 94.855 94.855 94.855 52.39 0 94.86-42.465 94.86-94.855 0-52.387-42.47-94.857-94.86-94.857C554.724 421.799 512.254 464.269 512.254 516.659zM729.868 721.998c0 36.98 29.97 66.96 66.95 66.96 36.98 0 66.96-29.98 66.96-66.96l0 0c0-36.98-29.98-66.96-66.96-66.96C759.838 655.038 729.868 685.018 729.868 721.998zM743.258 959.698c0 24.66 19.98 44.64 44.64 44.64 24.65 0 44.64-19.98 44.64-44.64 0-24.65-19.99-44.64-44.64-44.64C763.238 915.058 743.258 935.048 743.258 959.698zM671.273 936.818c-21.73 3.435-44.015 5.22-66.705 5.22-234.247 0-424.149-189.9-424.149-424.144 0-234.264 189.902-424.166 424.149-424.166 234.254 0 424.164 189.902 424.164 424.166 0 21.96-1.665 43.545-4.88 64.6l31.585 0c3-21.095 4.565-42.675 4.565-64.6 0-251.529-203.89-455.429-455.434-455.429-251.507 0-455.409 203.899-455.409 455.429 0 251.514 203.899 455.414 455.409 455.414 22.66 0 44.94-1.66 66.705-4.86L671.273 936.818 671.273 936.818z" p-id="3117"></path></svg>