<?xml version="1.0" standalone="no"?><!DOCTYPE svg PUBLIC "-//W3C//DTD SVG 1.1//EN" "http://www.w3.org/Graphics/SVG/1.1/DTD/svg11.dtd"><svg class="icon" width="200px" height="167.87px" viewBox="0 0 1220 1024" version="1.1" xmlns="http://www.w3.org/2000/svg"><path fill="#333333" d="M560.367072 1024L136.395142 571.284211c-35.929825-28.74386-89.824561-97.010526-107.789474-140.126316-14.37193-28.74386-25.150877-79.045614-25.150877-118.568421C3.454791 140.126316 143.581107 0 312.451282 0c97.010526 0 190.42807 46.708772 247.91579 125.754386C617.854791 46.708772 711.272335 0 808.282861 0 977.153036 0 1117.279352 140.126316 1117.279352 312.589474c0 32.336842-3.592982 79.045614-21.557895 118.568421-17.964912 39.522807-71.859649 107.789474-107.789473 136.533333L560.367072 1024zM312.451282 71.859649C183.103914 71.859649 75.31444 179.649123 75.31444 312.589474c0 32.336842 7.185965 68.266667 14.37193 86.231579 14.37193 32.336842 61.080702 93.417544 89.824561 111.382456l7.185965 3.592982 373.670176 398.821053 380.85614-406.007018c21.557895-17.964912 68.266667-79.045614 86.231579-111.382456 14.37193-17.964912 17.964912-43.115789 17.964912-82.638596C1045.419703 179.649123 937.630229 71.859649 808.282861 71.859649c-89.824561 0-176.05614 53.894737-215.578947 136.533333l-32.336842 68.266667-32.336843-68.266667C488.507422 125.754386 405.868826 71.859649 312.451282 71.859649z" /></svg>