<?xml version="1.0" standalone="no"?><!DOCTYPE svg PUBLIC "-//W3C//DTD SVG 1.1//EN" "http://www.w3.org/Graphics/SVG/1.1/DTD/svg11.dtd"><svg t="1490251135227" class="icon" style="" viewBox="0 0 1024 1024" version="1.1" xmlns="http://www.w3.org/2000/svg" p-id="5589" xmlns:xlink="http://www.w3.org/1999/xlink" width="50" height="50"><defs><style type="text/css"></style></defs><path d="M917.333333 746.666667 622.826667 746.666667c12.693333 70.421333 54.890667 118.869333 93.888 149.333333L768 896c11.797333 0 21.333333 9.536 21.333333 21.333333s-9.536 21.333333-21.333333 21.333333L256 938.666667c-11.797333 0-21.333333-9.536-21.333333-21.333333s9.536-21.333333 21.333333-21.333333l51.264 0c38.976-30.464 81.216-78.912 93.888-149.333333L106.666667 746.666667c-47.125333 0-85.333333-38.208-85.333333-85.333333L21.333333 170.666667c0-47.125333 38.208-85.333333 85.333333-85.333333l810.666667 0c47.125333 0 85.333333 38.208 85.333333 85.333333l0 490.666667C1002.666667 708.458667 964.458667 746.666667 917.333333 746.666667zM371.136 896l281.706667 0c-34.026667-35.882667-64.32-84.821333-73.792-149.333333l-134.122667 0C435.456 811.178667 405.162667 860.117333 371.136 896zM960 170.666667c0-23.552-19.114667-42.666667-42.666667-42.666667L106.666667 128C83.114667 128 64 147.114667 64 170.666667l0 405.333333 0 0 896 0L960 170.666667zM960 618.666667 64 618.666667l0 0 0 42.666667c0 23.552 19.114667 42.666667 42.666667 42.666667l298.666667 0 0 0 213.333333 0 0 0 298.666667 0c23.552 0 42.666667-19.114667 42.666667-42.666667L960 618.666667zM512 682.666667c-11.797333 0-21.333333-9.536-21.333333-21.333333s9.536-21.333333 21.333333-21.333333 21.333333 9.536 21.333333 21.333333S523.797333 682.666667 512 682.666667z" p-id="5590" fill="#1296db"></path></svg>