<?xml version="1.0" encoding="utf-8"?>
<!-- Generator: Adobe Illustrator 19.0.0, SVG Export Plug-In . SVG Version: 6.00 Build 0)  -->
<svg version="1.1" id="图层_1" xmlns="http://www.w3.org/2000/svg" xmlns:xlink="http://www.w3.org/1999/xlink" x="0px" y="0px"
	 viewBox="-899 901 200 200" style="enable-background:new -899 901 200 200;" xml:space="preserve">
<style type="text/css">
	.st0{fill:#2C2C2C;}
</style>
<path class="st0" d="M-766,967l-27.7,30.4v4.5h23.2v0c2.2,0.1,3.9,1.9,3.9,4.1c0,2.2-1.8,4-3.9,4.1v0h-0.1c0,0,0,0-0.1,0
	c0,0,0,0-0.1,0l-23,0v8.5h23.2v0c2.2,0.1,3.9,1.9,3.9,4.1c0,2.2-1.8,4-3.9,4.1v0h-0.1c0,0,0,0-0.1,0c0,0,0,0-0.1,0h-23v19.4l0-2.5
	c0,2.9-2.4,5.3-5.3,5.3c-2.9,0-5.3-2.4-5.3-5.3c0,0,0,2.5,0,2.5v-19.4h-22.8c0,0,0,0-0.1,0c-2.2,0-4.1-1.8-4.1-4.1
	c0-2.2,1.8-4.1,4.1-4.1c0,0,0,0,0.1,0v0h22.8v-8.5h-22.8v0c0,0-0.1,0-0.1,0c-2.2,0-4.1-1.8-4.1-4.1c0-2.2,1.8-4.1,4.1-4.1
	c0,0,0.1,0,0.1,0v0h22.8v-4.5l-27.3-30.4c0,0-2.9-8.3,6.1-5.4c3.2,1.1,5.9,5.4,5.9,5.4l21,22.7l20.9-22.9c0,0,3.2-4.4,6.9-5.1
	C-765.5,960.2-766,967-766,967z"/>
<path class="st0" d="M-799,1075.3c-19.8,0-38.5-7.7-52.5-21.8c-14-14-21.7-32.7-21.7-52.5c0-19.8,7.7-38.5,21.8-52.5
	c14-14,32.7-21.8,52.5-21.8s38.5,7.7,52.5,21.8c14,14,21.8,32.7,21.8,52.5s-7.7,38.5-21.8,52.5
	C-760.5,1067.6-779.2,1075.3-799,1075.3L-799,1075.3z M-799,932c-38,0-69,30.9-69,69c0,38,30.9,69,69,69s69-30.9,69-69
	C-730.1,963-761,932-799,932L-799,932z"/>
</svg>
