<?xml version="1.0" standalone="no"?><!DOCTYPE svg PUBLIC "-//W3C//DTD SVG 1.1//EN" "http://www.w3.org/Graphics/SVG/1.1/DTD/svg11.dtd"><svg class="icon" width="200px" height="200.00px" viewBox="0 0 1024 1024" version="1.1" xmlns="http://www.w3.org/2000/svg"><path fill="#333333" d="M959.028 832.034l-46.53-46.53v-552.396c0-26.797-21.748-48.545-48.545-48.545h-552.396l-48.545-48.545h625.214c40.22 0 72.818 32.622 72.818 72.818v606.815c0 5.631-0.777 11.092-2.015 16.384zM596.954 442.726v-185.297c0-13.423 10.874-24.297 24.273-24.297 5.121 0 9.612 1.966 13.52 4.66 11.335-2.645 22.889-4.66 35.025-4.66 93.838 0 169.908 76.070 169.908 169.908 0 76.58-50.996 140.562-120.61 161.777l-41.239-41.215c63.205-4.223 113.305-56.313 113.305-120.562 0-67.017-54.322-121.363-121.363-121.363-8.35 0-16.433 0.971-24.273 2.573v206.996l-48.545-48.521zM930.144 928.057c-9.49 9.49-24.831 9.49-34.321 0l-801.578-797.792c-9.49-9.49-9.49-24.831 0-34.321s24.831-9.49 34.321 0l801.554 797.767c9.49 9.49 9.49 24.855 0.025 34.346zM439.789 768.051l-30.778-75.003c-2.038 0.558-4.029 1.262-6.262 1.262h-145.635c-0.461 0-0.801-0.243-1.262-0.267l-30.996 74.055c-5.17 12.379-19.394 18.205-31.773 13.010-12.355-5.17-18.18-19.37-13.010-31.748l122.309-292.267 105.707 105.707 76.58 186.827c5.073 12.403-0.849 26.603-13.253 31.676-12.379 5.098-26.555-0.826-31.627-13.253zM333.475 508.651l-57.38 137.116h113.596l-56.215-137.116zM111.502 791.377c0 26.821 21.748 48.545 48.545 48.545h528.123l48.545 48.545h-600.941c-40.22 0-72.818-32.598-72.818-72.818v-600.941l48.545 48.57v528.099z" /></svg>