<?xml version="1.0" standalone="no"?><!DOCTYPE svg PUBLIC "-//W3C//DTD SVG 1.1//EN" "http://www.w3.org/Graphics/SVG/1.1/DTD/svg11.dtd"><svg t="1499323568137" class="icon" style="" viewBox="0 0 1024 1024" version="1.1" xmlns="http://www.w3.org/2000/svg" p-id="5108" xmlns:xlink="http://www.w3.org/1999/xlink" width="200" height="200"><defs><style type="text/css"></style></defs><path d="M958.367187 742.644007l-0.065492-86.580914c0.23536-2.082428 0.366344-4.184299 0.366344-6.317892 0-1.325182-0.132006-2.618641-0.375553-3.873214l-0.070608-85.476767c0.305969-2.430352 0.446162-4.790096 0.446161-7.075139 0-78.006632-161.353898-123.220393-328.724836-129.876999 39.026852-79.219249 57.021691-148.623969 37.950333-186.663331-0.568958-4.916986-2.895957-9.650801-6.957459-13.130042l-72.624041-62.206783a20.056801 20.056801 0 0 0-6.501064-3.718695c-8.381901-6.196119-21.911032-12.184507-42.158169-10.116405-69.122287 6.915503-190.44854 108.219747-301.883515 252.124228C114.130364 559.422056 21.650089 749.220796 84.186378 803.046702a50.16247 50.16247 0 0 0 3.177365 2.495844l64.623833 55.165414a20.539802 20.539802 0 0 0 3.02694 3.285836c10.295484 8.950859 22.705118 12.771885 36.375466 12.735046 33.118282 0 73.578786-22.36231 109.09365-48.033993 67.373457 30.137391 176.269609 48.113811 291.53175 48.113811 156.12685 0 313.87564-32.784684 355.924315-95.828533 6.232958-3.483334 10.44591-10.149151 10.44591-17.764595l-0.00921-9.735735c0.258896-2.204202 0.413416-4.432962 0.413416-6.698563a20.250206 20.250206 0 0 0-0.422626-4.137227z m-774.051321 92.194772l-29.723975-25.37083c71.143317-24.50102 177.704284-118.655424 276.389887-246.219751 31.453363-40.521902 60.053748-81.81947 84.992743-122.707716 5.857405-9.561773 2.806929-22.089088-6.792706-27.951609-9.561773-5.819542-22.094204-2.843768-27.951609 6.792706-24.167422 39.548738-51.912323 79.5815-82.425268 118.965486-115.101481 148.788721-224.788649 231.618195-273.649473 236.545414-5.857405 0.63445-10.299577 0.00921-13.261025-1.781576a20.35356 20.35356 0 0 0-0.940419-0.667196c-0.103354-0.079818-0.226151-0.150426-0.324388-0.239453-26.851555-23.147186 21.807678-170.102143 159.243841-347.566974 115.298979-148.830677 224.985124-231.665267 273.767154-236.545414 6.712889-0.653893 11.555174 0.202615 14.483876 2.76395 7.733125 6.633071 13.8351 39.506782-18.512633 116.685559-4.353145 10.375302 0.573051 22.296819 10.906398 26.606984 10.455119 4.353145 22.296819-0.531096 26.606984-10.901281 15.588023-37.156248 24.660656-68.676126 27.275203-94.455255l20.11513 17.228383a20.322861 20.322861 0 0 0 4.485151 5.538133c26.851555 23.147186-21.807678 170.102143-159.200861 347.777775-47.559179 61.3513-98.094132 116.154463-146.22227 158.505014-77.017094 68.197218-124.261095 83.188654-139.26174 76.997651z m631.388111-197.259666a20.427238 20.427238 0 0 0 19.442817 14.281262c1.997494 0 4.070712-0.24457 6.106069-0.940419 34.095539-10.661827 58.719356-22.451338 76.328409-34.466999l0.028652 36.634362c-6.370081 30.217209-97.425913 74.443479-263.143188 84.170005-11.230786 0.610914-19.814278 10.29446-19.123547 21.48329 0.653893 10.821463 9.561773 19.161409 20.303419 19.161408 0.404206 0 0.77055 0 1.221827-0.037862 102.489232-5.998621 205.603705-27.965935 260.787538-65.535599l0.032746 38.09155c-8.019651 36.19741-133.144416 85.707011-325.674361 85.707011-98.634438 0-191.557804-13.472849-254.652817-36.422538a727.386512 727.386512 0 0 0 13.143345-11.385304c14.337543-12.621459 28.868491-26.291806 43.46493-40.86471 46.200228 9.871835 99.716073 16.236799 155.445329 18.489096h0.855484c10.863419 0 19.856233-8.583492 20.303418-19.527752 0.446162-11.234879-8.259104-20.669762-19.48989-21.158902-43.624567-1.743714-85.688591-6.116301-123.57241-12.758582a1302.80489 1302.80489 0 0 0 32.929993-37.183877c0.573051 0.121773 1.151219 0.230244 1.748831 0.305968 41.580001 5.208629 85.194334 7.812943 129.660058 7.812943 54.967916 0 107.655905-3.906983 156.51673-11.555173 11.066033-1.74883 18.714224-12.166087 16.965393-23.232121-1.74883-11.103896-12.20395-18.427698-23.23212-16.965394-77.230965 12.124132-167.845753 14.309914-250.868631 6.196119 3.581572-4.51278 7.154957-9.058306 10.703783-13.641694 40.436968-52.29811 77.536934-107.806331 106.969266-160.719449 188.821483 3.953032 309.038472 55.513338 309.038472 89.806376 0 14.281261-23.311939 38.241976-88.898702 58.752102-10.740622 3.372817-16.677844 14.763239-13.340843 25.504883z" p-id="5109"></path></svg>