<?xml version="1.0" standalone="no"?><!DOCTYPE svg PUBLIC "-//W3C//DTD SVG 1.1//EN" "http://www.w3.org/Graphics/SVG/1.1/DTD/svg11.dtd"><svg t="1496730865231" class="icon" style="" viewBox="0 0 1024 1024" version="1.1" xmlns="http://www.w3.org/2000/svg" p-id="5317" xmlns:xlink="http://www.w3.org/1999/xlink" width="200" height="200"><defs><style type="text/css"></style></defs><path d="M993.735111 648.647111 991.175111 631.125333 987.932444 613.944889 985.372444 605.127111 982.926222 595.797333 979.626667 586.865778 976.327111 576.910222 972.458667 567.523556 968.248889 557.909333 960.739556 542.208 954.083556 528.327111 947.484444 515.982222 941.681778 504.433778 935.082667 493.852444 930.190222 484.238222 919.950222 469.845333 906.979556 450.616889 903.964444 445.895111 902.940444 443.904 902.940444 442.254222 905.159111 435.825778 908.117333 430.023111 910.734222 418.645333 912.156444 412.785778 912.156444 406.698667 912.952889 401.806222 912.952889 396.913778 912.156444 391.224889 911.303111 386.673778 909.425778 377.287111 906.979556 368.184889 904.704 359.879111 901.176889 351.744 897.194667 344.974222 894.065778 338.659556 890.538667 332.629333 885.077333 323.640889 883.029333 320.512 882.460444 317.781333 879.900444 300.487111 878.307556 289.109333 876.430222 275.000889 873.528889 260.380444 869.034667 243.712 866.417778 234.325333 864.483556 226.417778 861.582222 217.144889 858.396444 207.36 855.267556 198.257778 851.171556 188.529778 842.922667 169.642667 837.973333 160.711111 832.056889 150.414222 826.481778 141.596444 820.963556 131.697778 813.056 122.481778 806.4 113.550222 798.321778 104.277333 790.072889 95.971556 781.767111 87.893333 771.925333 79.530667 766.748444 76.458667 761.856 72.305778 751.274667 64.967111 738.929778 57.002667 726.357333 49.834667 713.443556 43.349333 699.335111 37.432889 686.08 31.800889 672.199111 26.908444 657.066667 22.869333 643.242667 19.285333 628.565333 16.156444 614.570667 12.8 599.608889 11.207111 584.874667 9.443556 570.197333 7.623111 555.008 7.623111 540.387556 7.623111 526.222222 7.623111 511.317333 8.419556 497.379556 10.353778 483.384889 12.231111 469.276444 14.506667 455.281778 17.123556 442.026667 20.309333 428.714667 24.462222 416.426667 28.615111 404.138667 32.654222 391.736889 38.570667 380.017778 43.349333 369.664 49.095111 358.912 55.580444 348.956444 62.350222 339.114667 70.030222 331.036444 77.084444 318.350222 88.746667 307.882667 99.555556 297.813333 110.08 288.540444 120.718222 279.893333 131.697778 272.270222 142.336 264.874667 153.031111 261.461333 157.752889 258.275556 163.555556 251.392 173.624889 245.873778 183.751111 241.038222 193.194667 236.771556 203.320889 232.618667 212.536889 229.148444 221.184 225.962667 230.4 222.776889 238.933333 218.453333 254.350222 215.381333 269.198222 213.617778 281.6 211.854222 292.295111 211.854222 300.487111 211.854222 307.086222 211.854222 313.002667 208.839111 316.188444 206.108444 320.512 203.946667 324.380444 202.069333 328.590222 199.736889 337.635556 197.233778 346.055111 196.323556 353.507556 195.754667 358.968889 195.754667 364.885333 189.838222 373.248 185.685333 381.610667 182.499556 389.688889 180.110222 396.913778 178.346667 403.797333 176.583111 410.339556 176.583111 415.800889 176.583111 421.831111 176.583111 426.894222 177.550222 430.876444 179.029333 438.215111 180.849778 443.904 177.550222 446.350222 168.334222 453.12 156.046222 464.099556 148.536889 470.528 141.198222 476.899556 136.192 481.905778 132.039111 486.4 123.050667 495.786667 114.574222 505.116444 107.975111 513.251556 100.010667 524.913778 92.387556 535.381333 84.935111 547.043556 78.563556 557.909333 73.329778 569.400889 67.754667 580.039111 63.715556 590.506667 59.392 601.543111 56.206222 612.181333 53.077333 623.160889 50.289778 632.661333 48.696889 642.901333 46.990222 652.401778 45.568 661.617778 44.657778 679.708444 44.657778 696.376889 44.657778 703.886222 45.568 711.224889 47.900444 723.740444 48.696889 729.258667 50.289778 734.833778 52.167111 740.181333 53.930667 743.936 56.775111 750.876444 58.936889 752.298667 60.245333 755.2 61.952 755.939556 62.976 755.939556 63.715556 755.939556 71.054222 755.2 78.563556 753.322667 84.935111 750.876444 91.534222 746.723556 97.564444 742.741333 103.025778 737.735111 108.942222 732.444444 114.005333 726.926222 118.784 720.725333 123.050667 715.150222 127.146667 710.485333 129.706667 705.194667 134.656 696.376889 136.192 692.792889 137.045333 690.574222 137.500444 688.184889 138.638222 686.136889 139.491556 685.738667 141.198222 684.885333 142.279111 684.885333 142.677333 685.738667 143.530667 685.738667 144.384 686.136889 147.171556 698.140444 150.129778 707.811556 154.225778 717.880889 158.264889 726.926222 161.678222 735.971556 166.912 743.936 170.780444 752.298667 175.104 759.921778 180.110222 766.520889 183.864889 772.949333 193.991111 784.782222 202.808889 795.249778 211.228444 803.498667 219.648 810.780444 226.872889 816.583111 237.681778 825.912889 242.005333 827.960889 243.484444 830.008889 243.484444 830.976 242.460444 831.886222 242.005333 831.886222 239.843556 832.568889 231.708444 833.194667 224.256 834.161778 217.941333 835.015111 211.228444 836.437333 205.482667 838.200889 199.736889 839.907556 194.730667 842.524444 190.691556 844.970667 185.685333 846.563556 182.499556 849.123556 179.029333 851.171556 175.388444 854.016 170.780444 859.648 169.073778 862.264889 166.912 864.597333 164.010667 870.513778 162.417778 875.406222 160.483556 880.298667 160.085333 884.565333 160.085333 890.254222 160.085333 892.700444 159.288889 896.739556 159.288889 900.721778 158.264889 904.817778 158.264889 908.344889 159.288889 912.270222 160.085333 915.740444 162.417778 922.510222 164.010667 925.696 166.058667 928.824889 168.334222 932.010667 170.780444 934.741333 174.08 937.927111 176.583111 940.487111 183.864889 945.891556 191.260444 950.328889 199.736889 954.368 208.839111 957.952 218.453333 961.820444 229.148444 964.323556 239.843556 967.793778 251.392 970.069333 262.883556 971.832889 274.659556 973.539556 286.890667 975.303111 311.068444 977.749333 335.985778 978.147556 358.912 978.147556 369.664 978.147556 380.017778 978.147556 390.826667 977.749333 400.099556 976.725333 408.974222 975.928889 417.393778 975.303111 430.762667 972.686222 440.433778 970.069333 449.706667 967.793778 466.659556 960.853333 474.339556 957.952 481.678222 954.368 493.795556 947.712 504.718222 942.421333 512.796444 937.358222 518.712889 932.010667 527.928889 933.034667 535.096889 933.774222 549.262222 934.741333 555.918222 934.741333 561.493333 934.741333 565.816889 935.651556 570.197333 937.358222 577.080889 939.804444 584.874667 942.421333 599.608889 946.858667 614.570667 952.206222 629.248 956.416 643.982222 959.260444 659.057778 963.015111 674.645333 965.176889 689.436444 966.769778 704.398222 968.817778 718.222222 970.069333 733.070222 970.922667 747.292444 970.922667 761.116444 970.922667 774.257778 970.922667 787.512889 969.329778 800.483556 968.817778 813.056 966.769778 824.604444 964.323556 836.039111 961.820444 847.189333 959.260444 851.740444 957.952 856.860444 956.416 866.417778 952.661333 875.008 948.792889 883.029333 944.753778 890.538667 940.487111 897.194667 935.651556 899.811556 933.034667 902.940444 929.450667 906.979556 924.672 911.303111 918.755556 912.952889 915.740444 913.635556 913.294222 915.456 910.108444 916.252444 906.695111 916.252444 903.338667 917.105778 900.039111 916.252444 895.146667 915.456 890.936889 913.635556 886.101333 912.156444 882.005333 909.425778 877.169778 906.126222 872.675556 902.940444 868.807111 898.673778 865.393778 889.799111 857.941333 879.900444 850.716444 869.888 844.970667 859.420444 839.054222 835.356444 827.505778 829.553778 824.092444 828.017778 822.499556 826.993778 821.475556 838.542222 810.097778 843.605333 804.465778 847.758222 799.288889 855.836444 787.911111 863.459556 776.248889 869.888 765.838222 876.032 755.939556 884.167111 735.971556 890.538667 719.416889 894.805333 707.811556 897.194667 703.886222 898.673778 700.700444 901.176889 698.823111 902.200889 698.823111 902.940444 699.278222 909.141333 711.224889 914.659556 722.773333 918.528 729.258667 922.567111 734.833778 926.549333 741.774222 931.669333 748.544 935.936 753.322667 938.552889 755.939556 941.112889 758.215111 943.502222 759.921778 945.720889 761.514667 950.670222 763.960889 953.230222 764.814222 954.936889 764.814222 957.269333 764.814222 959.886222 763.960889 963.128889 762.424889 966.656 760.832 969.671111 758.215111 972.458667 755.2 975.587556 751.445333 978.033778 748.544 980.821333 743.936 982.926222 740.181333 985.372444 734.833778 986.737778 730.396444 990.321778 719.416889 992.597333 707.356444 994.304 693.930667 995.441778 686.136889 995.441778 679.708444 995.441778 672.711111 995.441778 664.234667Z" p-id="5318"></path></svg>