<?xml version="1.0" encoding="utf-8"?>
<!-- Generator: Adobe Illustrator 19.0.0, SVG Export Plug-In . SVG Version: 6.00 Build 0)  -->
<svg version="1.1" id="图层_1" xmlns="http://www.w3.org/2000/svg" xmlns:xlink="http://www.w3.org/1999/xlink" x="0px" y="0px"
	 viewBox="-399 401 200 200" style="enable-background:new -399 401 200 200;" xml:space="preserve">
<path d="M-297.9,460c-31.7,0-57.3,26.1-57.3,58.3c0,32.2,25.7,58.3,57.3,58.3c31.7,0,57.4-26.1,57.4-58.3S-266.2,460-297.9,460
	L-297.9,460z M-268.4,513.1l-11.3,11.2l2.7,15.8c0.9,5.3-2.1,7.6-6.9,5.1l-14-7.5l-14,7.5c-4.7,2.5-7.8,0.3-6.9-5.1l2.7-15.8
	l-11.3-11.2c-3.8-3.8-2.7-7.4,2.6-8.2l15.6-2.3l7-14.4c2.3-4.8,6.1-4.9,8.5,0l7,14.4l15.6,2.3C-265.8,505.7-264.6,509.3-268.4,513.1
	z M-244.3,426.4h-35.5c-1.9,0-3.4,1.4-3.9,3.2l-10.9,21.9c0,0,23.4,1.4,37.2,15L-241,433c0.5-0.7,0.8-1.5,0.8-2.4
	C-240.2,428.3-242,426.4-244.3,426.4L-244.3,426.4z M-301.8,451.5l-10.9-21.9c-0.5-1.8-2-3.2-3.9-3.2h-35.5c-2.3,0-4.1,1.9-4.1,4.2
	c0,0.9,0.3,1.7,0.8,2.4l16.3,33.5C-325.2,452.9-301.8,451.5-301.8,451.5z"/>
</svg>
