<?xml version="1.0" encoding="utf-8"?>
<!-- Generator: Adobe Illustrator 19.0.0, SVG Export Plug-In . SVG Version: 6.00 Build 0)  -->
<svg version="1.1" id="图层_1" xmlns="http://www.w3.org/2000/svg" xmlns:xlink="http://www.w3.org/1999/xlink" x="0px" y="0px"
	 viewBox="-399 401 200 200" style="enable-background:new -399 401 200 200;" xml:space="preserve">
<style type="text/css">
	.st0{fill:#BFBFBF;}
</style>
<path class="st0" d="M-242.5,424.2h-114.9c-3.3,0-6,2.7-6,6v153l63.4-43.4l63.4,43.4v-153C-236.5,426.8-239.2,424.2-242.5,424.2z
	 M-342.8,444.4h22.5v-7.1h7.3v7.1h26.1v-7.1h7.3v7.1h22.5v6.5h-22.5v7.2h-7.3v-7.2H-313v7.1h-7.3v-7.1h-22.5
	C-342.8,450.9-342.8,444.4-342.8,444.4z M-319.7,528.1h-6.8v-35.1c-3.9,3.5-8.5,7-13.7,10.6l-4.5-5.7c11.8-7.7,20.9-16.6,27.3-26.6
	h-24.2v-6.5h27.9c1.3-2.8,2.4-5.3,3.3-7.5l6.9,1.2c-0.3,0.8-0.7,1.8-1.2,3.2l-1.3,3.2h48.3v6.5h-51.6c-2.9,5.2-6.4,10.1-10.6,14.9
	V528.1L-319.7,528.1z M-256.5,506.4h-21.8v13.4c0,5.3-2.6,8-7.9,8h-11.6l-2.1-6.9c5.1,0.3,8.7,0.5,10.8,0.5c2.4,0,3.7-1.2,3.7-3.6
	v-11.4h-27.3v-6.7h27.3v-6.1c2.8-1.7,6.9-4.4,12.4-8h-32.6v-6.5h42.7v5.2c-5.1,4-10.2,7.8-15.4,11.4v4.2h21.8V506.4L-256.5,506.4z"
	/>
</svg>
