<?xml version="1.0" standalone="no"?><!DOCTYPE svg PUBLIC "-//W3C//DTD SVG 1.1//EN" "http://www.w3.org/Graphics/SVG/1.1/DTD/svg11.dtd"><svg class="icon" width="200px" height="200.00px" viewBox="0 0 1024 1024" version="1.1" xmlns="http://www.w3.org/2000/svg"><path fill="#333333" d="M941.891957 511.561002 113.191992 511.561002c-18.866696 0-34.133402-15.283078-34.133402-34.133402s15.266705-34.133402 34.133402-34.133402l828.699965 0c18.866696 0 34.133402 15.283078 34.133402 34.133402C976.024336 496.277924 960.75763 511.561002 941.891957 511.561002zM851.358011 911.844617 685.957961 911.844617c-18.866696 0-34.133402-15.283078-34.133402-34.133402s15.266705-34.133402 34.133402-34.133402l165.400051 0c13.500479 0 24.466228-10.983145 24.466228-24.483624L875.824239 653.677766c0-18.850323 15.266705-34.133402 34.133402-34.133402s34.133402 15.283078 34.133402 34.133402l0 165.416424C944.091042 870.24415 902.491599 911.844617 851.358011 911.844617zM909.957641 371.010919c-18.866696 0-34.133402-15.283078-34.133402-34.133402L875.824239 171.461093c0-13.483082-10.966773-24.466228-24.466228-24.466228L685.957961 146.994865c-18.866696 0-34.133402-15.283078-34.133402-34.133402s15.266705-34.133402 34.133402-34.133402l165.400051 0c51.133587 0 92.733031 41.600467 92.733031 92.733031l0 165.416424C944.091042 355.727841 928.824337 371.010919 909.957641 371.010919zM145.091516 371.010919c-18.866696 0-34.133402-15.283078-34.133402-34.133402L110.958114 171.461093c0-51.133587 41.600467-92.733031 92.7668-92.733031l165.400051 0c18.866696 0 34.133402 15.283078 34.133402 34.133402s-15.266705 34.133402-34.133402 34.133402L203.724915 146.994865c-13.500479 0-24.499997 10.983145-24.499997 24.466228l0 165.416424C179.224918 355.727841 163.958212 371.010919 145.091516 371.010919zM369.124965 911.844617 203.724915 911.844617c-51.166333 0-92.7668-41.600467-92.7668-92.750427L110.958114 653.694139c0-18.850323 15.266705-34.133402 34.133402-34.133402s34.133402 15.283078 34.133402 34.133402l0 165.400051c0 13.500479 10.999518 24.483624 24.499997 24.483624l165.400051 0c18.866696 0 34.133402 15.283078 34.133402 34.133402S387.991662 911.844617 369.124965 911.844617z" /></svg>