<?xml version="1.0" encoding="utf-8"?>
<!-- Generator: Adobe Illustrator 19.0.0, SVG Export Plug-In . SVG Version: 6.00 Build 0)  -->
<svg version="1.1" id="图层_1" xmlns="http://www.w3.org/2000/svg" xmlns:xlink="http://www.w3.org/1999/xlink" x="0px" y="0px"
	 viewBox="-399 401 200 200" style="enable-background:new -399 401 200 200;" xml:space="preserve">
<style type="text/css">
	.st0{fill:#BFBFBF;}
</style>
<path class="st0" d="M-378,464.1l73.4,31.3V580c-6-2.6-12-5.6-18-8.2c-5.6-2.6-11.6-5.2-18.5-8.2l-20.6-9c-2.6-1.3-4.7-2.6-6.9-4.7
	c-1.7-1.7-3.4-3.9-4.7-6c-1.3-2.1-2.6-4.7-3.4-7.3c-0.9-2.6-1.3-5.2-1.3-7.3C-378,529.3-378,464.1-378,464.1z"/>
<path class="st0" d="M-220,464.1v65.3c0,3-0.4,6-1.7,8.6c-1.3,3-2.6,5.6-4.3,7.7c-1.7,2.6-3.9,4.7-6,6.4c-2.1,1.7-4.3,3.4-6.4,4.3
	c-6,2.6-12,5.2-18.9,7.7c-6.4,2.6-12.5,5.2-18,7.7c-6.4,2.6-12.9,5.6-18.9,7.7v-84.2L-220,464.1L-220,464.1z"/>
<path class="st0" d="M-224.7,451.2l-73.4,30.5l-73.8-30.5l73.4-29.2L-224.7,451.2z"/>
</svg>
