<?xml version="1.0" standalone="no"?><!DOCTYPE svg PUBLIC "-//W3C//DTD SVG 1.1//EN" "http://www.w3.org/Graphics/SVG/1.1/DTD/svg11.dtd"><svg class="icon" width="200px" height="200.00px" viewBox="0 0 1024 1024" version="1.1" xmlns="http://www.w3.org/2000/svg"><path fill="#333333" d="M935.6 546.2 561.2 163.5c-5.6-5.7-13.2-8.9-21.2-8.9L362.6 154.6l-83 0L102.1 154.6c-17.7 0-32 14.3-32 32l0 269.1c0 7.9 3.1 15.4 8.7 21l373.9 373.9c25 25 65.5 25 90.5 0l43.5-43.5 43.5 43.5c25 25 65.5 25 90.5 0l214.4-214.4C959.9 611.4 960.1 571.2 935.6 546.2zM586.7 716.7l-45.3 45.3-20.8 20.8c-12.5 12.5-32.8 12.5-45.3 0L134.1 441.5 134.1 218.6 247.6 218.6l64 0 36.6 0 342.2 349.7c12.3 12.5 12.2 32.6-0.2 45L586.7 716.7zM867.5 613.3 698 782.7c-12.5 12.5-32.8 12.5-45.3 0L632 761.9l125.7-125.7c24.8-24.8 25-64.9 0.5-90L437.7 218.6l87.9 0 342.2 349.7C880 580.8 879.9 600.9 867.5 613.3zM280.7 460.1c-52.6 0-95.3-42.8-95.3-95.3s42.8-95.3 95.3-95.3 95.3 42.8 95.3 95.3S333.3 460.1 280.7 460.1zM280.7 333.5c-17.3 0-31.3 14-31.3 31.3s14 31.3 31.3 31.3c17.3 0 31.3-14 31.3-31.3S298 333.5 280.7 333.5z" /></svg>