<?xml version="1.0" standalone="no"?><!DOCTYPE svg PUBLIC "-//W3C//DTD SVG 1.1//EN" "http://www.w3.org/Graphics/SVG/1.1/DTD/svg11.dtd"><svg class="icon" width="200px" height="200.00px" viewBox="0 0 1024 1024" version="1.1" xmlns="http://www.w3.org/2000/svg"><path fill="#333333" d="M516.266667 962.798933C270.916267 962.798933 72.055467 763.938133 72.055467 518.621867S270.916267 74.410667 516.266667 74.410667c245.3504 0 444.2112 198.8608 444.2112 444.2112S761.617067 962.798933 516.266667 962.798933zM516.266667 157.661867c-199.338667 0-360.925867 161.5872-360.925867 360.925867 0 199.304533 161.5872 360.925867 360.925867 360.925867 199.2704 0 360.96-161.621333 360.96-360.925867C877.192533 319.2832 715.537067 157.661867 516.266667 157.661867zM696.661333 560.2304 613.410133 560.2304l-55.534933 0-41.608533 0 0 0c-23.005867 0-41.642667-18.6368-41.642667-41.642667l0-249.856c0-23.005867 18.6368-41.642667 41.642667-41.642667s41.608533 18.6368 41.608533 41.642667l0 208.247467 55.534933 0 83.2512 0c23.074133 0 41.6768 18.6368 41.6768 41.642667S719.735467 560.2304 696.661333 560.2304z" /></svg>