<?xml version="1.0" encoding="utf-8"?>
<!-- Generator: Adobe Illustrator 19.0.0, SVG Export Plug-In . SVG Version: 6.00 Build 0)  -->
<svg version="1.1" id="图层_1" xmlns="http://www.w3.org/2000/svg" xmlns:xlink="http://www.w3.org/1999/xlink" x="0px" y="0px"
	 viewBox="-899 901 200 200" style="enable-background:new -899 901 200 200;" xml:space="preserve">
<style type="text/css">
	.st0{fill:#2C2C2C;}
</style>
<path class="st0" d="M-798.3,1074.4c-19.8,0-38.5-7.7-52.5-21.8c-14-14-21.7-32.7-21.7-52.5c0-19.8,7.7-38.5,21.8-52.5
	c14-14,32.7-21.8,52.5-21.8c19.8,0,38.5,7.7,52.5,21.8c14,14,21.8,32.7,21.8,52.5s-7.7,38.5-21.8,52.5
	C-759.8,1066.7-778.5,1074.4-798.3,1074.4L-798.3,1074.4z M-798.3,931.1c-38,0-69,30.9-69,69c0,38,30.9,69,69,69c38,0,69-30.9,69-69
	C-729.4,962.1-760.3,931.1-798.3,931.1L-798.3,931.1z"/>
<path class="st0" d="M-782.3,1003.6c7.8-5.2,13-14.1,13-24.2c0-16-13-29-29-29s-29,13-29,29c0,10.1,5.2,19,13,24.2
	c-14.9,6-25.6,20-26.1,36.5c0,0-0.7,3.1,5.2,2.6c2.5-0.2,3.2-2.6,3.2-2.6c2.8-18,16.8-31.7,33.8-31.7c16.9,0,31,13.7,33.8,31.7
	c0,0,1.6,2.5,3.2,2.6c4.8,0.6,5.2-2.6,5.2-2.6C-756.7,1023.6-767.3,1009.6-782.3,1003.6L-782.3,1003.6z M-798.3,1000.1
	c-11.7,0-21.1-9.4-21.1-21.1c0-11.7,9.4-21.1,21.1-21.1c11.7,0,21.1,9.4,21.1,21.1C-777.2,990.7-786.7,1000.1-798.3,1000.1
	L-798.3,1000.1z"/>
</svg>
