<?xml version="1.0" encoding="utf-8"?>
<!-- Generator: Adobe Illustrator 19.0.0, SVG Export Plug-In . SVG Version: 6.00 Build 0)  -->
<svg version="1.1" id="图层_1" xmlns="http://www.w3.org/2000/svg" xmlns:xlink="http://www.w3.org/1999/xlink" x="0px" y="0px"
	 viewBox="-899 901 200 200" style="enable-background:new -899 901 200 200;" xml:space="preserve">
<style type="text/css">
	.st0{fill:#2C2C2C;}
</style>
<path class="st0" d="M-798.3,1075.3c-19.8,0-38.5-7.7-52.5-21.8c-14-14-21.7-32.7-21.7-52.5c0-19.8,7.7-38.5,21.8-52.5
	c14-14,32.7-21.8,52.5-21.8c19.8,0,38.5,7.7,52.5,21.8c14,14,21.8,32.7,21.8,52.5s-7.7,38.5-21.8,52.5
	C-759.9,1067.6-778.5,1075.3-798.3,1075.3L-798.3,1075.3z M-798.3,932c-38,0-69,30.9-69,69c0,38,30.9,69,69,69c38,0,69-30.9,69-69
	C-729.4,963-760.3,932-798.3,932L-798.3,932z"/>
<path class="st0" d="M-764.8,965.2c-3.6-1.5-7.8,0.3-9.2,4l-23.8,59.3l-23.8-59.3c-1.5-3.6-5.6-5.4-9.2-4c-3.6,1.5-5.4,5.6-4,9.2
	l30,74.8c1.2,2.9,4,4.6,7,4.4c3,0.2,5.8-1.5,7-4.4l30-74.8C-759.4,970.8-761.1,966.7-764.8,965.2z"/>
</svg>
