<?xml version="1.0" standalone="no"?><!DOCTYPE svg PUBLIC "-//W3C//DTD SVG 1.1//EN" "http://www.w3.org/Graphics/SVG/1.1/DTD/svg11.dtd"><svg class="icon" width="200px" height="200.00px" viewBox="0 0 1024 1024" version="1.1" xmlns="http://www.w3.org/2000/svg"><path fill="#333333" d="M982.016 331.968c-21.824-24.96-157.056-184.64-208.704-240.32-15.936-17.216-27.776-29.12-52.16-30.08-24.384-0.896-417.408 0-417.408 0-13.44 0-30.72 3.136-52.928 29.12C199.04 151.36 82.24 285.12 42.88 331.968c-26.688 30.912-30.08 74.88 0 120.128 64 74.56 240.32 276.8 417.408 480.64 25.152 28.992 40.96 30.08 52.16 30.08 10.944 0 26.496-0.512 52.16-30.08 175.36-201.92 343.744-394.944 417.344-480.64C1006.848 422.08 1011.52 367.552 982.016 331.968zM929.856 422.08c-58.816 68.544-235.52 264.896-375.488 426.624-20.48 23.616-32.896 24-41.6 24-8.896 0-21.504-0.896-41.6-24-141.312-163.2-324.992-366.976-376.064-426.624-14.272-14.592-13.952-39.104 0-60.096C126.464 324.48 236.16 200 277.632 151.744c30.784-35.904 57.792-30.08 68.544-30.08 0 0 313.536 0 333.056 0 40 0 49.472 8.832 67.968 30.08 39.936 45.952 165.312 190.272 182.656 210.24C945.216 383.936 940.608 404.672 929.856 422.08zM789.504 361.984l-98.816 0c-5.44 0-13.312 0.832-19.84 11.008L512.768 595.84C512.64 595.968 512.576 596.352 512.448 596.608c0-0.256 0-0.64 0-0.832L354.112 373.056c-6.528-10.24-14.336-11.008-19.776-11.008L235.392 362.048c-5.44 0-9.92 4.928-9.92 11.008l0 54.848c0 6.08 4.416 11.008 9.92 11.008 0.128 0 1.536 0 9.536 0 14.272 0 13.184 2.688 20.096 11.008 49.472 67.264 247.36 332.544 247.36 332.544 0-0.32 0-0.832 0-1.152 0.128 0.384 0.192 0.832 0.32 1.152 0 0 197.632-265.344 247.168-332.544 6.848-8.256 5.888-11.008 20.032-11.008 7.936 0 9.344 0 9.472 0 5.44 0 9.856-4.992 9.856-11.008L799.232 373.056C799.36 366.912 794.944 361.984 789.504 361.984z" /></svg>